<svg width="96" height="30" viewBox="0 0 96 30" fill="none" xmlns="http://www.w3.org/2000/svg">
<path d="M66.9479 19.8028V1.5999H57.3525V10.7313L44.2933 19.0588L42.1094 17.7229L54.9566 9.23544L49.361 5.49966L36.3578 13.7712L34.2779 12.3832L47.1771 4.05575L41.1535 0L24.5785 10.6753L24.2585 9.7674L23.8865 8.85946L23.4066 8.00351L22.9266 7.15156L22.3386 6.35161L21.6987 5.60366L20.9507 4.9117L20.2028 4.27174L19.3508 3.68377L18.4429 3.15181L17.4829 2.72383L16.471 2.29586L15.3511 2.02788L14.1791 1.75989L12.9512 1.6519L11.6713 1.5999H0V28.3343H11.7753L13.1072 28.2823L14.3311 28.1223L15.5031 27.9103L16.623 27.5903L17.6909 27.1623L18.6509 26.6824L19.6108 26.1504L20.4108 25.5104L21.2107 24.8705L21.9027 24.1225L22.5426 23.3226L23.1306 22.5226L23.6106 21.6147L24.0905 20.7067L24.4105 19.7988L24.7305 18.8388L41.2015 29.9942L57.3525 19.5868V28.3423H75.4754V19.8028H66.9479ZM16.255 15.799L16.043 16.707L15.671 17.5069L15.1391 18.2549L14.4991 18.8948L13.6992 19.3748L12.7392 19.6948L11.6713 19.8028H9.16744V9.98339H11.6713L12.7912 10.0914L13.6992 10.4114L14.4991 10.8913L15.1911 11.5313L15.671 12.2792L16.043 13.0792L16.255 13.9871L16.307 14.8951L16.255 15.799ZM77.8712 1.5999H87.5187V19.8028H95.9941V28.3423H77.8712V1.5999Z" fill="#4B4C4B"/>
</svg>
