<svg xmlns="http://www.w3.org/2000/svg" xmlns:xlink="http://www.w3.org/1999/xlink" width="120" zoomAndPan="magnify" viewBox="0 0 90 89.999999" height="120" preserveAspectRatio="xMidYMid meet" version="1.0"><defs><clipPath id="5c4c78c751"><path d="M 24.199219 59.226562 L 36.722656 59.226562 L 36.722656 74.878906 L 24.199219 74.878906 Z M 24.199219 59.226562 " clip-rule="nonzero"/></clipPath><clipPath id="8a4b72dde0"><path d="M 12.914062 54 L 23 54 L 23 66 L 12.914062 66 Z M 12.914062 54 " clip-rule="nonzero"/></clipPath><clipPath id="bf5b51f63a"><path d="M 25 14.878906 L 48 14.878906 L 48 36 L 25 36 Z M 25 14.878906 " clip-rule="nonzero"/></clipPath><clipPath id="fcd14cfb76"><path d="M 70 59 L 77.414062 59 L 77.414062 65 L 70 65 Z M 70 59 " clip-rule="nonzero"/></clipPath></defs><g clip-path="url(#5c4c78c751)"><path fill="#ffffff" d="M 32.390625 75.113281 C 32.050781 75.113281 31.710938 75.058594 31.382812 74.949219 C 30.554688 74.683594 29.878906 74.105469 29.484375 73.332031 L 24.332031 63.214844 C 24.109375 62.785156 24.28125 62.253906 24.714844 62.035156 C 25.148438 61.8125 25.679688 61.984375 25.898438 62.417969 L 31.050781 72.53125 C 31.234375 72.890625 31.542969 73.15625 31.925781 73.277344 C 32.304688 73.402344 32.710938 73.371094 33.070312 73.1875 L 34.113281 72.65625 C 34.46875 72.476562 34.734375 72.164062 34.855469 71.785156 C 34.980469 71.402344 34.949219 70.996094 34.765625 70.640625 L 29.613281 60.523438 C 29.394531 60.09375 29.566406 59.5625 29.996094 59.34375 C 30.429688 59.121094 30.960938 59.292969 31.179688 59.726562 L 36.335938 69.839844 C 36.730469 70.617188 36.796875 71.5 36.53125 72.328125 C 36.261719 73.15625 35.6875 73.828125 34.910156 74.222656 L 33.867188 74.753906 C 33.402344 74.992188 32.898438 75.113281 32.390625 75.113281 " fill-opacity="1" fill-rule="nonzero"/></g><path fill="#ffffff" d="M 18.332031 54.21875 L 22.808594 63.007812 L 31.90625 58.371094 L 27.429688 49.582031 Z M 22.421875 65.070312 C 22.105469 65.070312 21.796875 64.894531 21.640625 64.589844 L 16.363281 54.234375 C 16.257812 54.027344 16.238281 53.785156 16.3125 53.5625 C 16.382812 53.34375 16.539062 53.15625 16.75 53.050781 L 27.414062 47.617188 C 27.847656 47.398438 28.375 47.570312 28.597656 48 L 33.871094 58.355469 C 33.976562 58.5625 33.996094 58.804688 33.925781 59.027344 C 33.851562 59.25 33.695312 59.433594 33.488281 59.539062 L 22.824219 64.972656 C 22.695312 65.039062 22.558594 65.070312 22.421875 65.070312 " fill-opacity="1" fill-rule="nonzero"/><g clip-path="url(#8a4b72dde0)"><path fill="#ffffff" d="M 17.140625 65.296875 C 16.820312 65.296875 16.511719 65.121094 16.355469 64.816406 L 13.074219 58.375 C 12.96875 58.167969 12.949219 57.925781 13.019531 57.707031 C 13.09375 57.484375 13.25 57.300781 13.457031 57.191406 L 17.746094 55.007812 C 18.179688 54.789062 18.707031 54.960938 18.929688 55.394531 C 19.148438 55.824219 18.976562 56.355469 18.542969 56.574219 L 15.039062 58.359375 L 17.523438 63.234375 L 21.027344 61.449219 C 21.460938 61.226562 21.988281 61.398438 22.210938 61.832031 C 22.429688 62.265625 22.257812 62.796875 21.824219 63.015625 L 17.539062 65.199219 C 17.410156 65.265625 17.273438 65.296875 17.140625 65.296875 " fill-opacity="1" fill-rule="nonzero"/></g><path fill="#ffffff" d="M 33.085938 59.632812 C 32.664062 59.632812 32.292969 59.328125 32.222656 58.898438 C 32.140625 58.417969 32.464844 57.964844 32.945312 57.886719 L 46.359375 55.652344 L 38.125 39.488281 L 28.429688 49.027344 C 28.085938 49.367188 27.527344 49.363281 27.1875 49.019531 C 26.847656 48.671875 26.851562 48.117188 27.195312 47.773438 L 37.746094 37.390625 C 37.945312 37.195312 38.226562 37.105469 38.503906 37.148438 C 38.78125 37.195312 39.019531 37.367188 39.144531 37.617188 L 48.472656 55.925781 C 48.601562 56.171875 48.601562 56.46875 48.476562 56.71875 C 48.347656 56.96875 48.109375 57.144531 47.832031 57.191406 L 33.234375 59.621094 C 33.183594 59.628906 33.136719 59.632812 33.085938 59.632812 " fill-opacity="1" fill-rule="nonzero"/><path fill="#ffffff" d="M 44.78125 51.492188 C 44.339844 51.492188 43.960938 51.164062 43.90625 50.71875 C 43.847656 50.238281 44.191406 49.800781 44.671875 49.742188 C 44.980469 49.703125 45.28125 49.613281 45.558594 49.46875 C 46.195312 49.144531 46.664062 48.589844 46.882812 47.910156 C 47.097656 47.226562 47.03125 46.503906 46.699219 45.871094 C 46.050781 44.644531 44.5 44.117188 43.242188 44.703125 C 42.925781 44.851562 42.648438 45.050781 42.414062 45.304688 C 42.082031 45.660156 41.527344 45.679688 41.171875 45.347656 C 40.816406 45.015625 40.796875 44.460938 41.125 44.105469 C 41.515625 43.6875 41.976562 43.351562 42.5 43.109375 C 43.523438 42.632812 44.683594 42.570312 45.765625 42.9375 C 46.84375 43.300781 47.726562 44.050781 48.253906 45.050781 C 48.808594 46.105469 48.917969 47.308594 48.558594 48.441406 C 48.199219 49.574219 47.417969 50.496094 46.355469 51.035156 C 45.894531 51.273438 45.398438 51.421875 44.886719 51.484375 C 44.851562 51.492188 44.816406 51.492188 44.78125 51.492188 " fill-opacity="1" fill-rule="nonzero"/><path fill="#ffffff" d="M 51.546875 44.324219 C 51.226562 44.324219 50.917969 44.148438 50.761719 43.84375 C 50.539062 43.410156 50.710938 42.882812 51.144531 42.660156 L 53.894531 41.261719 C 54.324219 41.042969 54.855469 41.214844 55.074219 41.644531 C 55.296875 42.078125 55.125 42.609375 54.691406 42.828125 L 51.945312 44.230469 C 51.816406 44.292969 51.679688 44.324219 51.546875 44.324219 " fill-opacity="1" fill-rule="nonzero"/><path fill="#ffffff" d="M 46.09375 39.769531 C 46.003906 39.769531 45.914062 39.753906 45.820312 39.726562 C 45.359375 39.574219 45.105469 39.078125 45.257812 38.617188 L 46.210938 35.683594 C 46.359375 35.222656 46.855469 34.96875 47.316406 35.121094 C 47.78125 35.269531 48.03125 35.765625 47.882812 36.230469 L 46.929688 39.160156 C 46.808594 39.535156 46.464844 39.769531 46.09375 39.769531 " fill-opacity="1" fill-rule="nonzero"/><path fill="#ffffff" d="M 55.109375 52.355469 C 55.019531 52.355469 54.929688 52.339844 54.839844 52.308594 L 51.90625 51.359375 C 51.445312 51.207031 51.191406 50.710938 51.339844 50.25 C 51.492188 49.789062 51.988281 49.535156 52.449219 49.683594 L 55.382812 50.636719 C 55.84375 50.789062 56.097656 51.285156 55.945312 51.746094 C 55.824219 52.117188 55.480469 52.355469 55.109375 52.355469 " fill-opacity="1" fill-rule="nonzero"/><path fill="#ffffff" d="M 56.019531 36.851562 L 74.457031 36.851562 L 74.457031 25.0625 L 56.019531 25.0625 Z M 75.335938 38.609375 L 55.136719 38.609375 C 54.652344 38.609375 54.257812 38.214844 54.257812 37.730469 L 54.257812 24.183594 C 54.257812 23.699219 54.652344 23.304688 55.136719 23.304688 L 75.335938 23.304688 C 75.820312 23.304688 76.214844 23.699219 76.214844 24.183594 L 76.214844 37.730469 C 76.214844 38.214844 75.820312 38.609375 75.335938 38.609375 " fill-opacity="1" fill-rule="nonzero"/><path fill="#ffffff" d="M 65.242188 34.367188 L 65.234375 34.367188 C 65.011719 34.367188 64.800781 34.28125 64.636719 34.132812 L 54.542969 24.832031 C 54.183594 24.5 54.164062 23.945312 54.492188 23.589844 C 54.820312 23.230469 55.378906 23.207031 55.734375 23.539062 L 65.238281 32.292969 L 74.738281 23.539062 C 75.097656 23.207031 75.652344 23.230469 75.980469 23.589844 C 76.3125 23.945312 76.289062 24.5 75.929688 24.832031 L 65.835938 34.132812 C 65.675781 34.28125 65.460938 34.367188 65.242188 34.367188 " fill-opacity="1" fill-rule="nonzero"/><path fill="#ffffff" d="M 75.335938 38.609375 C 75.152344 38.609375 74.972656 38.554688 74.8125 38.4375 L 66.636719 32.425781 C 66.246094 32.136719 66.164062 31.589844 66.453125 31.195312 C 66.738281 30.804688 67.289062 30.722656 67.679688 31.007812 L 75.855469 37.019531 C 76.246094 37.308594 76.332031 37.859375 76.042969 38.25 C 75.871094 38.484375 75.605469 38.609375 75.335938 38.609375 " fill-opacity="1" fill-rule="nonzero"/><path fill="#ffffff" d="M 55.140625 38.609375 C 54.867188 38.609375 54.601562 38.484375 54.429688 38.25 C 54.140625 37.859375 54.226562 37.308594 54.617188 37.019531 L 62.792969 31.007812 C 63.183594 30.722656 63.734375 30.804688 64.023438 31.195312 C 64.308594 31.589844 64.226562 32.136719 63.835938 32.425781 L 55.660156 38.4375 C 55.503906 38.554688 55.320312 38.609375 55.140625 38.609375 " fill-opacity="1" fill-rule="nonzero"/><g clip-path="url(#bf5b51f63a)"><path fill="#ffffff" d="M 28.550781 16.636719 C 27.839844 16.636719 27.257812 17.214844 27.257812 17.929688 L 27.257812 27.269531 C 27.257812 27.980469 27.839844 28.5625 28.550781 28.5625 L 30.371094 28.5625 C 30.683594 28.5625 30.976562 28.730469 31.132812 29.003906 L 33.222656 32.625 L 35.316406 29.003906 C 35.472656 28.730469 35.761719 28.5625 36.078125 28.5625 L 44.40625 28.5625 C 45.117188 28.5625 45.695312 27.980469 45.695312 27.269531 L 45.695312 17.929688 C 45.695312 17.214844 45.117188 16.636719 44.40625 16.636719 Z M 33.222656 35.261719 C 32.910156 35.261719 32.621094 35.09375 32.460938 34.824219 L 29.863281 30.320312 L 28.550781 30.320312 C 26.867188 30.320312 25.5 28.953125 25.5 27.269531 L 25.5 17.929688 C 25.5 16.246094 26.867188 14.878906 28.550781 14.878906 L 44.40625 14.878906 C 46.085938 14.878906 47.457031 16.246094 47.457031 17.929688 L 47.457031 27.269531 C 47.457031 28.953125 46.085938 30.320312 44.40625 30.320312 L 36.585938 30.320312 L 33.984375 34.824219 C 33.828125 35.09375 33.539062 35.261719 33.222656 35.261719 " fill-opacity="1" fill-rule="nonzero"/></g><path fill="#ffffff" d="M 31.199219 22.0625 C 30.902344 22.0625 30.664062 22.304688 30.664062 22.601562 C 30.664062 22.894531 30.902344 23.136719 31.199219 23.136719 C 31.492188 23.136719 31.734375 22.894531 31.734375 22.601562 C 31.734375 22.304688 31.492188 22.0625 31.199219 22.0625 Z M 31.199219 24.894531 C 29.933594 24.894531 28.902344 23.863281 28.902344 22.601562 C 28.902344 21.335938 29.933594 20.304688 31.199219 20.304688 C 32.464844 20.304688 33.492188 21.335938 33.492188 22.601562 C 33.492188 23.863281 32.464844 24.894531 31.199219 24.894531 " fill-opacity="1" fill-rule="nonzero"/><path fill="#ffffff" d="M 36.476562 22.0625 C 36.183594 22.0625 35.941406 22.304688 35.941406 22.601562 C 35.941406 22.894531 36.183594 23.136719 36.476562 23.136719 C 36.773438 23.136719 37.011719 22.894531 37.011719 22.601562 C 37.011719 22.304688 36.773438 22.0625 36.476562 22.0625 Z M 36.476562 24.894531 C 35.210938 24.894531 34.183594 23.863281 34.183594 22.601562 C 34.183594 21.335938 35.210938 20.304688 36.476562 20.304688 C 37.742188 20.304688 38.773438 21.335938 38.773438 22.601562 C 38.773438 23.863281 37.742188 24.894531 36.476562 24.894531 " fill-opacity="1" fill-rule="nonzero"/><path fill="#ffffff" d="M 41.757812 22.0625 C 41.460938 22.0625 41.222656 22.304688 41.222656 22.601562 C 41.222656 22.894531 41.460938 23.136719 41.757812 23.136719 C 42.054688 23.136719 42.292969 22.894531 42.292969 22.601562 C 42.292969 22.304688 42.054688 22.0625 41.757812 22.0625 Z M 41.757812 24.894531 C 40.492188 24.894531 39.464844 23.863281 39.464844 22.601562 C 39.464844 21.335938 40.492188 20.304688 41.757812 20.304688 C 43.023438 20.304688 44.050781 21.335938 44.050781 22.601562 C 44.050781 23.863281 43.023438 24.894531 41.757812 24.894531 " fill-opacity="1" fill-rule="nonzero"/><g clip-path="url(#fcd14cfb76)"><path fill="#ffffff" d="M 74.765625 64.320312 L 71.738281 64.320312 C 71.253906 64.320312 70.859375 63.925781 70.859375 63.441406 C 70.859375 62.953125 71.253906 62.558594 71.738281 62.558594 L 74.765625 62.558594 C 75.054688 62.558594 75.289062 62.324219 75.289062 62.035156 C 75.289062 61.75 75.054688 61.515625 74.765625 61.515625 C 74.28125 61.515625 73.886719 61.121094 73.886719 60.632812 C 73.886719 60.148438 74.28125 59.753906 74.765625 59.753906 C 76.023438 59.753906 77.046875 60.777344 77.046875 62.035156 C 77.046875 63.296875 76.023438 64.320312 74.765625 64.320312 " fill-opacity="1" fill-rule="nonzero"/></g><path fill="#ffffff" d="M 74.429688 67.125 L 71.371094 67.125 C 70.886719 67.125 70.492188 66.730469 70.492188 66.246094 C 70.492188 65.757812 70.886719 65.363281 71.371094 65.363281 L 74.429688 65.363281 C 74.71875 65.363281 74.953125 65.128906 74.953125 64.84375 C 74.953125 64.554688 74.71875 64.320312 74.429688 64.320312 C 73.941406 64.320312 73.550781 63.925781 73.550781 63.441406 C 73.550781 62.953125 73.941406 62.558594 74.429688 62.558594 C 75.6875 62.558594 76.710938 63.582031 76.710938 64.84375 C 76.710938 66.101562 75.6875 67.125 74.429688 67.125 " fill-opacity="1" fill-rule="nonzero"/><path fill="#ffffff" d="M 67.660156 69.933594 C 67.027344 69.933594 66.363281 69.890625 65.632812 69.800781 C 64.847656 69.703125 64.078125 69.59375 63.335938 69.3125 C 63.035156 69.203125 62.730469 69.050781 62.40625 68.84375 C 62.363281 68.820312 62.324219 68.796875 62.289062 68.769531 C 62.105469 68.65625 61.953125 68.558594 61.808594 68.511719 C 61.773438 68.507812 61.679688 68.507812 61.613281 68.511719 C 61.570312 68.511719 61.527344 68.511719 61.484375 68.511719 L 60.847656 68.519531 C 60.847656 68.519531 60.84375 68.519531 60.839844 68.519531 C 60.359375 68.519531 59.964844 68.128906 59.960938 67.644531 C 59.957031 67.160156 60.347656 66.765625 60.835938 66.757812 L 61.472656 66.753906 C 61.503906 66.753906 61.535156 66.753906 61.566406 66.753906 C 61.765625 66.746094 62.035156 66.742188 62.328125 66.832031 C 62.695312 66.949219 62.980469 67.128906 63.230469 67.285156 C 63.265625 67.308594 63.300781 67.332031 63.335938 67.351562 C 63.5625 67.496094 63.761719 67.59375 63.949219 67.667969 C 64.515625 67.878906 65.144531 67.96875 65.847656 68.054688 C 66.625 68.148438 67.316406 68.1875 67.960938 68.171875 C 67.972656 68.167969 67.984375 68.167969 67.996094 68.167969 L 73.75 68.167969 C 74.039062 68.167969 74.273438 67.933594 74.273438 67.648438 C 74.273438 67.359375 74.039062 67.125 73.75 67.125 C 73.265625 67.125 72.871094 66.730469 72.871094 66.246094 C 72.871094 65.757812 73.265625 65.363281 73.75 65.363281 C 75.007812 65.363281 76.03125 66.386719 76.03125 67.648438 C 76.03125 68.90625 75.007812 69.929688 73.75 69.929688 L 67.988281 69.929688 C 67.878906 69.929688 67.769531 69.933594 67.660156 69.933594 " fill-opacity="1" fill-rule="nonzero"/><path fill="#ffffff" d="M 74.226562 61.515625 L 71.921875 61.515625 C 71.4375 61.515625 71.042969 61.121094 71.042969 60.632812 C 71.042969 60.148438 71.4375 59.753906 71.921875 59.753906 L 74.226562 59.753906 C 74.511719 59.753906 74.75 59.519531 74.75 59.230469 C 74.75 58.945312 74.511719 58.707031 74.226562 58.707031 L 68.296875 58.707031 C 67.8125 58.707031 67.417969 58.316406 67.417969 57.828125 C 67.417969 57.246094 67.539062 56.691406 67.777344 56.179688 C 67.878906 55.964844 67.984375 55.757812 68.085938 55.558594 C 68.28125 55.175781 68.464844 54.8125 68.59375 54.441406 C 68.898438 53.558594 69.148438 52.300781 68.621094 51.296875 C 68.617188 51.292969 68.613281 51.285156 68.605469 51.277344 C 68.472656 51.097656 68.296875 50.957031 68.136719 50.910156 C 67.984375 50.863281 67.78125 50.890625 67.6875 51.03125 C 67.644531 51.097656 67.652344 51.320312 67.65625 51.4375 C 67.675781 51.902344 67.65625 52.320312 67.597656 52.71875 C 67.476562 53.535156 67.230469 54.261719 66.859375 54.878906 C 66.839844 54.949219 66.808594 55.015625 66.769531 55.078125 C 66.746094 55.117188 66.59375 55.359375 66.332031 55.714844 C 66.320312 55.730469 66.308594 55.746094 66.300781 55.757812 C 66.289062 55.769531 66.28125 55.785156 66.273438 55.792969 C 65.398438 56.957031 63.449219 59.148438 60.953125 59.472656 C 60.472656 59.535156 60.03125 59.195312 59.96875 58.710938 C 59.90625 58.230469 60.246094 57.789062 60.730469 57.726562 C 62.011719 57.5625 63.167969 56.613281 63.914062 55.851562 C 64.292969 55.460938 64.601562 55.085938 64.832031 54.785156 C 64.835938 54.78125 64.835938 54.773438 64.839844 54.769531 C 64.859375 54.742188 64.886719 54.695312 64.925781 54.636719 C 65 54.515625 65.121094 54.332031 65.285156 54.082031 C 65.570312 53.644531 65.761719 53.097656 65.859375 52.460938 C 65.898438 52.171875 65.914062 51.859375 65.898438 51.507812 C 65.882812 51.074219 65.890625 50.570312 66.214844 50.070312 C 66.722656 49.292969 67.722656 48.945312 68.652344 49.226562 C 69.171875 49.386719 69.65625 49.742188 70.019531 50.226562 C 70.054688 50.277344 70.085938 50.320312 70.113281 50.363281 C 70.125 50.382812 70.136719 50.402344 70.144531 50.421875 C 70.828125 51.664062 70.863281 53.253906 70.253906 55.015625 C 70.085938 55.503906 69.867188 55.9375 69.652344 56.355469 C 69.554688 56.550781 69.460938 56.734375 69.371094 56.921875 C 69.367188 56.933594 69.363281 56.941406 69.359375 56.949219 L 74.226562 56.949219 C 75.484375 56.949219 76.507812 57.972656 76.507812 59.230469 C 76.507812 60.488281 75.484375 61.515625 74.226562 61.515625 " fill-opacity="1" fill-rule="nonzero"/><path fill="#ffffff" d="M 56.851562 68.050781 L 59.960938 68.050781 L 59.960938 58.261719 L 56.851562 58.261719 Z M 60.839844 69.8125 L 55.972656 69.8125 C 55.488281 69.8125 55.09375 69.417969 55.09375 68.929688 L 55.09375 57.382812 C 55.09375 56.894531 55.488281 56.5 55.972656 56.5 L 60.839844 56.5 C 61.328125 56.5 61.722656 56.894531 61.722656 57.382812 L 61.722656 68.929688 C 61.722656 69.417969 61.328125 69.8125 60.839844 69.8125 " fill-opacity="1" fill-rule="nonzero"/></svg>