<svg xmlns="http://www.w3.org/2000/svg" xmlns:xlink="http://www.w3.org/1999/xlink" width="40" zoomAndPan="magnify" viewBox="0 0 30 30.000001" height="40" preserveAspectRatio="xMidYMid meet" version="1.2"><defs><clipPath id="6382336767"><path d="M 0.484375 0 L 29.515625 0 L 29.515625 29.03125 L 0.484375 29.03125 Z M 0.484375 0 "/></clipPath><clipPath id="31127aece4"><path d="M 13 8 L 29.515625 8 L 29.515625 23 L 13 23 Z M 13 8 "/></clipPath></defs><g id="299a8e1af5"><g clip-rule="nonzero" clip-path="url(#6382336767)"><path style=" stroke:none;fill-rule:nonzero;fill:#ffffff;fill-opacity:1;" d="M 0.484375 0 L 29.515625 0 L 29.515625 29.03125 L 0.484375 29.03125 Z M 0.484375 0 "/><path style=" stroke:none;fill-rule:nonzero;fill:#ffffff;fill-opacity:1;" d="M 0.484375 0 L 29.515625 0 L 29.515625 29.03125 L 0.484375 29.03125 Z M 0.484375 0 "/></g><g style="fill:#222222;fill-opacity:1;"><g transform="translate(5.548422, 18.0608)"><path style="stroke:none" d="M 1.984375 -0.765625 C 1.984375 -0.273438 1.945312 0.21875 1.875 0.71875 C 1.800781 1.21875 1.664062 1.6875 1.46875 2.125 C 1.269531 2.5625 1.003906 2.953125 0.671875 3.296875 C 0.335938 3.648438 -0.0820312 3.921875 -0.59375 4.109375 L -0.65625 3.9375 C 0.0703125 3.644531 0.578125 3.191406 0.859375 2.578125 C 1.148438 1.960938 1.296875 1.289062 1.296875 0.5625 C 1.296875 0.238281 1.273438 -0.0703125 1.234375 -0.375 C 1.191406 -0.6875 1.140625 -1.003906 1.078125 -1.328125 L 0.984375 -1.859375 C 0.929688 -2.160156 0.878906 -2.46875 0.828125 -2.78125 C 0.785156 -3.09375 0.765625 -3.410156 0.765625 -3.734375 C 0.765625 -4.023438 0.78125 -4.3125 0.8125 -4.59375 C 0.851562 -4.882812 0.90625 -5.171875 0.96875 -5.453125 C 0.550781 -5.421875 0.148438 -5.320312 -0.234375 -5.15625 C -0.617188 -4.988281 -0.957031 -4.765625 -1.25 -4.484375 L -1.484375 -4.5 C -1.109375 -4.832031 -0.722656 -5.09375 -0.328125 -5.28125 C 0.0664062 -5.476562 0.523438 -5.613281 1.046875 -5.6875 C 1.421875 -6.96875 2.054688 -7.914062 2.953125 -8.53125 C 3.859375 -9.15625 4.96875 -9.46875 6.28125 -9.46875 L 8.0625 -9.46875 C 7.78125 -9.394531 7.585938 -9.242188 7.484375 -9.015625 C 7.390625 -8.785156 7.34375 -8.546875 7.34375 -8.296875 L 7.34375 -1.234375 C 7.34375 -0.960938 7.390625 -0.710938 7.484375 -0.484375 C 7.585938 -0.253906 7.78125 -0.09375 8.0625 0 L 5.453125 0 C 5.742188 -0.0703125 5.9375 -0.226562 6.03125 -0.46875 C 6.132812 -0.707031 6.1875 -0.960938 6.1875 -1.234375 L 6.1875 -2.765625 C 6.1875 -2.890625 6.160156 -3.007812 6.109375 -3.125 C 5.929688 -3.519531 5.6875 -3.859375 5.375 -4.140625 C 5.070312 -4.421875 4.738281 -4.65625 4.375 -4.84375 C 4.007812 -5.039062 3.625 -5.1875 3.21875 -5.28125 C 2.8125 -5.382812 2.410156 -5.441406 2.015625 -5.453125 C 1.941406 -5.171875 1.894531 -4.890625 1.875 -4.609375 C 1.863281 -4.328125 1.859375 -4.046875 1.859375 -3.765625 C 1.859375 -3.585938 1.859375 -3.398438 1.859375 -3.203125 C 1.867188 -3.015625 1.878906 -2.828125 1.890625 -2.640625 L 1.953125 -1.890625 C 1.960938 -1.710938 1.96875 -1.53125 1.96875 -1.34375 C 1.976562 -1.15625 1.984375 -0.960938 1.984375 -0.765625 Z M 2.046875 -5.6875 C 2.460938 -5.664062 2.875 -5.597656 3.28125 -5.484375 C 3.6875 -5.378906 4.070312 -5.226562 4.4375 -5.03125 C 4.800781 -4.84375 5.132812 -4.609375 5.4375 -4.328125 C 5.738281 -4.046875 5.988281 -3.71875 6.1875 -3.34375 L 6.1875 -8.296875 C 6.1875 -8.398438 6.179688 -8.503906 6.171875 -8.609375 C 6.171875 -8.722656 6.148438 -8.828125 6.109375 -8.921875 C 6.066406 -9.015625 6.003906 -9.09375 5.921875 -9.15625 C 5.847656 -9.226562 5.75 -9.265625 5.625 -9.265625 C 5.132812 -9.265625 4.6875 -9.160156 4.28125 -8.953125 C 3.882812 -8.742188 3.535156 -8.46875 3.234375 -8.125 C 2.929688 -7.78125 2.679688 -7.394531 2.484375 -6.96875 C 2.285156 -6.550781 2.140625 -6.125 2.046875 -5.6875 Z M 2.046875 -5.6875 "/></g></g><g clip-rule="nonzero" clip-path="url(#31127aece4)"><g style="fill:#222222;fill-opacity:1;"><g transform="translate(15.408881, 18.0608)"><path style="stroke:none" d="M 14.265625 1.640625 C 14.828125 1.640625 15.347656 1.679688 15.828125 1.765625 C 16.316406 1.859375 16.773438 2 17.203125 2.1875 C 17.640625 2.375 18.0625 2.613281 18.46875 2.90625 C 18.875 3.195312 19.273438 3.539062 19.671875 3.9375 L 19.59375 4.046875 C 19.21875 3.722656 18.789062 3.453125 18.3125 3.234375 C 17.84375 3.015625 17.347656 2.84375 16.828125 2.71875 C 16.316406 2.59375 15.800781 2.503906 15.28125 2.453125 C 14.757812 2.398438 14.257812 2.375 13.78125 2.375 C 13.039062 2.375 12.316406 2.414062 11.609375 2.5 C 10.898438 2.59375 10.1875 2.703125 9.46875 2.828125 L 8.25 3.015625 C 7.539062 3.128906 6.828125 3.226562 6.109375 3.3125 C 5.398438 3.40625 4.675781 3.453125 3.9375 3.453125 C 3.257812 3.453125 2.59375 3.351562 1.9375 3.15625 C 1.28125 2.96875 0.691406 2.679688 0.171875 2.296875 C -0.335938 1.921875 -0.75 1.445312 -1.0625 0.875 C -1.382812 0.300781 -1.546875 -0.363281 -1.546875 -1.125 C -1.546875 -1.582031 -1.476562 -2.035156 -1.34375 -2.484375 C -1.21875 -2.929688 -1.03125 -3.335938 -0.78125 -3.703125 C -0.539062 -4.078125 -0.242188 -4.410156 0.109375 -4.703125 C 0.460938 -5.003906 0.859375 -5.238281 1.296875 -5.40625 L 1.296875 -8.265625 C 1.296875 -8.523438 1.242188 -8.769531 1.140625 -9 C 1.046875 -9.238281 0.863281 -9.394531 0.59375 -9.46875 L 3.15625 -9.46875 C 2.863281 -9.394531 2.671875 -9.238281 2.578125 -9 C 2.492188 -8.769531 2.453125 -8.523438 2.453125 -8.265625 L 2.453125 -5.703125 C 2.597656 -5.742188 2.738281 -5.769531 2.875 -5.78125 C 3.019531 -5.789062 3.164062 -5.796875 3.3125 -5.796875 C 4 -5.796875 4.648438 -5.679688 5.265625 -5.453125 C 5.890625 -5.234375 6.445312 -4.878906 6.9375 -4.390625 L 6.9375 -8.296875 C 6.9375 -8.546875 6.890625 -8.785156 6.796875 -9.015625 C 6.703125 -9.242188 6.519531 -9.394531 6.25 -9.46875 L 8.796875 -9.46875 C 8.515625 -9.394531 8.328125 -9.242188 8.234375 -9.015625 C 8.140625 -8.785156 8.09375 -8.546875 8.09375 -8.296875 L 8.09375 -1.203125 C 8.09375 -0.941406 8.144531 -0.691406 8.25 -0.453125 C 8.351562 -0.222656 8.535156 -0.0703125 8.796875 0 L 6.25 0 C 6.519531 -0.0703125 6.703125 -0.226562 6.796875 -0.46875 C 6.890625 -0.707031 6.9375 -0.957031 6.9375 -1.21875 L 6.9375 -4.171875 C 6.5 -4.597656 6.003906 -4.9375 5.453125 -5.1875 C 4.898438 -5.4375 4.3125 -5.5625 3.6875 -5.5625 C 3.46875 -5.5625 3.257812 -5.554688 3.0625 -5.546875 C 2.863281 -5.546875 2.660156 -5.519531 2.453125 -5.46875 L 2.453125 -1.203125 C 2.453125 -0.941406 2.5 -0.691406 2.59375 -0.453125 C 2.695312 -0.222656 2.882812 -0.0703125 3.15625 0 L 0.59375 0 C 0.863281 -0.0703125 1.046875 -0.226562 1.140625 -0.46875 C 1.242188 -0.707031 1.296875 -0.957031 1.296875 -1.21875 L 1.296875 -5.078125 C 0.484375 -4.671875 -0.0859375 -4.085938 -0.421875 -3.328125 C -0.753906 -2.566406 -0.921875 -1.753906 -0.921875 -0.890625 C -0.921875 -0.179688 -0.773438 0.4375 -0.484375 0.96875 C -0.203125 1.5 0.171875 1.9375 0.640625 2.28125 C 1.117188 2.625 1.660156 2.878906 2.265625 3.046875 C 2.878906 3.222656 3.503906 3.3125 4.140625 3.3125 C 4.910156 3.3125 5.660156 3.242188 6.390625 3.109375 C 7.117188 2.972656 7.847656 2.8125 8.578125 2.625 L 9.8125 2.3125 C 10.550781 2.132812 11.285156 1.976562 12.015625 1.84375 C 12.742188 1.707031 13.492188 1.640625 14.265625 1.640625 Z M 14.265625 1.640625 "/></g></g></g></g></svg>