<svg width="118" height="40" viewBox="0 0 118 40" fill="none" xmlns="http://www.w3.org/2000/svg">
<path d="M14.5327 0.612549H15.582C19.225 0.691743 22.8085 2.15684 25.3823 4.75045C24.432 5.72058 23.4619 6.65111 22.5313 7.62124C21.086 6.31453 19.3438 5.30481 17.4431 4.94843C14.6317 4.35448 11.6025 4.88904 9.2465 6.49272C6.67269 8.1756 4.93042 11.0266 4.55424 14.0756C4.13847 17.0849 4.98981 20.2527 6.94987 22.5889C8.83073 24.8658 11.7015 26.2913 14.6713 26.3903C17.4431 26.5487 20.3337 25.6973 22.3531 23.7571C23.937 22.391 24.6696 20.3121 24.9072 18.2927C21.6206 18.2927 18.334 18.3125 15.0475 18.2927V14.2142H28.8867C29.5994 18.5896 28.5699 23.5195 25.2437 26.6477C23.0263 28.8651 19.9575 30.1718 16.8293 30.4292C13.8002 30.7262 10.672 30.152 7.97939 28.6869C4.75223 26.9644 2.17842 24.054 0.91131 20.6289C-0.276604 17.4809 -0.296402 13.9172 0.812317 10.7494C1.82204 7.85882 3.7623 5.30481 6.25692 3.52294C8.65255 1.76087 11.5629 0.790736 14.5327 0.612549Z" fill="#4B4C4B"/>
<path d="M93.9248 1.64209H98.1617V29.9144C96.756 29.9144 95.3305 29.9342 93.9248 29.8946C93.9446 20.4903 93.9248 11.0662 93.9248 1.64209Z" fill="#4B4C4B"/>
<path d="M38.3112 11.4422C40.9246 10.9473 43.7558 11.5016 45.9138 13.0657C47.8739 14.4516 49.24 16.6295 49.6558 19.0053C50.1903 21.7573 49.5172 24.7667 47.7353 26.9445C45.8149 29.3797 42.6669 30.6864 39.5981 30.4884C36.7867 30.3301 34.0545 28.9244 32.3914 26.6277C30.5106 24.0935 30.0552 20.609 31.0847 17.6392C32.1143 14.4516 35.0246 12.0164 38.3112 11.4422ZM38.9052 15.204C37.836 15.4811 36.8461 16.0949 36.1334 16.966C34.2129 19.2627 34.3317 23.0046 36.4501 25.1428C37.6579 26.3703 39.4793 26.9445 41.1622 26.6079C42.7263 26.3307 44.0924 25.2814 44.8447 23.8955C46.1514 21.5395 45.7753 18.2925 43.7756 16.4513C42.4887 15.2634 40.6078 14.7684 38.9052 15.204Z" fill="#4B4C4B"/>
<path d="M59.2972 11.4422C62.2867 10.8681 65.5535 11.6996 67.7907 13.7982C71.4337 17.065 71.8297 23.1828 68.7213 26.9445C66.8404 29.3203 63.7914 30.627 60.7821 30.4884C57.9113 30.4092 55.0801 28.9837 53.3774 26.6277C51.4569 24.0341 51.0412 20.4704 52.1301 17.4412C53.219 14.3526 56.07 11.9966 59.2972 11.4422ZM59.8911 15.2039C58.822 15.4811 57.8321 16.0949 57.1193 16.9462C55.2187 19.2033 55.2979 22.8858 57.3371 25.0438C58.5448 26.3307 60.4257 26.9643 62.168 26.6079C63.7122 26.3109 65.0981 25.2814 65.8505 23.8955C67.1374 21.5197 66.7612 18.2727 64.7418 16.4315C63.4549 15.2435 61.574 14.7684 59.8911 15.2039Z" fill="#4B4C4B"/>
<path d="M77.0963 12.5907C79.3732 11.1652 82.4024 10.7692 84.8574 11.9967C85.6295 12.3333 86.2631 12.9074 86.8768 13.4816C86.8966 12.947 86.8768 12.3927 86.8966 11.8383C88.2231 11.8581 89.5496 11.8383 90.8959 11.8581V29.3204C90.8761 31.9537 90.203 34.7453 88.3023 36.6657C86.2235 38.7842 83.0359 39.4375 80.1651 39.0019C77.0963 38.5466 74.4235 36.3093 73.2356 33.4781C74.4235 32.904 75.6709 32.4486 76.8984 31.9141C77.5913 33.5375 78.997 34.9234 80.7591 35.2402C82.5212 35.557 84.5604 35.1214 85.7087 33.6563C86.9362 32.1516 86.9362 30.0926 86.8768 28.2513C85.9661 29.1423 84.9168 29.9342 83.6497 30.2312C80.8977 31.0033 77.8685 30.053 75.75 28.1919C73.6118 26.3309 72.3447 23.4601 72.4635 20.6091C72.5229 17.3819 74.3443 14.2735 77.0963 12.5907ZM81.1947 15.1249C79.9869 15.3229 78.8584 15.996 78.0863 16.9266C76.2252 19.144 76.2252 22.6879 78.1061 24.8658C79.1752 26.1527 80.8977 26.8654 82.5608 26.6872C84.1248 26.5289 85.5701 25.5389 86.3423 24.1728C87.649 21.8564 87.4312 18.7084 85.6691 16.689C84.5802 15.4417 82.8379 14.8279 81.1947 15.1249Z" fill="#4B4C4B"/>
<path d="M103.25 13.6003C105.626 11.3829 109.288 10.6305 112.337 11.7986C115.228 12.8876 117.069 15.6396 118 18.4707C113.704 20.2526 109.427 22.0147 105.131 23.7966C105.725 24.9251 106.635 25.9546 107.863 26.3704C109.585 26.9841 111.645 26.7663 113.09 25.618C113.664 25.1825 114.119 24.6083 114.555 24.0539C115.644 24.7865 116.733 25.4992 117.822 26.2318C116.277 28.5482 113.684 30.1717 110.892 30.4291C107.804 30.8053 104.517 29.6173 102.517 27.2019C99.2308 23.4006 99.5476 17.0255 103.25 13.6003ZM105.368 17.263C104.695 18.2332 104.418 19.4211 104.438 20.5892C107.309 19.4013 110.179 18.2134 113.05 17.0057C112.575 15.8969 111.427 15.2238 110.259 15.0456C108.378 14.709 106.418 15.7187 105.368 17.263Z" fill="#4B4C4B"/>
</svg>
