<svg width="134" height="34" viewBox="0 0 134 34" fill="none" xmlns="http://www.w3.org/2000/svg">
<path fill-rule="evenodd" clip-rule="evenodd" d="M0 0V26.0321L22.0104 33.5565L44.0724 26.0321V0H0Z" fill="#4B4C4B"/>
<path fill-rule="evenodd" clip-rule="evenodd" d="M21.9584 25.2064H15.2058V22.8869C13.8654 24.7419 11.9587 25.7212 9.22632 25.7212C5.97923 25.7212 2.88574 23.7118 2.88574 19.4847V6.90694H9.89612V16.5973C9.89612 18.6598 10.1539 20.1538 12.2164 20.1538C13.3507 20.1538 14.9481 19.5866 14.9481 16.5973V6.90694H21.9584V25.2064ZM35 12.2683C34.8966 11.6495 34.6905 11.2374 34.1751 10.928C33.7623 10.5152 33.1951 10.3091 32.5763 10.3091C31.7004 10.3091 30.5145 10.5676 30.5145 11.7528C30.5145 12.32 30.9265 12.5777 31.3393 12.7328C32.5246 13.2475 35.1536 13.3509 37.5248 14.1758C39.741 14.898 41.8028 16.2376 41.8028 19.2277C41.8028 24.3306 37.0086 25.7226 32.5239 25.7226C28.1942 25.7226 23.5033 23.9702 23.349 19.2277H29.9997C30.1031 19.8983 30.3608 20.413 30.9273 20.8775C31.2367 21.1345 31.9072 21.3922 32.7831 21.3922C33.6596 21.3922 35.1543 21.0835 35.1543 20.0002C35.1543 18.9183 34.4845 18.6606 31.2367 18.0934C25.9278 17.1659 23.7618 15.4127 23.7618 12.32C23.7618 7.68087 28.762 6.49487 32.4219 6.49487C36.4422 6.49487 41.1847 7.57748 41.3398 12.2683H35Z" fill="black"/>
<path fill-rule="evenodd" clip-rule="evenodd" d="M46.4959 0.102539H53.4545V8.91703H53.5579C54.6405 7.42235 56.4963 6.49482 58.5582 6.49482C64.6927 6.49482 66.3934 11.6487 66.3934 15.9798C66.3934 20.5665 63.8678 25.7211 58.7125 25.7211C55.3111 25.7211 54.2285 24.3815 53.3002 23.2472H53.2485V25.2057H46.4951L46.4959 0.102539ZM56.2896 11.5977C53.8149 11.5977 53.2485 13.9173 53.2485 16.0825C53.2485 18.2477 53.8157 20.6707 56.2896 20.6707C58.8152 20.6707 59.3823 18.2477 59.3823 16.0825C59.3823 13.9173 58.8159 11.5977 56.2896 11.5977ZM85.8272 21.1337C85.8272 22.5774 85.9299 24.0728 86.6506 25.2071H79.5893C79.435 24.7426 79.2806 23.9694 79.3308 23.4547H79.2806C77.7852 25.2071 75.62 25.7218 73.3529 25.7218C69.8466 25.7218 66.9606 23.9694 66.9606 20.1545C66.9606 14.4335 73.714 14.5878 77.2705 13.918C78.198 13.7637 79.1772 13.5059 79.1772 12.3199C79.1772 11.083 78.0437 10.5675 76.8577 10.5675C74.6925 10.5675 74.2804 11.6494 74.2804 12.475H67.7855C67.9398 7.3197 72.8367 6.49555 77.1678 6.49555C85.9299 6.49555 85.828 10.1038 85.828 13.6603L85.8272 21.1337ZM79.1765 17.0115C78.3162 17.4418 77.3949 17.7372 76.4449 17.8873C74.8468 18.2477 74.0219 18.6605 74.0219 19.8982C74.0219 20.7231 74.9509 21.5465 76.1871 21.5465C77.7852 21.5465 79.0229 20.6707 79.1772 18.7122L79.1765 17.0115ZM88.3528 6.90689H95.0538V9.22645H95.1564C96.496 7.42234 98.3009 6.49482 101.137 6.49482C104.384 6.49482 107.373 8.50496 107.373 12.6803V25.2064H100.415V15.6697C100.415 13.5052 100.157 12.0615 98.1465 12.0615C96.9089 12.0615 95.3123 12.6796 95.3123 15.567V25.2064H88.3528V6.90689ZM109.9 0.102539H116.857V12.2682L121.291 6.90689H129.178L122.683 13.8146L130.157 25.2064H121.754L118.095 18.6598L116.857 20.0001V25.2064H109.9V0.102539ZM133.354 22.7318C133.611 22.9902 133.662 23.3004 133.662 23.7124C133.662 24.0728 133.611 24.3815 133.354 24.64C132.992 25.0004 132.735 25.0528 132.323 25.0528C132.012 25.0528 131.652 25.0011 131.445 24.64C131.085 24.3815 131.032 24.0728 131.032 23.7124C131.032 23.2996 131.084 22.9895 131.445 22.7318C131.704 22.4748 132.012 22.3204 132.323 22.3204C132.735 22.3204 132.992 22.4748 133.354 22.7318ZM133.508 22.5774C133.198 22.3204 132.735 22.1646 132.323 22.1646C131.911 22.1646 131.498 22.3204 131.239 22.5774C130.931 22.8876 130.776 23.3004 130.776 23.7124C130.776 24.1238 130.931 24.5359 131.239 24.7943C131.498 25.1547 131.91 25.309 132.323 25.309C132.735 25.309 133.198 25.1547 133.508 24.7943C133.766 24.5359 133.921 24.1238 133.921 23.7124C133.918 23.2979 133.772 22.897 133.508 22.5774ZM132.58 23.6608H132.012V23.0419H132.27C132.425 23.0419 132.58 23.0419 132.683 23.1446C132.735 23.1446 132.735 23.2487 132.735 23.403C132.735 23.454 132.683 23.5566 132.58 23.6608ZM131.704 24.5359H132.012V23.917H132.271C132.425 23.917 132.529 23.917 132.581 23.9687C132.684 23.9687 132.735 24.123 132.735 24.3291V24.5351H133.096C132.992 24.5351 132.992 24.4849 132.992 24.4849V24.2264C132.992 24.1223 132.992 24.0721 132.941 23.968C132.837 23.8136 132.735 23.8136 132.683 23.8136C132.735 23.711 132.837 23.711 132.941 23.6593C132.992 23.6593 133.096 23.4532 133.096 23.2989C133.096 23.1431 132.992 22.9887 132.735 22.8861C132.684 22.8861 132.529 22.8344 132.323 22.8344H131.704V24.5359Z" fill="#4B4C4B"/>
</svg>
