<svg width="145" height="145" viewBox="0 0 145 145" fill="none" xmlns="http://www.w3.org/2000/svg">
<circle cx="72.3313" cy="72.1478" r="72.1478" fill="url(#paint0_linear_0_8523)"/>
<circle cx="72.3313" cy="72.1478" r="71.6478" stroke="url(#paint1_linear_0_8523)" stroke-opacity="0.2"/>
<path d="M58.3401 60.1886C61.6959 70.4505 62.9669 88.7557 72.7798 88.7557C73.5258 88.7557 74.2818 88.6828 75.0392 88.5384C66.1199 86.459 65.0623 68.3528 59.6187 58.9753C59.1918 59.3636 58.7693 59.7678 58.3401 60.1886Z" fill="url(#paint2_linear_0_8523)"/>
<path d="M59.6184 58.9753C65.062 68.352 66.1195 86.4582 75.0389 88.5384C75.7401 88.41 76.4422 88.2147 77.1457 87.9693C69.1387 84.046 66.9264 66.464 60.7443 57.9998C60.3706 58.3113 59.9945 58.6372 59.6184 58.9753Z" fill="url(#paint3_linear_0_8523)"/>
<path d="M67.4612 53.3997C66.7167 53.3997 65.9592 53.4726 65.1995 53.6169C63.215 53.9915 61.1971 54.8462 59.1641 56.14C59.7187 56.6886 60.2482 57.3154 60.7451 57.9999C62.8139 56.2836 64.8682 55.0156 66.9142 54.2528C67.6831 53.9679 68.4481 53.7545 69.2155 53.6131C68.6616 53.4734 68.0781 53.3997 67.4612 53.3997Z" fill="#14559A"/>
<path d="M83.3954 84.3538C84.2144 83.7027 85.035 82.9825 85.857 82.1961C82.4473 71.9829 81.2264 53.4148 71.3452 53.4148C70.6386 53.4148 69.926 53.4809 69.2148 53.6123C78.2155 55.8513 79.3688 75.4337 83.3954 84.3538Z" fill="url(#paint4_linear_0_8523)"/>
<path d="M69.2157 53.6132C68.6619 53.4726 68.0776 53.3989 67.46 53.3989L71.3453 53.4134C70.6395 53.4134 69.9268 53.4787 69.2157 53.6132Z" fill="#3092C4"/>
<path d="M83.2227 86.5228C82.8367 86.1543 82.4698 85.7501 82.1089 85.3193C80.4466 86.4962 78.7904 87.3889 77.1455 87.9701C77.7313 88.2557 78.3444 88.4685 78.9962 88.5999C79.5007 88.7032 80.0242 88.7564 80.5727 88.7564C82.4196 88.7564 83.8799 88.5376 85.1213 87.942C84.4375 87.5712 83.81 87.0926 83.2227 86.5228Z" fill="#1969BC"/>
<path d="M66.9131 54.2543C74.9747 58.4709 75.676 77.5662 82.1087 85.3194C82.5402 85.0155 82.9672 84.6934 83.3934 84.3538C79.3668 75.4336 78.2158 55.849 69.2166 53.6123C68.4485 53.7559 67.6819 53.9686 66.9131 54.2543Z" fill="url(#paint5_linear_0_8523)"/>
<path d="M60.7449 57.9999C66.9269 66.4642 69.1393 84.0469 77.1462 87.9703C78.7918 87.389 80.448 86.4971 82.1096 85.3195C75.6769 77.5663 74.9756 58.4717 66.914 54.2544C64.868 55.0157 62.8137 56.2837 60.7449 57.9999Z" fill="url(#paint6_linear_0_8523)"/>
<path d="M54.3849 59.9417C53.4162 62.132 52.4263 65.0122 51.2305 68.7706C53.6092 65.4179 55.9811 62.5301 58.3394 60.1893C58.0142 59.191 57.6655 58.2695 57.2894 57.4497C56.3253 58.1867 55.3528 59.0178 54.3849 59.9417Z" fill="url(#paint7_linear_0_8523)"/>
<path d="M58.1498 56.8169C57.8656 57.0205 57.5792 57.2287 57.2913 57.449C57.6673 58.2695 58.0153 59.1903 58.3397 60.1894C58.7682 59.77 59.1937 59.3643 59.6191 58.9761C59.1625 58.1913 58.677 57.4672 58.1498 56.8169Z" fill="#2B74B1"/>
<path d="M59.1642 56.1392C58.8261 56.3534 58.4896 56.5798 58.1484 56.8161C58.6765 57.4657 59.1612 58.1912 59.6193 58.9768C59.9954 58.6364 60.3707 58.309 60.7452 57.999C60.2484 57.3152 59.7196 56.6877 59.1642 56.1392Z" fill="#125A9E"/>
<path d="M114.152 52.6178C109.593 70.2013 100.07 84.3249 92.0863 87.8851H92.0704L91.6396 88.0697L91.5872 88.0902L91.4649 88.1373L91.4102 88.1601L91.2103 88.2308L91.1283 88.2596L91.0288 88.2923L90.933 88.3257L90.8479 88.3546L90.6778 88.4062L90.6048 88.4252L90.4901 88.4564L90.4119 88.4777L90.2865 88.5103L90.1338 88.5438C90.4947 88.6767 90.8707 88.7443 91.2757 88.7443C98.8465 88.7443 106.48 75.1769 119.111 52.614H114.152L114.152 52.6178Z" fill="url(#paint8_linear_0_8523)"/>
<path d="M49.5862 54.1138L49.6006 54.1016L49.6181 54.0902H49.628L49.7503 54.0431L49.7746 54.031L49.8065 54.0181L49.938 53.971H49.9448L50.2358 53.8692L50.2791 53.8578L50.4037 53.8205L50.4607 53.8023L50.586 53.7651L50.6339 53.7522L51.0502 53.6443L51.1072 53.6314L51.2288 53.6078L51.288 53.5896L51.4104 53.5668H51.4392L51.6922 53.5197H51.7424L51.8594 53.4992L51.9255 53.4878L52.0371 53.471L52.0987 53.4589L52.3707 53.4346C52.1086 53.4103 51.8396 53.3936 51.5646 53.3936C43.038 53.3936 31.2908 69.2129 26 89.7001H27.0203C28.7138 86.6802 30.2348 83.8228 31.6259 81.1409C35.3327 66.6298 42.8807 56.7334 49.5862 54.1115" fill="url(#paint9_linear_0_8523)"/>
<path d="M54.3857 59.9417C55.3544 59.0179 56.3261 58.1867 57.2902 57.449C57.0707 56.9673 56.8427 56.5206 56.5981 56.1111C55.8186 57.0577 55.106 58.3067 54.3857 59.9417Z" fill="#0D82CA"/>
<path d="M55.0864 54.233C55.6433 54.6994 56.1424 55.3422 56.5983 56.1118C56.7419 55.9355 56.8878 55.7722 57.0389 55.6187C56.4053 55.0276 55.7215 54.5429 54.9785 54.1775L55.0697 54.2208L55.0864 54.233Z" fill="#0D82CA"/>
<path d="M31.627 81.1417C39.4014 66.1603 43.0846 56.6787 49.5873 54.1123C42.8825 56.7365 35.333 66.6321 31.627 81.1417Z" fill="url(#paint10_linear_0_8523)"/>
<path d="M57.0373 55.6189C56.8861 55.7739 56.7418 55.9357 56.5967 56.112C56.8413 56.5207 57.0685 56.9659 57.2903 57.4491C57.5775 57.2288 57.8647 57.0214 58.1481 56.817C57.7971 56.3832 57.4256 55.9805 57.0373 55.6189Z" fill="#127BCA"/>
<path d="M35.1562 89.6333L35.0149 89.65H34.9883L34.8682 89.6622H34.8485L34.5628 89.6811H34.5332C42.4011 89.4608 45.9985 85.5216 47.7831 79.8068C49.1393 75.4755 50.2538 71.8257 51.2301 68.7639C47.9343 73.4029 44.6233 78.9323 41.2949 85.128C39.6903 88.1138 37.2493 89.3613 35.1562 89.6272" fill="url(#paint11_linear_0_8523)"/>
<path d="M35.1568 89.6302C37.2499 89.3636 39.6909 88.1176 41.2955 85.1303C44.6239 78.9376 47.9364 73.4067 51.2291 68.767C52.4272 65.007 53.4157 62.1291 54.3851 59.938C47.8217 66.1854 41.2332 76.5733 35.156 89.6265" fill="url(#paint12_linear_0_8523)"/>
<path d="M31.6268 81.1423C30.2357 83.8242 28.7147 86.6816 27.0205 89.7016H29.9865C30.3793 86.7021 30.9355 83.8432 31.6261 81.1439" fill="#05A1E6"/>
<path d="M52.0991 53.465L52.036 53.4771L51.9251 53.4931L51.8598 53.5045L51.7428 53.525L51.6926 53.5372L51.4396 53.5812H51.4107L51.2877 53.6055L51.2261 53.6222L51.1068 53.6458L51.0506 53.6595L50.6335 53.7674L50.5857 53.781L50.4595 53.8183L50.4026 53.8342L50.2787 53.8714L50.2331 53.8836L49.9437 53.9854L49.8122 54.031L49.7575 54.0538L49.6352 54.0994L49.5942 54.1191C43.0923 56.6848 39.4091 66.1664 31.6346 81.1477C30.944 83.8463 30.3849 86.706 29.9951 89.7055H30.4107L33.2635 89.6933H34.5726L34.8575 89.6743H34.8757L34.9957 89.6622H35.0239L35.1652 89.6455C41.2431 76.5916 47.8316 66.2043 54.3943 59.957C55.116 58.322 55.8279 57.073 56.6059 56.1279C56.15 55.3583 55.6516 54.714 55.0955 54.2468L55.0795 54.2346L54.9869 54.1898L54.8949 54.1434L54.806 54.1001L54.7004 54.0561L54.6184 54.0204L54.4459 53.9482L54.3722 53.9208L54.2438 53.8692L54.1747 53.8464L53.9961 53.7848H53.9817L53.7751 53.7263L53.7287 53.7119L53.5547 53.6633L53.5145 53.6519C53.3739 53.6139 53.2288 53.585 53.0822 53.5569L53.0374 53.5448L52.8497 53.5144L52.8125 53.503L52.5906 53.4733H52.5519L52.3802 53.4543L52.1082 53.4794" fill="url(#paint13_linear_0_8523)"/>
<path d="M96.3443 62.3523C94.8476 67.144 93.6373 71.097 92.582 74.3494C96.6869 68.7007 100.73 61.5956 104.58 53.3965C100.088 54.8073 97.6928 58.0362 96.3443 62.3523Z" fill="url(#paint14_linear_0_8523)"/>
<path d="M92.7132 87.5866C92.5042 87.693 92.2938 87.794 92.0879 87.8859C100.071 84.325 109.595 70.2014 114.154 52.6179H113.23C102.755 71.3311 99.386 83.8585 92.7132 87.5866Z" fill="url(#paint15_linear_0_8523)"/>
<path d="M87.4986 86.0147C89.2361 83.8943 90.65 80.29 92.582 74.3496C90.3537 77.4106 88.1109 80.0416 85.8659 82.1871L85.8545 82.2061C86.3445 83.6732 86.8817 84.9685 87.494 86.0139" fill="#079AE1"/>
<path d="M87.4986 86.0146C86.9075 86.7364 86.2807 87.2857 85.5848 87.6929C85.4328 87.7818 85.2778 87.8654 85.1213 87.9414C85.8568 88.3379 86.6583 88.6038 87.5571 88.7095L87.9552 88.7444H87.9787L88.1702 88.7566H88.8198L88.8935 88.7444L89.0371 88.7322H89.1069L89.2627 88.7155H89.2756L89.3235 88.7041L89.4899 88.6783H89.5385L89.7254 88.6472H89.7558L90.1288 88.5681C89.0978 88.1913 88.2355 87.3017 87.4933 86.0352" fill="#1969BC"/>
<path d="M72.7803 88.7566C73.5263 88.7566 74.2815 88.6837 75.039 88.5378C75.741 88.4109 76.443 88.2157 77.1458 87.9703C77.7315 88.2559 78.3454 88.4687 78.9957 88.6016C79.5002 88.7042 80.0244 88.7574 80.5737 88.7574L72.7803 88.7566ZM80.5737 88.7574C82.4191 88.7574 83.8809 88.5378 85.1215 87.9414C85.857 88.3388 86.6585 88.6039 87.5573 88.7103L87.9554 88.7445H87.9789L88.1704 88.7566H88.3998L80.5737 88.7574Z" fill="#1E5CB3"/>
<path d="M88.3994 88.7564H88.8256L88.8993 88.7443L89.0444 88.7321H89.1143L89.2693 88.7154H89.2822L89.3293 88.7032L89.4957 88.6782L89.5466 88.6668L89.7343 88.6364H89.7639L90.1369 88.5574C90.4978 88.6903 90.8739 88.7579 91.2788 88.7579L88.4009 88.7701L88.3994 88.7564Z" fill="#1D60B5"/>
<path d="M85.8601 82.2067V82.1946C85.0381 82.9809 84.2176 83.7011 83.3985 84.3522C82.9708 84.6919 82.5438 85.014 82.1123 85.3179C82.4739 85.7494 82.8409 86.1536 83.2276 86.5221C83.8141 87.0911 84.4409 87.5705 85.1254 87.9405C85.2812 87.8638 85.4369 87.7802 85.5881 87.6921C86.2856 87.2849 86.9108 86.7348 87.5027 86.0138C86.8903 84.9684 86.3532 83.6723 85.8639 82.206" fill="#175FAB"/>
<path d="M110.304 52.6179H105.653L104.916 52.6536L104.574 53.3875C100.723 61.5874 96.6815 68.6926 92.5766 74.3412C90.6468 80.2809 89.2307 83.8859 87.4939 86.0056C88.2362 87.2728 89.1 88.1632 90.1272 88.5408L90.2077 88.5234H90.2244L90.2814 88.5112L90.4105 88.4793L90.4873 88.4573L90.602 88.4276L90.6734 88.4071L90.8451 88.3555L90.9302 88.3266L91.0259 88.2916L91.1247 88.2605L91.2052 88.2301L91.4058 88.1594L91.4613 88.1389L91.5843 88.0911L91.636 88.0721L92.0675 87.8875H92.0827C92.2886 87.797 92.4983 87.6945 92.7065 87.5881C99.3808 83.8593 102.75 71.3327 113.226 52.6202H110.3L110.304 52.6179Z" fill="url(#paint16_linear_0_8523)"/>
<path d="M52.373 53.4405L52.4209 53.4527L52.5425 53.4656H52.5835L52.8053 53.4945L52.8426 53.5066L53.0295 53.5378L53.0766 53.5492L53.5073 53.6449L53.5469 53.6571L53.7201 53.7057L53.7679 53.7201L53.9738 53.7786L53.9898 53.7908L54.1698 53.8523L54.2382 53.8744L54.3674 53.9268L54.4403 53.9526L54.612 54.024L54.6956 54.0597L54.7989 54.1046L54.8901 54.1479L54.9805 54.195C55.7243 54.5596 56.408 55.0466 57.0417 55.637C57.2757 55.3916 57.5188 55.1712 57.7725 54.9729C56.3875 53.9906 54.8171 53.4307 53.0082 53.4307C52.7985 53.4307 52.5888 53.4428 52.3761 53.4588" fill="#7DCBEC"/>
<path d="M57.0378 55.6188C57.4261 55.9797 57.7976 56.3824 58.1486 56.817C58.4889 56.5807 58.8263 56.3528 59.1644 56.14C58.7214 55.6971 58.2542 55.2982 57.7672 54.9548C57.5142 55.1524 57.2718 55.3742 57.0378 55.6188Z" fill="#5EC5ED"/>
<path d="M52.17 53.4898L52.8025 53.463C54.6127 53.463 56.1815 54.0228 57.566 55.0046C59.0272 53.8502 60.795 53.4476 63.2495 53.4476H51.3643L52.17 53.4898Z" fill="url(#paint17_linear_0_8523)"/>
<path d="M63.2499 53.4478C60.7954 53.4478 59.0314 53.8504 57.5664 55.0048C58.0496 55.3461 58.5176 55.7451 58.9625 56.1899C60.9989 54.8975 63.0123 54.0383 64.9989 53.6663C65.7583 53.5244 66.5138 53.4515 67.2578 53.4515L63.2499 53.4478Z" fill="url(#paint18_linear_0_8523)"/>
<path d="M92.5818 74.3525C93.6386 71.0977 94.8458 67.1463 96.3455 62.3531C97.6956 58.0347 100.087 54.8058 104.577 53.3972L104.924 52.6633C97.6029 53.1017 94.181 56.826 92.4602 62.3409C89.4486 71.9692 87.6244 78.2104 85.8679 82.1877C88.1107 80.0429 90.3534 77.4104 92.5818 74.3525Z" fill="url(#paint19_linear_0_8523)"/>
<defs>
<linearGradient id="paint0_linear_0_8523" x1="72.3313" y1="0" x2="72.3313" y2="144.296" gradientUnits="userSpaceOnUse">
<stop stop-color="#0F0F0F"/>
<stop offset="1" stop-color="#0F0F0F" stop-opacity="0"/>
</linearGradient>
<linearGradient id="paint1_linear_0_8523" x1="72.3313" y1="0" x2="72.3313" y2="144.296" gradientUnits="userSpaceOnUse">
<stop stop-color="white"/>
<stop offset="1" stop-color="white" stop-opacity="0"/>
</linearGradient>
<linearGradient id="paint2_linear_0_8523" x1="66.8561" y1="53.1571" x2="66.8561" y2="97.6373" gradientUnits="userSpaceOnUse">
<stop stop-color="#0994DC"/>
<stop offset="0.35" stop-color="#66CEF5"/>
<stop offset="0.846" stop-color="#127BCA"/>
<stop offset="1" stop-color="#127BCA"/>
</linearGradient>
<linearGradient id="paint3_linear_0_8523" x1="68.5304" y1="52.087" x2="68.5304" y2="97.5841" gradientUnits="userSpaceOnUse">
<stop stop-color="#0E76BC"/>
<stop offset="0.36" stop-color="#36AEE8"/>
<stop offset="0.846" stop-color="#00ADEF"/>
<stop offset="1" stop-color="#00ADEF"/>
</linearGradient>
<linearGradient id="paint4_linear_0_8523" x1="77.533" y1="87.6758" x2="77.533" y2="51.4745" gradientUnits="userSpaceOnUse">
<stop stop-color="#1C63B7"/>
<stop offset="0.5" stop-color="#33BDF2"/>
<stop offset="1" stop-color="#33BDF2" stop-opacity="0.42"/>
</linearGradient>
<linearGradient id="paint5_linear_0_8523" x1="75.0867" y1="47.3339" x2="75.0867" y2="94.6926" gradientUnits="userSpaceOnUse">
<stop stop-color="#166AB8"/>
<stop offset="0.4" stop-color="#36AEE8"/>
<stop offset="0.846" stop-color="#0798DD"/>
<stop offset="1" stop-color="#0798DD"/>
</linearGradient>
<linearGradient id="paint6_linear_0_8523" x1="71.5984" y1="47.7037" x2="71.5984" y2="98.0636" gradientUnits="userSpaceOnUse">
<stop stop-color="#124379"/>
<stop offset="0.39" stop-color="#1487CB"/>
<stop offset="0.78" stop-color="#165197"/>
<stop offset="1" stop-color="#165197"/>
</linearGradient>
<linearGradient id="paint7_linear_0_8523" x1="50.8485" y1="62.5719" x2="57.9567" y2="62.5719" gradientUnits="userSpaceOnUse">
<stop stop-color="#33BDF2" stop-opacity="0.698"/>
<stop offset="1" stop-color="#1DACD8"/>
</linearGradient>
<linearGradient id="paint8_linear_0_8523" x1="104.677" y1="86.7347" x2="104.677" y2="51.4697" gradientUnits="userSpaceOnUse">
<stop stop-color="#136AB4"/>
<stop offset="0.6" stop-color="#59CAF5" stop-opacity="0.549"/>
<stop offset="1" stop-color="#59CAF5" stop-opacity="0.235"/>
</linearGradient>
<linearGradient id="paint9_linear_0_8523" x1="25.6222" y1="71.0055" x2="51.9903" y2="71.0055" gradientUnits="userSpaceOnUse">
<stop stop-color="#05A1E6" stop-opacity="0.247"/>
<stop offset="1" stop-color="#05A1E6"/>
</linearGradient>
<linearGradient id="paint10_linear_0_8523" x1="40.748" y1="87.6445" x2="40.748" y2="51.536" gradientUnits="userSpaceOnUse">
<stop stop-color="#318ED5"/>
<stop offset="1" stop-color="#38A7E4"/>
</linearGradient>
<linearGradient id="paint11_linear_0_8523" x1="42.6939" y1="87.8367" x2="42.6939" y2="52.647" gradientUnits="userSpaceOnUse">
<stop stop-color="#05A1E6"/>
<stop offset="1" stop-color="#05A1E6" stop-opacity="0.549"/>
</linearGradient>
<linearGradient id="paint12_linear_0_8523" x1="44.9008" y1="89.6765" x2="44.9008" y2="59.9409" gradientUnits="userSpaceOnUse">
<stop stop-color="#1959A6"/>
<stop offset="0.5" stop-color="#05A1E6"/>
<stop offset="0.918" stop-color="#7EC5EA"/>
<stop offset="1" stop-color="#7EC5EA"/>
</linearGradient>
<linearGradient id="paint13_linear_0_8523" x1="45.7931" y1="87.708" x2="40.1225" y2="55.5486" gradientUnits="userSpaceOnUse">
<stop stop-color="#165096"/>
<stop offset="1" stop-color="#0D82CA"/>
</linearGradient>
<linearGradient id="paint14_linear_0_8523" x1="98.3972" y1="69.4653" x2="98.3972" y2="52.6589" gradientUnits="userSpaceOnUse">
<stop stop-color="#05A1E6"/>
<stop offset="0.874" stop-color="#0495D6"/>
<stop offset="1" stop-color="#0495D6"/>
</linearGradient>
<linearGradient id="paint15_linear_0_8523" x1="106.59" y1="51.1714" x2="99.7568" y2="89.926" gradientUnits="userSpaceOnUse">
<stop stop-color="#38A7E4" stop-opacity="0.329"/>
<stop offset="0.962" stop-color="#0E88D3"/>
<stop offset="1" stop-color="#0E88D3"/>
</linearGradient>
<linearGradient id="paint16_linear_0_8523" x1="100.139" y1="52.5545" x2="100.139" y2="89.2192" gradientUnits="userSpaceOnUse">
<stop stop-color="#168CD4"/>
<stop offset="0.5" stop-color="#1C87CC"/>
<stop offset="1" stop-color="#154B8D"/>
</linearGradient>
<linearGradient id="paint17_linear_0_8523" x1="50.5511" y1="48.9767" x2="93.1822" y2="66.6597" gradientUnits="userSpaceOnUse">
<stop stop-color="#97D6EE"/>
<stop offset="0.703" stop-color="#55C1EA"/>
<stop offset="1" stop-color="#55C1EA"/>
</linearGradient>
<linearGradient id="paint18_linear_0_8523" x1="62.1415" y1="58.9846" x2="95.8129" y2="43.7212" gradientUnits="userSpaceOnUse">
<stop stop-color="#7ACCEC"/>
<stop offset="1" stop-color="#3FB7ED"/>
</linearGradient>
<linearGradient id="paint19_linear_0_8523" x1="95.1365" y1="54.5479" x2="95.1365" y2="90.4097" gradientUnits="userSpaceOnUse">
<stop stop-color="#1DA7E7"/>
<stop offset="1" stop-color="#37ABE7" stop-opacity="0"/>
</linearGradient>
</defs>
</svg>
