<svg width="144" height="34" viewBox="0 0 144 34" fill="none" xmlns="http://www.w3.org/2000/svg">
<path fill-rule="evenodd" clip-rule="evenodd" d="M51.1012 24.668C50.6978 25.7286 50.2722 26.3812 48.8765 26.3812C47.4785 26.3812 47.0544 25.7278 46.6541 24.668L42.5176 14.0246C42.3198 13.5093 42.2615 13.1979 42.2615 12.8237C42.2615 11.5031 43.2875 10.8221 44.401 10.8221C45.5414 10.8221 46.0299 11.6473 46.2247 12.2761L48.8474 20.4019H48.9049L51.526 12.2761C51.7277 11.6473 52.2109 10.8221 53.3504 10.8221H57.3865C58.4302 10.8221 59.1165 11.3919 59.2584 12.3927C60.2653 11.3037 61.5843 10.678 63.1112 10.678C64.8313 10.678 66.2761 11.3919 67.3581 12.7616C68.4938 11.4456 70.3067 10.678 71.7139 10.678C75.0606 10.678 77.3343 12.6212 77.3343 16.2125V24.099C77.3343 25.4663 76.4793 26.382 75.2883 26.382C74.0912 26.382 73.2423 25.4671 73.2423 24.099V16.9318C73.2423 15.2754 72.3198 14.1028 70.8236 14.1028C69.3044 14.1028 68.3834 15.2761 68.3834 16.9318V24.099C68.3834 25.4663 67.5245 26.382 66.3374 26.382C65.1403 26.382 64.2937 25.4671 64.2937 24.099V16.9318C64.2937 15.2754 63.3681 14.1028 61.8727 14.1028C60.181 14.1028 59.4294 15.2761 59.4294 16.9318V24.099C59.4294 25.4663 58.5774 26.382 57.3865 26.382C56.1902 26.382 55.3397 25.4671 55.3397 24.099V13.8498L51.1012 24.668ZM78.7393 12.908C78.6273 12.5338 78.5368 12.1971 78.5368 11.9379C78.5368 11.4487 78.8827 10.8214 79.7393 10.8214C80.2799 10.8214 80.7922 11.0177 81.138 12.1105L84.3612 22.5062H84.4179L87.5843 12.4817C87.9302 11.3927 88.1534 10.8214 89.0728 10.8214C89.9823 10.8214 90.2124 11.3927 90.5529 12.4817L93.7224 22.5062H93.7807L97.0008 12.1105C97.3466 11.0177 97.8604 10.8214 98.3965 10.8214C99.2561 10.8214 99.5943 11.4479 99.5943 11.9372C99.5943 12.1933 99.5092 12.533 99.3949 12.9065L95.2324 25.0653C94.8926 26.0361 94.4923 26.3804 93.7791 26.3804C93.0905 26.3804 92.6664 26.0361 92.3573 25.0653L89.1027 14.7922H89.046L85.7929 25.0653C85.48 26.0361 85.056 26.3804 84.3712 26.3804C83.6549 26.3804 83.2584 26.0361 82.9126 25.0653L78.7393 12.908ZM103.16 18.6013C103.16 16.0116 104.245 12.9755 107.331 12.9755C110.416 12.9755 111.503 16.0108 111.503 18.6013C111.503 21.1818 110.416 24.224 107.331 24.224C104.245 24.224 103.16 21.1826 103.16 18.6013ZM113.87 12.0338C113.87 11.1596 113.181 10.8214 112.697 10.8214C112.182 10.8214 111.533 11.1596 111.533 12.0338V12.8321H111.472C110.304 11.553 109.075 10.8214 107.331 10.8214C103.044 10.8214 100.646 14.5537 100.646 18.6013C100.646 22.6481 103.044 26.3812 107.331 26.3812C108.962 26.3812 110.386 25.6442 111.472 24.109H111.533V25.1619C111.533 26.0422 112.182 26.3812 112.697 26.3812C113.181 26.3812 113.87 26.043 113.87 25.1619V12.0338ZM117.174 12.1649C117.174 11.3375 117.656 10.8252 118.425 10.8252C119.195 10.8252 119.686 11.3367 119.686 12.1649V13.4564H119.745C120.312 12.28 121.714 10.826 123.169 10.826C124.048 10.826 124.566 11.3958 124.566 12.1105C124.566 12.8252 124.048 13.2807 122.993 13.4824C121.508 13.7386 119.686 14.8544 119.686 17.7984V25.0369C119.686 25.8651 119.195 26.3804 118.425 26.3804C117.656 26.3804 117.174 25.8651 117.174 25.0369V12.1649ZM127.764 17.6941C127.847 15.3636 128.956 12.862 132.071 12.9763C134.844 12.9763 136.099 15.5062 136.099 17.6941H127.764ZM137.213 19.5798C138.294 19.5798 138.612 19.1197 138.612 18.2393C138.612 14.5537 136.214 10.8221 132.071 10.8221C127.816 10.8221 125.246 14.4686 125.246 18.6082C125.246 22.6504 127.363 26.382 132.215 26.382C135.184 26.382 138.295 24.5123 138.295 23.283C138.295 22.5629 137.844 22.1642 137.383 22.1642C136.442 22.1642 135.584 24.2255 132.24 24.2255C129.419 24.2255 127.765 22.1918 127.765 19.5806L137.213 19.5798Z" fill="#4B4C4B"/>
<path fill-rule="evenodd" clip-rule="evenodd" d="M7.81372 0C7.16828 0.00101405 6.54956 0.257864 6.09317 0.714261C5.63677 1.17066 5.37992 1.78938 5.37891 2.43482V20.4532C5.37891 21.0992 5.63536 21.7187 6.09191 22.1757C6.54846 22.6327 7.16776 22.8897 7.81372 22.8903H25.8352C26.4813 22.8899 27.1008 22.633 27.5575 22.176C28.0142 21.719 28.2708 21.0993 28.2708 20.4532V2.43482C28.2694 1.78937 28.0123 1.17077 27.5558 0.714437C27.0993 0.258105 26.4807 0.00121551 25.8352 0H7.81372ZM6.7447 20.4525V2.43482C6.74491 2.29471 6.77273 2.15601 6.82658 2.02666C6.88043 1.89731 6.95925 1.77984 7.05854 1.68098C7.15783 1.58212 7.27563 1.50381 7.40521 1.45052C7.5348 1.39722 7.67361 1.37 7.81372 1.3704H25.8352C26.4234 1.3704 26.9035 1.84663 26.9035 2.43482V20.4532C26.9035 21.046 26.4234 21.5253 25.8352 21.5253H7.81372C7.22323 21.5253 6.7447 21.046 6.7447 20.4525Z" fill="#4B4C4B"/>
<path fill-rule="evenodd" clip-rule="evenodd" d="M13.1931 5.38647C12.5491 5.38749 11.9318 5.64377 11.4764 6.09916C11.021 6.55455 10.7647 7.1719 10.7637 7.81592V25.8397C10.7641 26.4842 11.0201 27.1022 11.4755 27.5582C11.9309 28.0142 12.5486 28.271 13.1931 28.2722H31.2146C31.8598 28.272 32.4786 28.0157 32.935 27.5596C33.3913 27.1035 33.648 26.4849 33.6486 25.8397V7.81592C33.6472 7.17123 33.3902 6.55342 32.9339 6.09799C32.4776 5.64255 31.8593 5.38668 31.2146 5.38647H13.1931ZM12.1256 25.8405V7.81592C12.126 7.53335 12.2386 7.2625 12.4387 7.0629C12.6387 6.86331 12.9098 6.7513 13.1924 6.7515H31.2138C31.8051 6.7515 32.2806 7.22697 32.2806 7.81592V25.8397C32.2806 26.4325 31.8051 26.9064 31.2138 26.9064H13.1924C13.0523 26.9065 12.9136 26.879 12.7842 26.8255C12.6548 26.772 12.5372 26.6935 12.4381 26.5945C12.3391 26.4955 12.2605 26.3779 12.2068 26.2486C12.1532 26.1192 12.1256 25.9805 12.1256 25.8405Z" fill="#4B4C4B"/>
<path fill-rule="evenodd" clip-rule="evenodd" d="M2.43328 10.7683C1.78832 10.7691 1.16999 11.0256 0.713859 11.4816C0.257728 11.9376 0.00101503 12.5559 4.84564e-07 13.2008V31.2223C-0.000201276 31.5419 0.0626052 31.8583 0.184827 32.1536C0.307049 32.4489 0.486288 32.7171 0.712289 32.9431C0.93829 33.169 1.20662 33.3482 1.50193 33.4703C1.79723 33.5924 2.11372 33.6551 2.43328 33.6548H20.4532C20.7728 33.6549 21.0892 33.5921 21.3845 33.4699C21.6797 33.3477 21.948 33.1686 22.174 32.9427C22.4001 32.7168 22.5794 32.4486 22.7018 32.1534C22.8241 31.8582 22.8872 31.5419 22.8873 31.2223V13.2008C22.8857 12.5559 22.6286 11.9379 22.1725 11.482C21.7163 11.0261 21.0981 10.7695 20.4532 10.7683H2.43328ZM1.36426 31.2215V13.2001C1.36426 12.6142 1.84203 12.1341 2.43405 12.1341H20.454C21.0437 12.1341 21.523 12.6142 21.523 13.2001V31.2215C21.523 31.8105 21.0437 32.2913 20.454 32.2913H2.43328C2.14969 32.2911 1.87778 32.1783 1.67733 31.9777C1.47687 31.7771 1.36426 31.5051 1.36426 31.2215Z" fill="#4B4C4B"/>
<path fill-rule="evenodd" clip-rule="evenodd" d="M140.553 11.0813V11.4134H139.763V13.6818H139.365V11.4134H138.579V11.0813H140.553ZM143.08 13.6818L142.974 12.1219C142.957 11.9118 142.969 11.6664 142.961 11.408H142.945C142.881 11.6534 142.803 11.931 142.72 12.158L142.186 13.6442H141.879L141.356 12.1219C141.289 11.9087 141.224 11.6495 141.16 11.408H141.144C141.138 11.6557 141.144 11.8796 141.128 12.1158L141.035 13.6818H140.653L140.851 11.0813H141.378L141.88 12.4862C141.944 12.6848 142 12.8972 142.064 13.1434H142.08C142.135 12.8972 142.194 12.6741 142.267 12.4824L142.767 11.0813H143.276L143.473 13.6818H143.08Z" fill="#4B4C4B"/>
</svg>
