<svg width="145" height="145" viewBox="0 0 145 145" fill="none" xmlns="http://www.w3.org/2000/svg">
<circle cx="72.1478" cy="72.1478" r="72.1478" fill="url(#paint0_linear_0_8589)"/>
<circle cx="72.1478" cy="72.1478" r="71.6478" stroke="url(#paint1_linear_0_8589)" stroke-opacity="0.2"/>
<path d="M110.572 70.9985C110.837 70.8434 111 70.5604 111 70.2529V68.2584C111 67.9517 110.838 67.6687 110.572 67.5136L103.485 63.3993C103.218 63.2442 102.889 63.2434 102.622 63.3976L95.491 67.5145C95.2249 67.6687 95.0605 67.9525 95.0605 68.2601V76.4922C95.0605 76.8014 95.2266 77.0878 95.496 77.2411L102.582 81.2784C102.843 81.4284 103.163 81.4292 103.426 81.2835L107.712 78.9009C107.848 78.8247 107.933 78.6823 107.934 78.5281C107.935 78.3722 107.852 78.2282 107.717 78.1511L100.542 74.0334C100.408 73.9563 100.325 73.8139 100.325 73.6606V71.0798C100.325 70.9256 100.408 70.7841 100.541 70.7078L102.775 69.42C102.907 69.3429 103.071 69.3429 103.205 69.42L105.439 70.7078C105.573 70.7849 105.655 70.9264 105.655 71.0798V73.1098C105.655 73.2649 105.737 73.4072 105.87 73.4835C106.004 73.5606 106.168 73.5606 106.302 73.4827L110.572 70.9985Z" fill="white"/>
<path d="M102.948 70.6119C102.999 70.5831 103.062 70.5831 103.113 70.6119L104.481 71.4024C104.532 71.4321 104.563 71.4872 104.563 71.5456V73.1258C104.563 73.1851 104.532 73.2393 104.481 73.269L103.113 74.0586C103.062 74.0883 102.998 74.0883 102.948 74.0586L101.58 73.269C101.528 73.2393 101.497 73.1851 101.497 73.1258V71.5456C101.497 71.4872 101.528 71.4321 101.58 71.4024L102.948 70.6119Z" fill="#83CD29"/>
<path d="M84.392 73.8995C84.392 73.9757 84.3513 74.0469 84.2844 74.0859L81.8358 75.4974C81.7688 75.5364 81.6866 75.5364 81.6205 75.4974L79.1719 74.0859C79.105 74.0469 79.0643 73.9757 79.0643 73.8995V71.0713C79.0643 70.995 79.1059 70.923 79.1719 70.884L81.6205 69.4708C81.6875 69.431 81.7697 69.431 81.8366 69.4708L84.2861 70.884C84.3521 70.923 84.3928 70.995 84.3928 71.0713L84.392 73.8995ZM85.0537 52.9583C84.9207 52.8846 84.758 52.8863 84.6258 52.9634C84.4945 53.0414 84.4132 53.182 84.4132 53.3345V64.277C84.4132 64.3838 84.3555 64.4838 84.2632 64.538C84.17 64.5914 84.0548 64.5914 83.9616 64.538L82.1755 63.5085C81.9095 63.3552 81.5816 63.3552 81.3155 63.5085L74.1832 67.6246C73.9163 67.7788 73.752 68.0635 73.752 68.371V76.6056C73.752 76.9132 73.9163 77.197 74.1824 77.3521L81.3147 81.4707C81.5807 81.6249 81.9095 81.6249 82.1764 81.4707L89.3104 77.3521C89.5764 77.197 89.7408 76.9132 89.7408 76.6056V56.0788C89.7408 55.767 89.5713 55.479 89.2994 55.3265L85.0537 52.9583Z" fill="white"/>
<path d="M59.9515 63.3534C60.2176 63.1992 60.5463 63.1992 60.8124 63.3534L67.9447 67.4686C68.2107 67.6228 68.3751 67.9075 68.3751 68.2151V76.4522C68.3751 76.7598 68.2107 77.0445 67.9447 77.1987L60.8132 81.3173C60.5472 81.4706 60.2184 81.4706 59.9515 81.3173L52.8218 77.1987C52.5557 77.0445 52.3914 76.7598 52.3914 76.4522V68.2142C52.3914 67.9075 52.5557 67.6228 52.8218 67.4686L59.9515 63.3534Z" fill="#83CD29"/>
<path d="M46.9821 68.1465C46.9821 67.8364 46.8194 67.5517 46.5516 67.3984L39.4219 63.2951C39.2999 63.2239 39.1651 63.1875 39.0287 63.1824H38.955C38.8195 63.1875 38.6839 63.2239 38.5619 63.2951L31.4313 67.3984C31.1661 67.5517 31 67.8364 31 68.1465L31.0153 79.1949C31.0153 79.3491 31.0957 79.4923 31.2305 79.5669C31.3626 79.6465 31.5262 79.6465 31.6583 79.5669L35.8947 77.1403C36.1624 76.981 36.3259 76.7006 36.3259 76.393V71.2314C36.3259 70.923 36.4886 70.6392 36.7555 70.485L38.5602 69.4462C38.6941 69.3674 38.8415 69.3302 38.9906 69.3302C39.138 69.3302 39.2888 69.3674 39.4202 69.4462L41.2232 70.485C41.4901 70.6392 41.6544 70.923 41.6544 71.2314V76.393C41.6544 76.7006 41.8196 76.9827 42.0857 77.1403L46.322 79.5669C46.4551 79.6465 46.6211 79.6465 46.7524 79.5669C46.8838 79.4915 46.966 79.3483 46.966 79.1949L46.9821 68.1465Z" fill="white"/>
<defs>
<linearGradient id="paint0_linear_0_8589" x1="72.1478" y1="0" x2="72.1478" y2="144.296" gradientUnits="userSpaceOnUse">
<stop stop-color="#0F0F0F"/>
<stop offset="1" stop-color="#0F0F0F" stop-opacity="0"/>
</linearGradient>
<linearGradient id="paint1_linear_0_8589" x1="72.1478" y1="0" x2="72.1478" y2="144.296" gradientUnits="userSpaceOnUse">
<stop stop-color="white"/>
<stop offset="1" stop-color="white" stop-opacity="0"/>
</linearGradient>
</defs>
</svg>
