<svg width="145" height="145" viewBox="0 0 145 145" fill="none" xmlns="http://www.w3.org/2000/svg">
<circle cx="72.3313" cy="72.1478" r="72.1478" fill="url(#paint0_linear_0_8515)"/>
<circle cx="72.3313" cy="72.1478" r="71.6478" stroke="url(#paint1_linear_0_8515)" stroke-opacity="0.2"/>
<path d="M60.7551 86.5473C60.7551 86.5473 57.8145 88.2585 62.8506 88.8359C68.9525 89.5329 72.0708 89.433 78.7933 88.1623C78.7933 88.1623 80.5643 89.2695 83.033 90.2294C67.9575 96.6879 48.9157 89.8549 60.7551 86.5473ZM58.9119 78.1179C58.9119 78.1179 55.6129 80.5601 60.6533 81.0819C67.1717 81.7549 72.3181 81.8098 81.2281 80.095C81.2281 80.095 82.4575 81.3441 84.3938 82.0263C66.1705 87.356 45.8733 82.4458 58.9119 78.1179Z" fill="#0074BD"/>
<path d="M74.44 63.8166C78.1566 68.0946 73.4654 71.9407 73.4654 71.9407C73.4654 71.9407 82.8966 67.0731 78.5662 60.9748C74.5202 55.2904 71.4187 52.467 88.2108 42.728C88.2108 42.7286 61.8518 49.3099 74.44 63.8166Z" fill="#EA2D2E"/>
<path d="M94.3779 92.7833C94.3779 92.7833 96.5548 94.5784 91.9796 95.9657C83.2806 98.6009 55.7661 99.3954 48.1244 96.0712C45.3788 94.8757 50.5296 93.2182 52.1501 92.8684C53.8397 92.5026 54.8044 92.5693 54.8044 92.5693C51.7491 90.4183 35.0569 96.7948 46.3269 98.6237C77.0595 103.606 102.348 96.3802 94.3779 92.7833ZM62.171 69.3827C62.171 69.3827 48.1769 72.707 57.2157 73.9154C61.0329 74.4261 68.6388 74.3089 75.7284 73.7143C81.5207 73.2276 87.3334 72.1882 87.3334 72.1882C87.3334 72.1882 85.2928 73.0635 83.8148 74.0715C69.6011 77.8102 42.1495 76.0688 50.0534 72.2468C56.7352 69.015 62.171 69.3827 62.171 69.3827ZM87.2754 83.4144C101.723 75.9091 95.0423 68.6961 90.3794 69.6677C89.2395 69.9052 88.7281 70.1118 88.7281 70.1118C88.7281 70.1118 89.1525 69.4462 89.9618 69.16C99.1857 65.9184 106.278 78.7232 86.9867 83.795C86.9867 83.7938 87.2081 83.5933 87.2754 83.4144Z" fill="#0074BD"/>
<path d="M78.5666 27C78.5666 27 86.5661 35.0044 70.9774 47.3089C58.4761 57.1824 68.1269 62.8106 70.9731 69.2439C63.675 62.6601 58.3219 56.8635 61.9126 51.469C67.1855 43.5522 81.7934 39.7123 78.5666 27Z" fill="#EA2D2E"/>
<path d="M63.5908 103.759C77.4554 104.645 98.7519 103.265 99.2559 96.7041C99.2559 96.7041 98.2868 99.1913 87.7964 101.165C75.9613 103.393 61.3615 103.133 52.7051 101.704C52.7051 101.704 54.4786 103.173 63.5908 103.759Z" fill="#0074BD"/>
<defs>
<linearGradient id="paint0_linear_0_8515" x1="72.3313" y1="0" x2="72.3313" y2="144.296" gradientUnits="userSpaceOnUse">
<stop stop-color="#0F0F0F"/>
<stop offset="1" stop-color="#0F0F0F" stop-opacity="0"/>
</linearGradient>
<linearGradient id="paint1_linear_0_8515" x1="72.3313" y1="0" x2="72.3313" y2="144.296" gradientUnits="userSpaceOnUse">
<stop stop-color="white"/>
<stop offset="1" stop-color="white" stop-opacity="0"/>
</linearGradient>
</defs>
</svg>
