<svg width="146" height="145" viewBox="0 0 146 145" fill="none" xmlns="http://www.w3.org/2000/svg">
<circle cx="73.0872" cy="72.1478" r="72.1478" fill="url(#paint0_linear_0_8568)"/>
<circle cx="73.0872" cy="72.1478" r="71.6478" stroke="url(#paint1_linear_0_8568)" stroke-opacity="0.2"/>
<path d="M74.7695 41C58.5222 41 59.5367 48.0458 59.5367 48.0458L59.5547 55.3454H75.0592V57.5369H53.3966C53.3966 57.5369 43 56.3578 43 72.7512C43 89.145 52.0744 88.5636 52.0744 88.5636H57.49V80.9562C57.49 80.9562 57.198 71.8818 66.4196 71.8818H81.7972C81.7972 71.8818 90.4368 72.0214 90.4368 63.5319V49.495C90.4368 49.495 91.749 41 74.7695 41ZM66.2203 45.9089C66.5867 45.9085 66.9496 45.9804 67.2881 46.1205C67.6267 46.2606 67.9343 46.466 68.1933 46.7251C68.4524 46.9841 68.6579 47.2918 68.7979 47.6303C68.938 47.9689 69.0099 48.3317 69.0096 48.6981C69.0099 49.0645 68.938 49.4273 68.7979 49.7659C68.6579 50.1044 68.4524 50.412 68.1933 50.6711C67.9343 50.9302 67.6267 51.1356 67.2881 51.2757C66.9496 51.4157 66.5867 51.4877 66.2203 51.4873C65.8539 51.4877 65.4911 51.4157 65.1525 51.2757C64.814 51.1356 64.5064 50.9302 64.2473 50.6711C63.9882 50.412 63.7828 50.1044 63.6427 49.7659C63.5027 49.4273 63.4308 49.0645 63.4311 48.6981C63.4308 48.3317 63.5027 47.9689 63.6427 47.6303C63.7828 47.2918 63.9882 46.9841 64.2473 46.7251C64.5064 46.466 64.814 46.2606 65.1525 46.1205C65.4911 45.9804 65.8539 45.9085 66.2203 45.9089Z" fill="url(#paint2_linear_0_8568)"/>
<path d="M75.2311 104.667C91.4784 104.667 90.4639 97.6215 90.4639 97.6215L90.4459 90.3221H74.9412V88.1306H96.6037C96.6037 88.1306 107 89.3097 107 72.9158C107 56.5222 97.9259 57.1036 97.9259 57.1036H92.5104V64.7107C92.5104 64.7107 92.8023 73.7852 83.5808 73.7852H68.2032C68.2032 73.7852 59.5635 73.6456 59.5635 82.1353V96.1725C59.5635 96.1725 58.2516 104.667 75.2309 104.667H75.2311ZM83.7803 99.7589C83.4139 99.7592 83.051 99.6873 82.7125 99.5472C82.3739 99.4072 82.0663 99.2018 81.8073 98.9427C81.5482 98.6836 81.3427 98.376 81.2027 98.0374C81.0626 97.6989 80.9907 97.336 80.991 96.9697C80.9907 96.6033 81.0626 96.2404 81.2026 95.9018C81.3427 95.5632 81.5481 95.2556 81.8072 94.9965C82.0662 94.7374 82.3739 94.5319 82.7124 94.3918C83.051 94.2518 83.4139 94.1798 83.7803 94.1802C84.1467 94.1798 84.5095 94.2518 84.8481 94.3918C85.1866 94.5319 85.4942 94.7373 85.7533 94.9964C86.0124 95.2555 86.2178 95.5631 86.3579 95.9016C86.4979 96.2402 86.5698 96.603 86.5695 96.9694C86.5698 97.3358 86.4979 97.6986 86.3579 98.0372C86.2178 98.3757 86.0124 98.6834 85.7533 98.9424C85.4942 99.2015 85.1866 99.4069 84.8481 99.547C84.5095 99.687 84.1467 99.7592 83.7803 99.7589Z" fill="url(#paint3_linear_0_8568)"/>
<defs>
<linearGradient id="paint0_linear_0_8568" x1="73.0872" y1="0" x2="73.0872" y2="144.296" gradientUnits="userSpaceOnUse">
<stop stop-color="#0F0F0F"/>
<stop offset="1" stop-color="#0F0F0F" stop-opacity="0"/>
</linearGradient>
<linearGradient id="paint1_linear_0_8568" x1="73.0872" y1="0" x2="73.0872" y2="144.296" gradientUnits="userSpaceOnUse">
<stop stop-color="white"/>
<stop offset="1" stop-color="white" stop-opacity="0"/>
</linearGradient>
<linearGradient id="paint2_linear_0_8568" x1="658.038" y1="613.649" x2="3829.69" y2="3753.66" gradientUnits="userSpaceOnUse">
<stop stop-color="#387EB8"/>
<stop offset="1" stop-color="#366994"/>
</linearGradient>
<linearGradient id="paint3_linear_0_8568" x1="967.361" y1="1035.97" x2="4373.35" y2="4255.75" gradientUnits="userSpaceOnUse">
<stop stop-color="#FFE052"/>
<stop offset="1" stop-color="#FFC331"/>
</linearGradient>
</defs>
</svg>
