<svg width="145" height="145" viewBox="0 0 145 145" fill="none" xmlns="http://www.w3.org/2000/svg">
<circle cx="72.1478" cy="72.1478" r="72.1478" fill="url(#paint0_linear_0_8579)"/>
<circle cx="72.1478" cy="72.1478" r="71.6478" stroke="url(#paint1_linear_0_8579)" stroke-opacity="0.2"/>
<path d="M54.1485 80.849L45 71.7005L74.7055 42H93L54.1485 80.849ZM92.9975 69.4084H74.703L67.8515 76.2599L77 85.4084L92.9975 69.4084Z" fill="#42A5F5" fill-opacity="0.8"/>
<path d="M67.8516 94.5545L74.7055 101.406H93.0001L77.0026 85.4084L67.8516 94.5545Z" fill="#0D47A1"/>
<path d="M58.7256 85.4135L67.8592 76.2773L76.9929 85.411L67.8592 94.5471L58.7256 85.4135Z" fill="#42A5F5"/>
<path d="M67.8591 94.547L76.9928 85.4133L78.2676 86.6881L69.1339 95.8217L67.8591 94.547Z" fill="url(#paint2_linear_0_8579)"/>
<path d="M67.8516 94.5545L81.4233 89.8664L76.9976 85.4084L67.8516 94.5545Z" fill="url(#paint3_linear_0_8579)"/>
<defs>
<linearGradient id="paint0_linear_0_8579" x1="72.1478" y1="0" x2="72.1478" y2="144.296" gradientUnits="userSpaceOnUse">
<stop stop-color="#0F0F0F"/>
<stop offset="1" stop-color="#0F0F0F" stop-opacity="0"/>
</linearGradient>
<linearGradient id="paint1_linear_0_8579" x1="72.1478" y1="0" x2="72.1478" y2="144.296" gradientUnits="userSpaceOnUse">
<stop stop-color="white"/>
<stop offset="1" stop-color="white" stop-opacity="0"/>
</linearGradient>
<linearGradient id="paint2_linear_0_8579" x1="72.3176" y1="89.9328" x2="73.6321" y2="91.2472" gradientUnits="userSpaceOnUse">
<stop offset="0.2" stop-opacity="0.15"/>
<stop offset="0.85" stop-color="#616161" stop-opacity="0.01"/>
</linearGradient>
<linearGradient id="paint3_linear_0_8579" x1="68.5701" y1="90.3828" x2="81.1632" y2="90.3828" gradientUnits="userSpaceOnUse">
<stop offset="0.2" stop-opacity="0.55"/>
<stop offset="0.85" stop-color="#616161" stop-opacity="0.01"/>
</linearGradient>
</defs>
</svg>
