<svg width="58" height="80" viewBox="0 0 58 80" fill="none" xmlns="http://www.w3.org/2000/svg">
<path d="M2.77386 77H0.27386V79.5H2.77386V77ZM2.77386 75.336L0.867587 73.7186L0.27386 74.4183V75.336H2.77386ZM31.8939 41.016L29.9957 39.389L29.9876 39.3986L31.8939 41.016ZM17.8539 28.12V30.62H20.3539V28.12H17.8539ZM2.77386 28.12H0.27386V30.62H2.77386V28.12ZM47.9099 42.784L45.9383 41.2468L45.9325 41.2543L45.9267 41.2617L47.9099 42.784ZM36.5739 57.552L38.5521 59.0806L38.557 59.0742L36.5739 57.552ZM30.1259 64.208L28.6651 62.1792L22.375 66.708H30.1259V64.208ZM54.6699 64.208H57.1699V61.708H54.6699V64.208ZM54.6699 77V79.5H57.1699V77H54.6699ZM2.77386 77H5.27386V75.336H2.77386H0.27386V77H2.77386ZM2.77386 75.336L4.68013 76.9534L33.8001 42.6334L31.8939 41.016L29.9876 39.3986L0.867587 73.7186L2.77386 75.336ZM31.8939 41.016L33.792 42.643C38.1509 37.5576 41.6739 32.3519 41.6739 26.872H39.1739H36.6739C36.6739 30.3361 34.3728 34.2824 29.9957 39.389L31.8939 41.016ZM39.1739 26.872H41.6739C41.6739 23.2201 40.5079 19.9165 38.1269 17.5185C35.7404 15.1152 32.3783 13.868 28.4619 13.868V16.368V18.868C31.3054 18.868 33.2993 19.7528 34.5789 21.0415C35.8638 22.3355 36.6739 24.2839 36.6739 26.872H39.1739ZM28.4619 16.368V13.868C24.5384 13.868 21.1478 15.1232 18.767 17.7609C16.4202 20.361 15.3539 23.9736 15.3539 28.12H17.8539H20.3539C20.3539 24.7784 21.2115 22.515 22.4787 21.1111C23.7119 19.7448 25.6253 18.868 28.4619 18.868V16.368ZM17.8539 28.12V25.62H2.77386V28.12V30.62H17.8539V28.12ZM2.77386 28.12H5.27386C5.27386 21.2636 7.76089 15.6096 11.8429 11.666C15.9329 7.71463 21.7632 5.34799 28.6699 5.34799V2.84799V0.347994C20.6005 0.347994 13.4828 3.12936 8.36883 8.07002C3.24683 13.0184 0.27386 20.0004 0.27386 28.12H2.77386ZM28.6699 2.84799V5.34799C42.5485 5.34799 51.7539 14.6975 51.7539 26.04H54.2539H56.7539C56.7539 11.5905 44.9512 0.347994 28.6699 0.347994V2.84799ZM54.2539 26.04H51.7539C51.7539 31.2361 50.4262 35.4906 45.9383 41.2468L47.9099 42.784L49.8814 44.3212C54.9615 37.8054 56.7539 32.4919 56.7539 26.04H54.2539ZM47.9099 42.784L45.9267 41.2617L34.5907 56.0297L36.5739 57.552L38.557 59.0742L49.893 44.3063L47.9099 42.784ZM36.5739 57.552L34.5956 56.0234C32.8483 58.2846 30.9523 60.5323 28.6651 62.1792L30.1259 64.208L31.5866 66.2368C34.4994 64.1396 36.7634 61.3954 38.5521 59.0806L36.5739 57.552ZM30.1259 64.208V66.708H54.6699V64.208V61.708H30.1259V64.208ZM54.6699 64.208H52.1699V77H54.6699H57.1699V64.208H54.6699ZM54.6699 77V74.5H2.77386V77V79.5H54.6699V77Z" fill="white"/>
</svg>
