<svg width="57" height="81" viewBox="0 0 57 81" fill="none" xmlns="http://www.w3.org/2000/svg">
<path d="M3.39742 55.264V52.764H0.897422V55.264H3.39742ZM17.9574 55.264H20.4574V52.764H17.9574V55.264ZM27.1094 45.592L27.1446 48.0918L27.1457 48.0917L27.1094 45.592ZM19.7254 45.696H17.2254V48.2315L19.7606 48.1957L19.7254 45.696ZM19.7254 33.736V31.236H17.2254V33.736H19.7254ZM18.3734 25V27.5H20.8734V25H18.3734ZM4.33342 25H1.83342V27.5H4.33342V25ZM44.1654 39.144L43.0323 36.9155L38.7584 39.0887L42.987 41.3488L44.1654 39.144ZM29.0854 78.352V75.852C21.6924 75.852 15.9219 73.93 12.0346 70.5398C8.19593 67.1922 5.89742 62.1567 5.89742 55.264H3.39742H0.897422C0.897422 63.3473 3.64292 69.8558 8.74827 74.3082C13.8049 78.718 20.8784 80.852 29.0854 80.852V78.352ZM3.39742 55.264V57.764H17.9574V55.264V52.764H3.39742V55.264ZM17.9574 55.264H15.4574C15.4574 59.4236 16.6427 62.8322 19.2451 65.1514C21.793 67.422 25.2798 68.268 29.0854 68.268V65.768V63.268C25.923 63.268 23.8458 62.554 22.5717 61.4186C21.3522 60.3318 20.4574 58.4884 20.4574 55.264H17.9574ZM29.0854 65.768V68.268C33.0321 68.268 36.255 67.0608 38.5024 64.8653C40.7426 62.6768 41.7774 59.7347 41.7774 56.72H39.2774H36.7774C36.7774 58.5933 36.1483 60.1752 35.0084 61.2887C33.8758 62.3952 32.0028 63.268 29.0854 63.268V65.768ZM39.2774 56.72H41.7774C41.7774 52.4751 40.3001 48.9392 37.5347 46.5091C34.8094 44.1142 31.1093 43.0338 27.0732 43.0923L27.1094 45.592L27.1457 48.0917C30.2855 48.0462 32.6694 48.8898 34.2341 50.2649C35.7588 51.6048 36.7774 53.6849 36.7774 56.72H39.2774ZM27.1094 45.592L27.0742 43.0922L19.6902 43.1962L19.7254 45.696L19.7606 48.1957L27.1446 48.0918L27.1094 45.592ZM19.7254 45.696H22.2254V33.736H19.7254H17.2254V45.696H19.7254ZM19.7254 33.736V36.236H27.1094V33.736V31.236H19.7254V33.736ZM27.1094 33.736V36.236C30.9658 36.236 34.4864 35.3917 37.1017 33.3967C39.8152 31.3267 41.2574 28.2413 41.2574 24.48H38.7574H36.2574C36.2574 26.8547 35.4116 28.3973 34.0692 29.4213C32.6284 30.5203 30.3251 31.236 27.1094 31.236V33.736ZM38.7574 24.48H41.2574C41.2574 21.4914 40.3493 18.5508 38.2135 16.345C36.058 14.1189 32.9344 12.932 29.0854 12.932V15.432V17.932C31.8924 17.932 33.6048 18.7731 34.6214 19.823C35.6576 20.8932 36.2574 22.4765 36.2574 24.48H38.7574ZM29.0854 15.432V12.932C25.4525 12.932 22.1143 13.7936 19.6498 15.8961C17.1205 18.054 15.8734 21.2079 15.8734 25H18.3734H20.8734C20.8734 22.3441 21.7063 20.714 22.895 19.6999C24.1486 18.6304 26.1663 17.932 29.0854 17.932V15.432ZM18.3734 25V22.5H4.33342V25V27.5H18.3734V25ZM4.33342 25H6.83342C6.83342 18.6534 9.03715 13.8359 12.7445 10.5752C16.4915 7.27963 22.0363 5.34799 29.0854 5.34799V2.84799V0.347994C21.1585 0.347994 14.3273 2.52436 9.44236 6.82077C4.5177 11.1521 1.83342 17.4106 1.83342 25H4.33342ZM29.0854 2.84799V5.34799C36.1087 5.34799 41.3878 7.49505 44.8883 10.7705C48.3837 14.0411 50.2974 18.6115 50.2974 23.856H52.7974H55.2974C55.2974 17.3485 52.8951 11.4149 48.3045 7.11951C43.7191 2.82894 37.1421 0.347994 29.0854 0.347994V2.84799ZM52.7974 23.856H50.2974C50.2974 26.9362 49.7284 29.5463 48.5805 31.6811C47.4468 33.7897 45.6766 35.571 43.0323 36.9155L44.1654 39.144L45.2985 41.3725C48.7903 39.597 51.3361 37.1143 52.9843 34.0489C54.6185 31.0097 55.2974 27.5358 55.2974 23.856H52.7974ZM44.1654 39.144L42.987 41.3488C48.0538 44.0569 51.2334 49.1368 51.2334 57.448H53.7334H56.2334C56.2334 47.6632 52.3411 40.6791 45.3439 36.9392L44.1654 39.144ZM53.7334 57.448H51.2334C51.2334 62.6605 49.2658 67.1921 45.6314 70.4439C41.9809 73.7101 36.455 75.852 29.0854 75.852V78.352V80.852C37.4198 80.852 44.2179 78.4179 48.9654 74.1701C53.7291 69.9079 56.2334 63.9875 56.2334 57.448H53.7334Z" fill="white"/>
</svg>
