<svg width="33" height="79" viewBox="0 0 33 79" fill="none" xmlns="http://www.w3.org/2000/svg">
<path d="M15.0929 76H12.5929V78.5H15.0929V76ZM15.0929 19.424H17.5929V16.924H15.0929V19.424ZM2.50887 19.424H0.00887108V21.924H2.50887V19.424ZM2.50887 17.864L0.61168 16.2359L0.00887108 16.9384V17.864H2.50887ZM15.0929 3.2V0.699995H13.9439L13.1957 1.57191L15.0929 3.2ZM29.6529 3.2H32.1529V0.699995H29.6529V3.2ZM29.6529 76V78.5H32.1529V76H29.6529ZM15.0929 76H17.5929V19.424H15.0929H12.5929V76H15.0929ZM15.0929 19.424V16.924H2.50887V19.424V21.924H15.0929V19.424ZM2.50887 19.424H5.00887V17.864H2.50887H0.00887108V19.424H2.50887ZM2.50887 17.864L4.40606 19.4921L16.9901 4.82808L15.0929 3.2L13.1957 1.57191L0.61168 16.2359L2.50887 17.864ZM15.0929 3.2V5.7H29.6529V3.2V0.699995H15.0929V3.2ZM29.6529 3.2H27.1529V76H29.6529H32.1529V3.2H29.6529ZM29.6529 76V73.5H15.0929V76V78.5H29.6529V76Z" fill="white"/>
</svg>
