<svg width="134" height="40" viewBox="0 0 134 40" fill="none" xmlns="http://www.w3.org/2000/svg">
<path fill-rule="evenodd" clip-rule="evenodd" d="M25.3778 38.701C25.5034 38.8287 25.5874 38.9991 25.5874 39.1693C25.5874 39.3397 25.5036 39.5102 25.3778 39.6379C25.2522 39.7653 25.1263 39.8078 24.9171 39.8078C24.7495 39.8078 24.6239 39.7651 24.498 39.6379C24.3727 39.5102 24.2888 39.3397 24.2888 39.1693C24.2888 38.9993 24.3727 38.8289 24.498 38.701C24.6237 38.5733 24.7495 38.4883 24.9171 38.4883C25.1263 38.4885 25.2519 38.5733 25.3778 38.701ZM25.4616 38.6158C25.336 38.4883 25.1263 38.4031 24.9171 38.4031C24.8236 38.4022 24.7309 38.4206 24.6445 38.4572C24.5581 38.4937 24.48 38.5477 24.4147 38.6158C24.247 38.7862 24.205 38.9566 24.205 39.1693C24.205 39.3825 24.247 39.5529 24.4147 39.7229C24.4799 39.791 24.5581 39.845 24.6445 39.8817C24.7308 39.9183 24.8236 39.9368 24.9171 39.936C25.1263 39.936 25.3358 39.8508 25.4616 39.7229C25.6292 39.5529 25.6708 39.3825 25.6708 39.1693C25.6706 38.9566 25.6292 38.7862 25.4616 38.6158ZM25.0425 39.1266H24.7915V38.8287H24.9171C25.0009 38.8287 25.0425 38.8714 25.0843 38.8714C25.1263 38.9141 25.1263 38.9141 25.1263 38.9991C25.1263 39.0418 25.1263 39.0841 25.0425 39.1266ZM24.7915 39.5954V39.2545H25.0425C25.1263 39.2972 25.1263 39.3822 25.1263 39.4677V39.5956H25.294L25.2519 39.5529V39.3822C25.2519 39.3395 25.2519 39.297 25.2099 39.2545C25.1679 39.212 25.1261 39.2118 25.0843 39.1693H25.2099C25.2519 39.1266 25.2937 39.0418 25.2937 38.9993C25.2937 38.8716 25.2517 38.8289 25.1261 38.7862C25.0841 38.7435 25.0423 38.7435 24.9169 38.7435H24.6237V39.5954H24.7915Z" fill="#4B4C4B"/>
<path d="M40.8963 22.7919C40.0701 22.7919 39.3599 22.7035 38.7656 22.5267C38.1858 22.3498 37.7074 22.173 37.3306 21.9962C36.9537 21.8193 36.6565 21.7309 36.4391 21.7309C36.2507 21.7309 36.0985 21.8119 35.9825 21.974C35.881 22.1362 35.8013 22.3719 35.7433 22.6814H34.8736C34.9026 22.3572 34.9244 21.9593 34.9389 21.4877C34.9534 21.0162 34.9606 20.412 34.9606 19.6751C34.9751 18.9383 34.9823 18.0173 34.9823 16.912H35.8521C35.968 18.4594 36.4464 19.6825 37.2871 20.5814C38.1278 21.4656 39.2222 21.9077 40.5702 21.9077C41.5414 21.9077 42.3169 21.6572 42.8967 21.1562C43.491 20.6404 43.7881 19.9478 43.7881 19.0783C43.7881 18.533 43.6576 18.0541 43.3967 17.6415C43.1503 17.2141 42.7445 16.8236 42.1792 16.4699C41.6283 16.1162 40.8891 15.7699 39.9614 15.431C38.8453 15.0184 37.9321 14.5763 37.2218 14.1047C36.5261 13.6331 36.0115 13.11 35.6781 12.5352C35.3592 11.9458 35.1998 11.2826 35.1998 10.5458C35.1998 9.72054 35.381 9.00582 35.7433 8.40162C36.1202 7.79741 36.6493 7.33321 37.3306 7.009C38.0118 6.6848 38.809 6.5227 39.7222 6.5227C40.476 6.5227 41.1065 6.61111 41.6138 6.78795C42.1212 6.95006 42.5415 7.11953 42.8749 7.29637C43.2083 7.47321 43.491 7.56163 43.7229 7.56163C43.8968 7.56163 44.0418 7.48794 44.1577 7.34058C44.2737 7.17847 44.3607 6.94269 44.4186 6.63322H45.2883C45.2593 6.95743 45.2376 7.32584 45.2231 7.73847C45.2086 8.13636 45.1941 8.6374 45.1796 9.2416C45.1796 9.8458 45.1796 10.6195 45.1796 11.5626H44.2882C44.1722 10.2953 43.7301 9.28581 42.9619 8.53424C42.1936 7.76794 41.2297 7.38479 40.0701 7.38479C39.1569 7.38479 38.4467 7.61321 37.9393 8.07004C37.4465 8.51214 37.2001 9.12371 37.2001 9.90475C37.2001 10.4205 37.3306 10.8847 37.5915 11.2974C37.8524 11.6953 38.28 12.0784 38.8743 12.4468C39.4831 12.8005 40.2948 13.1689 41.3094 13.5521C42.9619 14.171 44.1505 14.8636 44.8752 15.6299C45.6 16.3962 45.9624 17.3394 45.9624 18.4594C45.9624 19.7857 45.5058 20.8393 44.5926 21.6204C43.6794 22.4014 42.4473 22.7919 40.8963 22.7919Z" fill="#4B4C4B"/>
<path d="M53.5232 22.7919C52.4361 22.7919 51.6243 22.4751 51.088 21.8414C50.5517 21.193 50.2835 20.2204 50.2835 18.9236V11.9605H47.6744V11.1205H50.2835V7.73847C50.6894 7.72373 51.0663 7.69426 51.4141 7.65005C51.762 7.5911 52.0809 7.51742 52.3708 7.429V11.1205H56.1758V11.9605H52.3708V19.5425C52.3708 20.2499 52.5085 20.773 52.7839 21.112C53.0593 21.4362 53.4797 21.5983 54.045 21.5983C54.5668 21.5983 54.9944 21.4288 55.3278 21.0898C55.6757 20.7509 55.9366 20.2499 56.1105 19.5867L56.7846 19.7857C56.5671 20.8172 56.1903 21.5762 55.654 22.0625C55.1321 22.5488 54.4219 22.7919 53.5232 22.7919Z" fill="#4B4C4B"/>
<path d="M62.013 22.7919C61.0273 22.7919 60.2446 22.534 59.6648 22.0183C59.0995 21.4877 58.8168 20.7804 58.8168 19.8962C58.8168 19.2036 58.9763 18.6436 59.2952 18.2162C59.614 17.7888 60.0272 17.4499 60.5345 17.1994C61.0563 16.9489 61.5999 16.7425 62.1652 16.5804C62.745 16.4036 63.2886 16.2489 63.7959 16.1162C64.3177 15.9836 64.7381 15.8215 65.057 15.6299C65.3903 15.4236 65.557 15.1584 65.557 14.8342V13.7731C65.557 13.0805 65.3541 12.5573 64.9482 12.2037C64.5424 11.85 63.9408 11.6731 63.1436 11.6731C62.5638 11.6731 62.0782 11.7542 61.6868 11.9163C61.2955 12.0784 61.0998 12.2773 61.0998 12.5131C61.0998 12.6605 61.1505 12.8152 61.252 12.9773C61.3535 13.1247 61.4477 13.2942 61.5346 13.4858C61.6361 13.6626 61.6868 13.8615 61.6868 14.0826C61.6868 14.3626 61.5781 14.591 61.3607 14.7678C61.1578 14.9447 60.8896 15.0331 60.5562 15.0331C60.1649 15.0331 59.846 14.9078 59.5996 14.6573C59.3531 14.3921 59.2299 14.0457 59.2299 13.6184C59.2299 13.0731 59.4329 12.5868 59.8387 12.1595C60.2446 11.7321 60.7882 11.4005 61.4694 11.1647C62.1652 10.9142 62.9479 10.7889 63.8176 10.7889C64.7163 10.7889 65.4483 10.9289 66.0136 11.2089C66.5789 11.4889 66.992 11.9237 67.253 12.5131C67.5284 13.1026 67.6661 13.8689 67.6661 14.812V20.6477C67.6661 21.0014 67.724 21.2593 67.84 21.4214C67.956 21.5835 68.1372 21.6646 68.3836 21.6646C68.63 21.6646 68.8764 21.6056 69.1228 21.4877C69.3692 21.3551 69.6084 21.2004 69.8403 21.0235L70.2534 21.7309C69.8766 22.0698 69.4779 22.3277 69.0576 22.5046C68.6517 22.6961 68.1806 22.7919 67.6443 22.7919C66.2528 22.7919 65.557 22.1435 65.557 20.8467C65.1367 21.4804 64.6293 21.9667 64.035 22.3056C63.4407 22.6298 62.7667 22.7919 62.013 22.7919ZM62.8392 21.4435C63.3755 21.4435 63.8756 21.3109 64.3394 21.0456C64.8033 20.7804 65.2091 20.3972 65.557 19.8962V15.9615C65.4121 16.212 65.1584 16.4183 64.796 16.5804C64.4482 16.7278 64.0568 16.8825 63.6219 17.0446C63.1871 17.192 62.7667 17.3689 62.3609 17.5752C61.9695 17.7815 61.6434 18.0467 61.3825 18.3709C61.1215 18.6951 60.9911 19.1151 60.9911 19.6309C60.9911 20.1909 61.1505 20.633 61.4694 20.9572C61.8028 21.2814 62.2594 21.4435 62.8392 21.4435Z" fill="#4B4C4B"/>
<path d="M79.28 22.4825V21.6204C79.9033 21.6056 80.3309 21.4877 80.5628 21.2667C80.8092 21.0309 80.9324 20.6183 80.9324 20.0288V14.8563C80.9324 13.8836 80.744 13.1615 80.3671 12.69C80.0048 12.2037 79.4612 11.9605 78.7364 11.9605C78.1276 11.9605 77.5623 12.13 77.0405 12.4689C76.5332 12.7931 76.0911 13.2794 75.7142 13.9278L75.736 12.9552C76.0983 12.2773 76.6129 11.7468 77.2797 11.3637C77.9465 10.9805 78.6857 10.7889 79.4974 10.7889C80.628 10.7889 81.4977 11.15 82.1065 11.8721C82.7298 12.5942 83.0415 13.6331 83.0415 14.9889V20.0288C83.0415 20.6183 83.2154 21.0309 83.5633 21.2667C83.9112 21.4877 84.549 21.6056 85.4766 21.6204V22.4825C85.2592 22.4677 84.9548 22.4604 84.5635 22.4604C84.1866 22.4456 83.7735 22.4309 83.3241 22.4161C82.8748 22.4014 82.4399 22.394 82.0196 22.394C81.4688 22.394 80.9324 22.4088 80.4106 22.4382C79.9033 22.453 79.5264 22.4677 79.28 22.4825ZM71.3005 22.4825V21.6204C72.2137 21.6056 72.8442 21.4877 73.1921 21.2667C73.5545 21.0309 73.7356 20.6183 73.7356 20.0288V13.9057C73.7356 13.1984 73.5545 12.7047 73.1921 12.4247C72.8297 12.1447 72.1992 11.99 71.3005 11.9605V11.0984C71.5904 11.1132 71.8875 11.1279 72.1919 11.1426C72.4963 11.1574 72.8152 11.1647 73.1486 11.1647C73.6414 11.1647 74.1125 11.1426 74.5619 11.0984C75.0112 11.0395 75.4388 10.9584 75.8447 10.8553V20.0288C75.8447 20.6183 75.9606 21.0309 76.1926 21.2667C76.439 21.4877 76.8738 21.6056 77.4971 21.6204V22.4825C77.1637 22.4677 76.7506 22.453 76.2578 22.4382C75.7794 22.4088 75.2794 22.394 74.7575 22.394C74.1632 22.394 73.5472 22.4088 72.9094 22.4382C72.2716 22.453 71.7353 22.4677 71.3005 22.4825Z" fill="#4B4C4B"/>
<path d="M86.7292 22.4825V21.6204C87.6569 21.6056 88.2947 21.4804 88.6426 21.2446C88.9905 20.9941 89.1644 20.5593 89.1644 19.9404V10.5679C89.1644 8.84371 89.5703 7.51742 90.382 6.58901C91.1937 5.6606 92.3388 5.1964 93.8173 5.1964C94.803 5.1964 95.5857 5.40271 96.1655 5.81534C96.7453 6.21323 97.0352 6.75111 97.0352 7.429C97.0352 7.90057 96.8975 8.28372 96.6221 8.57845C96.3612 8.87319 96.0133 9.02055 95.5785 9.02055C95.2596 9.02055 94.9987 8.93213 94.7957 8.75529C94.6073 8.57845 94.5131 8.34267 94.5131 8.04794C94.5131 7.82689 94.5566 7.62794 94.6435 7.4511C94.7305 7.25953 94.8175 7.09005 94.9044 6.94269C95.0059 6.78059 95.0566 6.63322 95.0566 6.50059C95.0566 6.17639 94.7232 6.01428 94.0565 6.01428C93.0998 6.01428 92.3968 6.33849 91.9474 6.9869C91.4981 7.63531 91.2734 8.65214 91.2734 10.0374V19.9183C91.2734 20.5225 91.5053 20.9572 91.9692 21.2225C92.433 21.473 93.2375 21.6056 94.3826 21.6204V22.4825C94.1072 22.4677 93.7376 22.4604 93.2737 22.4604C92.8244 22.4456 92.3316 22.4309 91.7952 22.4161C91.2734 22.4014 90.7661 22.394 90.2733 22.394C89.5485 22.394 88.86 22.4088 88.2077 22.4382C87.5554 22.453 87.0626 22.4677 86.7292 22.4825ZM86.6423 11.9605V11.1205H94.4261V11.9605H86.6423Z" fill="#4B4C4B"/>
<path d="M101.914 22.7919C100.914 22.7919 100.016 22.5856 99.2183 22.173C98.4356 21.7456 97.8123 21.0898 97.3484 20.2057C96.8846 19.3215 96.6527 18.1867 96.6527 16.8015C96.6527 15.4015 96.8846 14.2594 97.3484 13.3752C97.8123 12.491 98.4428 11.8426 99.24 11.43C100.037 11.0026 100.929 10.7889 101.914 10.7889C102.915 10.7889 103.806 11.0026 104.589 11.43C105.386 11.8426 106.016 12.491 106.48 13.3752C106.944 14.2594 107.176 15.4015 107.176 16.8015C107.176 18.1867 106.944 19.3215 106.48 20.2057C106.016 21.0898 105.386 21.7456 104.589 22.173C103.806 22.5856 102.915 22.7919 101.914 22.7919ZM101.914 21.9298C102.784 21.9298 103.502 21.5246 104.067 20.7141C104.632 19.9035 104.915 18.5994 104.915 16.8015C104.915 15.0036 104.632 13.6921 104.067 12.8668C103.502 12.0416 102.784 11.6289 101.914 11.6289C101.03 11.6289 100.305 12.0416 99.7401 12.8668C99.1893 13.6921 98.9139 15.0036 98.9139 16.8015C98.9139 18.5994 99.1893 19.9035 99.7401 20.7141C100.305 21.5246 101.03 21.9298 101.914 21.9298Z" fill="#4B4C4B"/>
<path d="M109.451 22.4825V21.6204C110.379 21.6056 111.017 21.4877 111.364 21.2667C111.712 21.0309 111.886 20.6183 111.886 20.0288V13.9057C111.886 13.1984 111.698 12.7047 111.321 12.4247C110.959 12.1447 110.335 11.99 109.451 11.9605V11.0984C109.755 11.1132 110.06 11.1279 110.364 11.1426C110.669 11.1574 110.98 11.1647 111.299 11.1647C112.27 11.1647 113.169 11.0616 113.995 10.8553V19.9183C113.995 20.5372 114.22 20.972 114.669 21.2225C115.119 21.473 115.901 21.6056 117.018 21.6204V22.4825C116.757 22.4677 116.401 22.4604 115.952 22.4604C115.503 22.4456 115.017 22.4309 114.495 22.4161C113.974 22.4014 113.466 22.394 112.973 22.394C112.263 22.394 111.582 22.4088 110.93 22.4382C110.277 22.453 109.784 22.4677 109.451 22.4825ZM118.105 14.6794C117.786 14.6794 117.532 14.591 117.344 14.4142C117.155 14.2226 117.061 13.9868 117.061 13.7068C117.061 13.5152 117.097 13.3458 117.17 13.1984C117.242 13.0363 117.315 12.8889 117.387 12.7563C117.46 12.6089 117.496 12.4689 117.496 12.3363C117.496 12.0416 117.271 11.8942 116.822 11.8942C116.474 11.8942 116.104 11.9826 115.713 12.1595C115.322 12.3363 114.966 12.5794 114.648 12.8889C114.329 13.1837 114.082 13.5226 113.908 13.9057L113.865 12.9773C114.256 12.2847 114.756 11.7468 115.365 11.3637C115.988 10.9805 116.641 10.7889 117.322 10.7889C117.989 10.7889 118.525 10.9879 118.931 11.3858C119.337 11.7689 119.54 12.2847 119.54 12.9331C119.54 13.4489 119.402 13.8689 119.127 14.1931C118.866 14.5173 118.525 14.6794 118.105 14.6794Z" fill="#4B4C4B"/>
<path d="M129.456 22.7256V8.20267C129.456 7.52479 129.275 7.03848 128.912 6.74374C128.55 6.44901 127.919 6.28691 127.021 6.25744V5.39534C127.311 5.41008 127.608 5.42482 127.912 5.43955C128.231 5.45429 128.55 5.46166 128.869 5.46166C129.362 5.46166 129.833 5.43955 130.282 5.39534C130.731 5.3364 131.159 5.25534 131.565 5.15219V19.6751C131.565 20.353 131.739 20.8467 132.087 21.1562C132.449 21.4509 133.087 21.6056 134 21.6204V22.4825C133.71 22.4677 133.413 22.453 133.109 22.4382C132.804 22.4235 132.485 22.4161 132.152 22.4161C131.659 22.4161 131.188 22.4382 130.739 22.4825C130.289 22.5414 129.862 22.6225 129.456 22.7256ZM126.042 22.7919C125.1 22.7919 124.281 22.5561 123.585 22.0846C122.904 21.613 122.375 20.9351 121.998 20.0509C121.636 19.1667 121.455 18.113 121.455 16.8899C121.455 15.6373 121.657 14.5542 122.063 13.6405C122.484 12.7268 123.071 12.0268 123.824 11.5405C124.593 11.0395 125.491 10.7889 126.521 10.7889C127.361 10.7889 128.064 10.9732 128.63 11.3416C129.195 11.71 129.557 12.1595 129.717 12.69L129.565 13.4194C129.391 12.9479 129.072 12.5647 128.608 12.27C128.159 11.9605 127.615 11.8058 126.977 11.8058C125.933 11.8058 125.129 12.2405 124.564 13.11C123.998 13.9647 123.716 15.1878 123.716 16.7794C123.716 18.3267 123.977 19.5278 124.498 20.3825C125.035 21.2225 125.803 21.6425 126.803 21.6425C127.484 21.6425 128.072 21.4141 128.564 20.9572C129.072 20.4856 129.427 19.8299 129.63 18.9899L129.76 19.7857C129.543 20.7435 129.115 21.4877 128.477 22.0183C127.84 22.534 127.028 22.7919 126.042 22.7919Z" fill="#4B4C4B"/>
<path d="M54.9721 37.1313C54.2799 37.1313 53.7017 37.003 53.2376 36.7464C52.7815 36.4897 52.4395 36.1006 52.2115 35.579C51.9835 35.0574 51.8695 34.4075 51.8695 33.6293V29.7175C51.8695 29.4194 51.8329 29.2 51.7596 29.0593C51.6944 28.9103 51.5601 28.8068 51.3565 28.7488C51.1529 28.6909 50.8434 28.6578 50.4281 28.6495V28.1652C50.8027 28.19 51.4868 28.2024 52.4802 28.2024C53.3923 28.2024 54.0315 28.19 54.398 28.1652V28.6495C54.0234 28.6578 53.7425 28.6909 53.5552 28.7488C53.376 28.8068 53.2539 28.9103 53.1887 29.0593C53.1317 29.2 53.1032 29.4194 53.1032 29.7175V33.4555C53.1032 34.5566 53.2701 35.3472 53.604 35.8274C53.9379 36.3076 54.4876 36.5477 55.253 36.5477C56.0348 36.5477 56.613 36.2869 56.9876 35.7653C57.3622 35.2354 57.5494 34.4282 57.5494 33.3437V29.8168C57.5494 29.5022 57.5169 29.2663 57.4517 29.109C57.3866 28.9434 57.2604 28.8275 57.0731 28.7613C56.8858 28.695 56.6089 28.6578 56.2425 28.6495V28.1652C56.3809 28.1734 56.5723 28.1817 56.8166 28.19C57.069 28.1983 57.3703 28.2024 57.7205 28.2024C58.1602 28.2024 58.5266 28.1983 58.8198 28.19C59.113 28.1817 59.3328 28.1734 59.4794 28.1652V28.6495C59.0804 28.6578 58.7791 28.6992 58.5755 28.7737C58.3719 28.8399 58.2335 28.96 58.1602 29.1338C58.0869 29.2994 58.0503 29.5436 58.0503 29.8665V33.3934C58.0503 34.6518 57.7978 35.5914 57.2929 36.2124C56.7881 36.825 56.0144 37.1313 54.9721 37.1313Z" fill="#4B4C4B"/>
<path d="M64.5178 36.9575V36.4731C64.868 36.4649 65.1082 36.3986 65.2385 36.2744C65.3769 36.142 65.4461 35.9102 65.4461 35.579V32.6731C65.4461 32.1267 65.3403 31.721 65.1285 31.4561C64.925 31.1829 64.6196 31.0463 64.2124 31.0463C63.8704 31.0463 63.5528 31.1415 63.2597 31.3319C62.9746 31.514 62.7263 31.7872 62.5145 32.1515L62.5268 31.6051C62.7303 31.2243 63.0194 30.9262 63.394 30.711C63.7686 30.4957 64.1839 30.3881 64.6399 30.3881C65.2751 30.3881 65.7637 30.5909 66.1057 30.9966C66.4559 31.4023 66.631 31.9859 66.631 32.7476V35.579C66.631 35.9102 66.7287 36.142 66.9241 36.2744C67.1196 36.3986 67.4779 36.4649 67.999 36.4731V36.9575C67.8769 36.9492 67.7059 36.945 67.486 36.945C67.2743 36.9368 67.0422 36.9285 66.7898 36.9202C66.5373 36.9119 66.293 36.9078 66.0569 36.9078C65.7474 36.9078 65.4461 36.9161 65.153 36.9326C64.868 36.9409 64.6562 36.9492 64.5178 36.9575ZM60.0349 36.9575V36.4731C60.5479 36.4649 60.9022 36.3986 61.0976 36.2744C61.3012 36.142 61.403 35.9102 61.403 35.579V32.1391C61.403 31.7417 61.3012 31.4643 61.0976 31.307C60.894 31.1497 60.5398 31.0628 60.0349 31.0463V30.5619C60.1978 30.5702 60.3647 30.5785 60.5357 30.5868C60.7067 30.5951 60.8859 30.5992 61.0732 30.5992C61.35 30.5992 61.6147 30.5868 61.8671 30.5619C62.1196 30.5288 62.3598 30.4833 62.5878 30.4253V35.579C62.5878 35.9102 62.653 36.142 62.7833 36.2744C62.9217 36.3986 63.166 36.4649 63.5162 36.4731V36.9575C63.3289 36.9492 63.0968 36.9409 62.8199 36.9326C62.5512 36.9161 62.2702 36.9078 61.9771 36.9078C61.6432 36.9078 61.2971 36.9161 60.9388 36.9326C60.5805 36.9409 60.2792 36.9492 60.0349 36.9575Z" fill="#4B4C4B"/>
<path d="M68.7027 36.9575V36.4731C69.2076 36.4649 69.5619 36.3986 69.7654 36.2744C69.969 36.1503 70.0708 35.9185 70.0708 35.579V32.1391C70.0708 31.7583 69.969 31.485 69.7654 31.3195C69.57 31.1539 69.2158 31.0628 68.7027 31.0463V30.5619C68.8656 30.5702 69.0325 30.5785 69.2036 30.5868C69.3827 30.5951 69.5578 30.5992 69.7288 30.5992C70.022 30.5992 70.2948 30.5868 70.5472 30.5619C70.7996 30.5288 71.0358 30.4833 71.2557 30.4253V35.579C71.2557 35.9185 71.3534 36.1503 71.5488 36.2744C71.7524 36.3986 72.1107 36.4649 72.6237 36.4731V36.9575C72.5016 36.9492 72.3306 36.945 72.1107 36.945C71.899 36.9368 71.6669 36.9285 71.4145 36.9202C71.162 36.9119 70.9096 36.9078 70.6571 36.9078C70.2907 36.9078 69.9202 36.9161 69.5456 36.9326C69.171 36.9409 68.89 36.9492 68.7027 36.9575ZM70.6205 29.0966C70.3925 29.0966 70.197 29.0179 70.0342 28.8606C69.8713 28.695 69.7899 28.4922 69.7899 28.2521C69.7899 28.0203 69.8713 27.8257 70.0342 27.6684C70.197 27.5028 70.3925 27.4201 70.6205 27.4201C70.8485 27.4201 71.0439 27.5028 71.2068 27.6684C71.3697 27.8257 71.4511 28.0203 71.4511 28.2521C71.4511 28.4922 71.3697 28.695 71.2068 28.8606C71.0439 29.0179 70.8485 29.0966 70.6205 29.0966Z" fill="#4B4C4B"/>
<path d="M76.1945 37.0692L73.947 31.8535C73.833 31.5803 73.6742 31.3816 73.4706 31.2574C73.267 31.1249 73.0064 31.0545 72.6888 31.0463V30.5619C72.9331 30.5785 73.1774 30.5909 73.4217 30.5992C73.666 30.6075 73.9551 30.6116 74.289 30.6116C74.6147 30.6116 74.9119 30.6075 75.1807 30.5992C75.4494 30.5909 75.7141 30.5785 75.9746 30.5619V31.0463C75.5675 31.0628 75.311 31.1456 75.2051 31.2946C75.1074 31.4354 75.1359 31.6796 75.2906 32.0273L76.8541 35.6784L76.6709 35.7405L77.8313 32.7849C77.9779 32.4123 78.0512 32.1018 78.0512 31.8535C78.0512 31.5968 77.9738 31.4023 77.8191 31.2698C77.6725 31.1373 77.4486 31.0628 77.1473 31.0463V30.5619C77.3753 30.5702 77.5667 30.5785 77.7214 30.5868C77.8842 30.5868 78.0349 30.5909 78.1733 30.5992C78.3199 30.5992 78.4746 30.5992 78.6375 30.5992C78.9062 30.5992 79.1505 30.5951 79.3704 30.5868C79.5903 30.5785 79.7857 30.5702 79.9567 30.5619V31.0463C79.6147 31.0711 79.3297 31.187 79.1017 31.394C78.8736 31.601 78.666 31.9404 78.4787 32.4123L76.6465 37.0692H76.1945Z" fill="#4B4C4B"/>
<path d="M83.6809 37.1313C83.0946 37.1313 82.5816 36.9989 82.1418 36.7339C81.7103 36.4607 81.3764 36.0716 81.1402 35.5666C80.9041 35.0616 80.786 34.4655 80.786 33.7783C80.786 33.0829 80.9041 32.4827 81.1402 31.9776C81.3764 31.4643 81.7184 31.0711 82.1663 30.7979C82.6142 30.5247 83.1476 30.3881 83.7664 30.3881C84.2958 30.3881 84.7518 30.4916 85.1345 30.6985C85.5254 30.9055 85.8226 31.2325 86.0262 31.6796C86.2379 32.1267 86.3356 32.7103 86.3194 33.4306H81.5677L81.5555 32.9587H85.0979C85.106 32.553 85.0612 32.1929 84.9635 31.8783C84.8658 31.5637 84.7111 31.3153 84.4993 31.1332C84.2957 30.951 84.0311 30.86 83.7054 30.86C83.2901 30.86 82.9236 31.038 82.606 31.394C82.2966 31.75 82.1133 32.3088 82.0563 33.0705L82.0686 33.1077C82.0604 33.1905 82.0563 33.2816 82.0563 33.3809C82.0563 33.4803 82.0563 33.5838 82.0563 33.6914C82.0563 34.569 82.2233 35.2479 82.5572 35.728C82.891 36.1999 83.3715 36.4359 83.9985 36.4359C84.4057 36.4359 84.7681 36.3365 85.0856 36.1378C85.4114 35.9309 85.6801 35.6121 85.8918 35.1816L86.3194 35.43C86.1076 35.9681 85.7697 36.3862 85.3055 36.6843C84.8495 36.9823 84.308 37.1313 83.6809 37.1313Z" fill="#4B4C4B"/>
<path d="M87.6063 36.9575V36.4731C88.1275 36.4649 88.4858 36.3986 88.6812 36.2744C88.8767 36.142 88.9744 35.9102 88.9744 35.579V32.1391C88.9744 31.7417 88.8685 31.4643 88.6568 31.307C88.4532 31.1497 88.1031 31.0628 87.6063 31.0463V30.5619C87.7773 30.5702 87.9483 30.5785 88.1193 30.5868C88.2904 30.5951 88.4654 30.5992 88.6446 30.5992C89.1902 30.5992 89.6951 30.5412 90.1592 30.4253V35.5169C90.1592 35.8646 90.2855 36.1089 90.5379 36.2496C90.7903 36.3904 91.2301 36.4649 91.8571 36.4731V36.9575C91.7105 36.9492 91.511 36.945 91.2586 36.945C91.0061 36.9368 90.7333 36.9285 90.4402 36.9202C90.147 36.9119 89.862 36.9078 89.5851 36.9078C89.1861 36.9078 88.8034 36.9161 88.4369 36.9326C88.0705 36.9409 87.7936 36.9492 87.6063 36.9575ZM92.4679 32.5737C92.2887 32.5737 92.1462 32.5241 92.0403 32.4247C91.9345 32.3171 91.8815 32.1846 91.8815 32.0273C91.8815 31.9197 91.9019 31.8245 91.9426 31.7417C91.9833 31.6506 92.0241 31.5678 92.0648 31.4933C92.1055 31.4105 92.1258 31.3319 92.1258 31.2574C92.1258 31.0918 91.9996 31.009 91.7472 31.009C91.5517 31.009 91.3441 31.0587 91.1242 31.158C90.9044 31.2574 90.7048 31.394 90.5257 31.5678C90.3465 31.7334 90.2081 31.9238 90.1104 32.1391L90.086 31.6175C90.3058 31.2284 90.5868 30.9262 90.9288 30.711C91.2789 30.4957 91.6454 30.3881 92.0281 30.3881C92.4027 30.3881 92.704 30.4998 92.932 30.7234C93.16 30.9386 93.274 31.2284 93.274 31.5927C93.274 31.8824 93.1967 32.1184 93.042 32.3005C92.8954 32.4827 92.704 32.5737 92.4679 32.5737Z" fill="#4B4C4B"/>
<path d="M97.2538 37.1313C96.9037 37.1313 96.6064 37.0899 96.3621 37.0071C96.126 36.9326 95.9305 36.8623 95.7758 36.796C95.6211 36.7215 95.4908 36.6843 95.3849 36.6843C95.1977 36.6843 95.0592 36.8126 94.9696 37.0692H94.5055C94.5218 36.8705 94.534 36.6553 94.5421 36.4235C94.5503 36.1917 94.5543 35.9267 94.5543 35.6287C94.5625 35.3224 94.5625 34.9746 94.5543 34.5855H95.0185C95.1325 35.2727 95.3605 35.786 95.7025 36.1254C96.0527 36.4649 96.5209 36.6346 97.1073 36.6346C97.5307 36.6346 97.8605 36.5435 98.0967 36.3614C98.3328 36.171 98.4509 35.906 98.4509 35.5666C98.4509 35.2437 98.3288 34.9829 98.0844 34.7842C97.8483 34.5773 97.433 34.391 96.8385 34.2254C96.0975 34.0184 95.556 33.7494 95.2139 33.4182C94.8719 33.0788 94.7009 32.6565 94.7009 32.1515C94.7009 31.6134 94.876 31.187 95.2262 30.8724C95.5763 30.5495 96.0486 30.3881 96.6431 30.3881C96.9607 30.3881 97.2294 30.4253 97.4493 30.4998C97.6691 30.5744 97.8524 30.6489 97.9989 30.7234C98.1537 30.7979 98.2921 30.8351 98.4143 30.8351C98.4957 30.8351 98.5649 30.8062 98.6219 30.7482C98.6789 30.6903 98.7278 30.5951 98.7685 30.4626H99.2449C99.2286 30.6364 99.2164 30.8227 99.2082 31.0214C99.2001 31.2118 99.1919 31.4354 99.1838 31.692C99.1838 31.9404 99.1879 32.2426 99.196 32.5986H98.7196C98.6382 32.0604 98.4224 31.6382 98.0722 31.3319C97.7221 31.0173 97.3027 30.86 96.8141 30.86C96.4558 30.86 96.1789 30.9469 95.9835 31.1208C95.7962 31.2864 95.7025 31.5223 95.7025 31.8286C95.7025 32.1515 95.8328 32.4206 96.0934 32.6358C96.354 32.8428 96.806 33.0374 97.4493 33.2195C98.1577 33.4265 98.6667 33.6831 98.9761 33.9894C99.2937 34.2958 99.4525 34.7014 99.4525 35.2065C99.4525 35.8025 99.2571 36.2745 98.8662 36.6222C98.4753 36.9616 97.9379 37.1313 97.2538 37.1313Z" fill="#4B4C4B"/>
<path d="M100.83 36.9575V36.4731C101.335 36.4649 101.689 36.3986 101.893 36.2744C102.096 36.1503 102.198 35.9185 102.198 35.579V32.1391C102.198 31.7583 102.096 31.485 101.893 31.3195C101.697 31.1539 101.343 31.0628 100.83 31.0463V30.5619C100.993 30.5702 101.16 30.5785 101.331 30.5868C101.51 30.5951 101.685 30.5992 101.856 30.5992C102.149 30.5992 102.422 30.5868 102.674 30.5619C102.927 30.5288 103.163 30.4833 103.383 30.4253V35.579C103.383 35.9185 103.481 36.1503 103.676 36.2744C103.88 36.3986 104.238 36.4649 104.751 36.4731V36.9575C104.629 36.9492 104.458 36.945 104.238 36.945C104.026 36.9368 103.794 36.9285 103.542 36.9202C103.289 36.9119 103.037 36.9078 102.784 36.9078C102.418 36.9078 102.047 36.9161 101.673 36.9326C101.298 36.9409 101.017 36.9492 100.83 36.9575ZM102.748 29.0966C102.52 29.0966 102.324 29.0179 102.161 28.8606C101.999 28.695 101.917 28.4922 101.917 28.2521C101.917 28.0203 101.999 27.8257 102.161 27.6684C102.324 27.5028 102.52 27.4201 102.748 27.4201C102.976 27.4201 103.171 27.5028 103.334 27.6684C103.497 27.8257 103.578 28.0203 103.578 28.2521C103.578 28.4922 103.497 28.695 103.334 28.8606C103.171 29.0179 102.976 29.0966 102.748 29.0966Z" fill="#4B4C4B"/>
<path d="M108.563 37.1313C107.952 37.1313 107.496 36.9533 107.195 36.5973C106.894 36.2331 106.743 35.6866 106.743 34.9581V31.0463H105.277V30.5744H106.743V28.6743C106.971 28.666 107.183 28.6495 107.378 28.6247C107.574 28.5915 107.753 28.5501 107.916 28.5005V30.5744H110.053V31.0463H107.916V35.3058C107.916 35.7032 107.993 35.9971 108.148 36.1875C108.302 36.3697 108.539 36.4607 108.856 36.4607C109.149 36.4607 109.39 36.3655 109.577 36.1751C109.772 35.9847 109.919 35.7032 110.017 35.3306L110.395 35.4424C110.273 36.0219 110.061 36.4483 109.76 36.7215C109.467 36.9947 109.068 37.1313 108.563 37.1313Z" fill="#4B4C4B"/>
<path d="M114.263 37.1437L112.003 31.8659C111.881 31.5844 111.718 31.3816 111.514 31.2574C111.311 31.1249 111.05 31.0545 110.733 31.0463V30.5619C111.026 30.5785 111.299 30.5909 111.551 30.5992C111.803 30.6075 112.08 30.6116 112.382 30.6116C112.74 30.6116 113.049 30.6075 113.31 30.5992C113.571 30.5909 113.807 30.5785 114.018 30.5619V31.0463C113.611 31.0628 113.355 31.1415 113.249 31.2822C113.151 31.423 113.18 31.6713 113.334 32.0273L114.898 35.7156L114.702 35.7777L115.875 32.7849C116.022 32.404 116.091 32.0894 116.083 31.841C116.083 31.5844 116.005 31.394 115.851 31.2698C115.704 31.1373 115.48 31.0628 115.179 31.0463V30.5619C115.391 30.5702 115.574 30.5785 115.729 30.5868C115.883 30.5868 116.03 30.5909 116.168 30.5992C116.315 30.5992 116.478 30.5992 116.657 30.5992C116.893 30.5992 117.129 30.5951 117.365 30.5868C117.602 30.5785 117.805 30.5702 117.976 30.5619V31.0463C117.642 31.0711 117.357 31.1911 117.121 31.4064C116.893 31.6134 116.689 31.9487 116.51 32.4123L114.69 37.1437H114.263ZM112.54 40C112.15 40 111.832 39.8965 111.588 39.6895C111.343 39.4826 111.221 39.2094 111.221 38.8699C111.221 38.6133 111.299 38.4022 111.453 38.2366C111.608 38.0793 111.808 38.0006 112.052 38.0006C112.239 38.0006 112.386 38.0462 112.492 38.1372C112.597 38.2366 112.65 38.369 112.65 38.5346C112.65 38.6505 112.63 38.7499 112.589 38.8327C112.557 38.9237 112.52 39.0065 112.479 39.081C112.439 39.1555 112.418 39.2301 112.418 39.3046C112.418 39.4536 112.508 39.5281 112.687 39.5281C112.866 39.5281 113.029 39.4577 113.176 39.317C113.322 39.1845 113.448 38.9858 113.554 38.7209L114.336 36.7712L114.739 37.0196L114.043 38.783C113.929 39.0645 113.799 39.2963 113.652 39.4784C113.514 39.6606 113.355 39.793 113.176 39.8758C112.996 39.9586 112.785 40 112.54 40Z" fill="#4B4C4B"/>
<path fill-rule="evenodd" clip-rule="evenodd" d="M20.3104 39.9358L25.7544 34.4435L25.7124 20.6491L20.0174 14.9013L18.9705 14.6883L18.8449 13.7942L25.7126 13.8369V5.96033C25.382 5.61655 25.0433 5.26319 24.6991 4.90417C23.1254 3.2624 21.4382 1.5023 19.8918 0H5.94644L0 6.00305V19.1162L5.48601 24.6934L8.24992 24.7361L8.29194 26.1414H0.167631L0.125612 34.0604L5.86285 39.893L20.3104 39.9358ZM6.53293 1.40498L1.54936 6.51409V18.4777L6.49091 23.4164L7.11919 23.9699H6.03026L0.837486 18.6054L0.879282 6.30118L6.15587 0.851443C8.31937 0.808722 10.4835 0.808722 12.647 0.851443C12.4851 0.878948 12.358 1.02985 12.2322 1.17934C12.1626 1.26203 12.0933 1.34429 12.0187 1.40498H6.53293ZM24.6862 6.06377L24.7915 6.17347V12.9003L17.4209 12.8578C17.2371 12.7831 17.1827 12.4794 17.1437 12.2622C17.1383 12.2317 17.1331 12.2027 17.1279 12.1765L24.1212 12.134V6.47137L19.1797 1.49019L13.4009 1.40498L13.3883 1.38355C13.2641 1.1726 13.0993 0.892747 12.8564 0.851443C15.1179 0.851443 17.1699 0.851443 19.557 0.894162C21.4035 2.64648 22.9689 4.27615 24.6862 6.06377ZM8.83596 10.7715L8.87798 9.02593L11.3909 9.06842C11.1453 9.36334 11.0901 9.47694 11.0603 9.53803C11.0343 9.5916 11.0279 9.60479 10.93 9.66445L9.54805 9.74966C9.39939 9.97129 9.29294 10.131 9.21427 10.2489C9.05634 10.4858 9.01037 10.5547 8.95967 10.62C8.93885 10.6468 8.91724 10.673 8.88675 10.7099L8.83596 10.7715ZM16.2182 9.34519C16.1514 9.23024 16.0834 9.11342 15.9974 9.02593C16.0552 9.02593 16.1277 9.01764 16.2068 9.00859C16.5286 8.97181 16.9603 8.92246 16.9605 9.36655L16.9185 9.70717C16.5339 9.88779 16.3793 9.62193 16.2182 9.34519ZM8.75105 13.3291C8.73347 13.0287 8.7147 12.708 9.0874 12.6448C9.43335 12.7407 9.42495 13.1008 9.41711 13.4365C9.41451 13.5478 9.41198 13.6565 9.42244 13.7519C9.42244 13.9648 9.25503 14.1353 9.04561 14.0925C8.81522 14.1803 8.80257 14.0068 8.79001 13.8343C8.78429 13.7558 8.77858 13.6775 8.75236 13.6242C8.76317 13.5361 8.75718 13.4338 8.75105 13.3291ZM10.2389 13.1015C10.1983 12.9226 10.1598 12.7531 10.3017 12.6448C10.4691 12.6873 10.7206 12.9003 10.6368 13.0707L10.2599 13.1984C10.2535 13.166 10.2462 13.1336 10.2389 13.1015ZM1.71677 27.8017L1.67497 33.4644L6.57472 38.3606L19.5988 38.3181L24.0795 33.805V21.2877L19.3473 16.4342C19.3473 16.4342 17.0023 16.5621 16.374 15.8382H19.7239L24.8751 21.1177L24.9172 33.9327L19.9336 39.0418L6.23968 38.9991L0.921302 33.5916V27.163H7.07717C7.11919 27.3759 6.99335 27.6313 6.82595 27.759L1.71677 27.8017ZM16.5322 24.0315C16.509 24.0078 16.4858 23.9842 16.4578 23.9699C16.3322 23.6722 16.5832 23.1614 16.8344 23.3312C16.9185 23.4589 16.8764 24.0549 16.7088 24.0976C16.6251 24.1261 16.5787 24.0788 16.5322 24.0315ZM14.3217 28.994L14.3638 27.2484L15.4525 27.8447V29.0368L14.3217 28.994ZM16.2902 28.0144C16.8764 28.2276 16.9603 28.2276 16.9603 28.2276V30.7821L14.3638 30.6969V30.0157L16.2902 29.973V28.0144ZM11.8513 29.207L11.1394 29.1217C11.1394 29.1217 11.7257 28.5257 11.8933 28.483C11.8933 28.653 11.8513 29.207 11.8513 29.207ZM11.7257 30.0582L11.7675 30.6969L8.91977 30.7821L8.83596 29.5474C8.91751 29.5711 9.01207 29.5783 9.10698 29.5855C9.35306 29.6043 9.60148 29.6233 9.63165 29.9305C10.1343 30.1859 11.7257 30.0582 11.7257 30.0582ZM12.537 1.67123C12.592 1.59136 12.6469 1.51151 12.7726 1.57541C12.8679 1.73053 12.9111 1.90328 12.9537 2.07358C13.0047 2.27724 13.0547 2.47741 13.1919 2.63977C13.2595 2.6948 13.3446 2.73649 13.4288 2.77776C13.6054 2.86429 13.7782 2.94895 13.7782 3.15082C13.7454 3.17863 13.709 3.20789 13.6709 3.23861C13.4168 3.44307 13.0827 3.71191 13.1919 4.04498C13.4055 4.40042 13.7724 4.49939 14.1336 4.59685C14.5511 4.70949 14.9611 4.8201 15.1183 5.32226C15.0523 5.37258 14.9798 5.39643 14.9085 5.4199C14.7988 5.45598 14.692 5.49114 14.6159 5.62016C14.632 5.7839 14.8276 5.92244 15.0219 6.06001C15.333 6.28021 15.6404 6.49791 15.2022 6.81245C15.0712 6.76399 14.9504 6.69832 14.834 6.63501C14.5409 6.47569 14.2755 6.33137 13.9458 6.51432C13.6946 6.59931 13.6526 6.93993 13.8202 7.11035C14.2388 7.36599 14.7417 7.53619 15.2442 7.32327C15.4114 7.32327 15.4717 7.43219 15.5319 7.54113C15.5471 7.56846 15.5622 7.59579 15.579 7.6214C15.6628 7.87681 15.4952 8.04724 15.3698 8.17494C15.1294 8.31451 14.8399 8.28251 14.5617 8.25177C14.1609 8.20748 13.7836 8.16579 13.6106 8.64327C13.7041 9.40291 14.3528 9.52727 14.9722 9.646C15.186 9.68698 15.3963 9.7273 15.579 9.79284C15.8055 10.1575 16.1597 10.3319 16.4995 10.4992C16.9136 10.703 17.3065 10.8963 17.4216 11.4107C17.0802 11.6966 16.787 11.5126 16.5004 11.3327C16.1892 11.1374 15.8858 10.947 15.537 11.3682C15.2881 11.4461 15.0829 11.2924 14.8895 11.1475C14.6599 10.9756 14.4469 10.816 14.1968 11.0701C14.1968 11.496 14.5741 11.7514 14.9089 11.9218C15.0655 12.0172 15.2571 12.0413 15.4466 12.0652C15.7643 12.1052 16.0762 12.1445 16.2073 12.5178C16.3521 13.0816 16.8162 13.4337 17.2798 13.7855C17.6213 14.0445 17.9626 14.3034 18.1757 14.6465C17.8946 14.9325 17.5944 14.7768 17.288 14.6178C17.1381 14.5401 16.9868 14.4616 16.8356 14.4336C16.3417 14.7076 15.9801 14.443 15.6089 14.1715C15.2878 13.9365 14.9595 13.6963 14.5323 13.7951C14.3399 14.015 14.4235 14.2629 14.5139 14.5308C14.581 14.7297 14.6518 14.9397 14.6161 15.1574L14.6374 15.1836C15.2156 15.8975 15.757 16.5659 16.5841 16.8605L16.7097 17.0307C16.5425 17.3713 16.0396 17.2861 15.7048 17.1584C15.4731 17.1039 15.2792 16.9105 15.0845 16.7163C14.8219 16.4544 14.5578 16.1909 14.197 16.2642C14.0716 16.3919 13.9878 16.6898 14.155 16.8602C14.3644 17.3286 14.8251 17.6692 15.2442 17.8821C15.8455 17.6875 16.2862 18.0191 16.7179 18.344C16.9474 18.5167 17.1744 18.6875 17.4216 18.7763C17.5054 18.8188 17.5054 18.9465 17.5054 19.0317C17.1487 18.6904 16.9077 18.8834 16.6613 19.0807C16.4157 19.2773 16.1647 19.4782 15.7884 19.1594C15.495 18.904 15.1183 18.7336 14.7415 18.8188C14.448 18.9892 14.5739 19.3296 14.6995 19.5852C15.0913 20.1961 15.7112 20.3431 16.3355 20.4912C16.7122 20.5805 17.0905 20.6703 17.4214 20.8625C17.5917 20.9395 17.7449 20.8775 17.8925 20.8177C18.0717 20.7451 18.2427 20.6759 18.4263 20.8625C18.5545 21.1446 18.4322 21.3715 18.3093 21.5995C18.1912 21.8187 18.0725 22.0389 18.1753 22.3102C18.0511 22.594 17.8122 22.4808 17.6115 22.3857C17.5413 22.3524 17.4757 22.3213 17.4214 22.3102L17.4205 22.3093C17.2532 22.1392 17.0862 21.9694 16.8769 22.0121C16.5834 22.3102 16.2068 22.5656 15.83 22.1825C15.7606 22.0418 15.6629 22.0464 15.5367 22.0522C15.51 22.0535 15.482 22.0548 15.4527 22.0548C15.1809 22.5386 15.3748 22.9102 15.577 23.2976C15.7485 23.6264 15.926 23.9666 15.83 24.3964L16.2068 24.78L16.123 24.8227L16.2486 24.9079L16.3742 24.7802L18.426 24.8229C18.6077 25.1303 18.3718 25.3094 18.1298 25.4932C17.8689 25.6912 17.6009 25.8947 17.8398 26.2702C18.0471 26.5111 18.317 26.6031 18.5907 26.6964C18.7042 26.735 18.8183 26.7739 18.9289 26.8237C19.1379 27.4202 19.4314 27.9735 19.9338 28.4419C20.1015 28.6123 19.8918 28.825 19.7242 28.7823C19.3476 28.8247 18.9707 28.6123 18.8031 28.2287C18.7611 27.9735 18.6355 27.7177 18.4258 27.59C18.1328 27.6327 17.798 27.59 17.6304 27.3348C17.167 27.5396 16.8393 27.311 16.5355 27.099C16.2076 26.8703 15.9074 26.6609 15.4943 27.0367C15.0336 27.2498 14.8242 26.6963 14.6988 26.3554C14.6988 26.0577 14.4474 25.8446 14.1959 25.6742C13.8611 25.5462 13.6097 25.8871 13.5263 26.1002C13.4316 27.352 13.4797 28.6763 13.5271 29.982C13.5426 30.4083 13.558 30.8325 13.5683 31.2516C13.5683 33.8062 15.2013 36.1903 17.4207 37.1272L17.6304 37.2971C16.9903 37.5142 16.3285 37.4549 15.6616 37.3951C15.0194 37.3376 14.3724 37.2796 13.7355 37.4676C13.1755 37.161 12.5934 37.26 12.0118 37.3588C11.4627 37.4522 10.9142 37.5454 10.3853 37.2971C10.0136 37.2971 9.65092 37.3623 9.28882 37.4274C8.8761 37.5015 8.46412 37.5755 8.04028 37.5528V37.4676C10.4271 36.2755 12.563 34.0193 12.4792 31.1664C12.6886 29.8896 12.8562 28.3991 12.3535 27.2071C12.2697 27.0794 12.1441 27.0367 12.0185 27.0794C11.87 27.2471 11.7605 27.4346 11.6516 27.6212C11.4841 27.9082 11.318 28.1928 11.0134 28.3994C10.8686 28.4116 10.7168 28.3885 10.567 28.3657C10.1973 28.3093 9.84015 28.2549 9.63143 28.7398C9.41358 28.8002 9.27066 28.6701 9.13622 28.5478C8.98639 28.4115 8.84708 28.2847 8.62632 28.4419C8.02406 28.7862 7.82769 29.4057 7.64205 29.9914C7.62114 30.0573 7.60038 30.1228 7.57918 30.1875C7.40906 30.1875 7.39421 30.0583 7.37888 29.925C7.3678 29.8287 7.35647 29.7302 7.28616 29.6766C7.07673 28.4846 7.87242 27.6329 8.62632 26.8665C8.75474 26.8292 8.89522 26.8022 9.03851 26.7746C9.54935 26.6763 10.0959 26.5711 10.2595 25.9725C10.3013 25.7594 10.0501 25.589 9.92445 25.5042C9.7815 25.486 9.66902 25.553 9.55777 25.6194C9.40828 25.7085 9.261 25.7964 9.04495 25.6742C9.01312 25.0938 9.48595 24.9287 9.93554 24.7716C10.0796 24.7213 10.2212 24.6718 10.3431 24.6098C10.3431 24.126 10.7065 23.8621 11.048 23.6142C11.4576 23.3167 11.8356 23.0423 11.5158 22.4386L11.5141 22.4399C11.1796 22.6946 10.845 22.9496 10.3851 23.0346C9.86734 22.6083 9.48016 22.8907 9.08684 23.1777C8.81222 23.378 8.53461 23.5805 8.20746 23.5454C7.93448 23.5801 7.80053 23.3886 7.66961 23.2014C7.63984 23.1588 7.61023 23.1165 7.57918 23.0771C7.65644 22.6256 8.05394 22.5812 8.42727 22.5395C8.86396 22.4908 9.26759 22.4457 9.08697 21.7571C9.06789 21.7312 9.04784 21.7024 9.02667 21.672C8.9085 21.502 8.75556 21.2821 8.5425 21.2458C8.20746 21.4163 7.83063 21.5015 7.45379 21.4163C7.35105 21.3814 7.36021 21.2617 7.36703 21.1725C7.36856 21.1525 7.36998 21.134 7.36998 21.1184C7.8344 21.2126 8.16145 20.9114 8.4697 20.6275C8.57831 20.5275 8.68459 20.4296 8.79372 20.3519C8.96163 20.3092 9.14468 20.2768 9.33176 20.2437C10.0778 20.1115 10.8877 19.9681 11.0552 19.1171C11.0395 19.0694 11.0415 19.0098 11.0434 18.9493C11.0467 18.8482 11.05 18.7448 10.9714 18.6915C10.7497 18.8128 10.4655 18.7788 10.181 18.7448C9.76695 18.6953 9.35225 18.6457 9.12876 19.0746C9.27694 18.4422 9.84434 18.2359 10.4009 18.0336C10.631 17.9499 10.8592 17.867 11.0552 17.7549C11.306 17.6274 11.2864 17.393 11.2663 17.1523C11.2528 16.9911 11.2391 16.8269 11.3064 16.6903C11.3467 16.5809 11.4087 16.4715 11.4715 16.3607C11.6041 16.1265 11.7404 15.886 11.6835 15.6259C11.347 15.9679 10.9171 15.9106 10.491 15.8539C10.0152 15.7906 9.54401 15.7278 9.21258 16.2219C9.06708 16.7078 8.77731 16.6381 8.49154 16.5694C8.20135 16.4996 7.91529 16.4308 7.78861 16.9457C7.45357 16.7753 7.57918 16.2219 7.663 15.9238C7.94439 15.1974 8.55046 14.9945 9.15708 14.7915C9.72373 14.6018 10.2909 14.412 10.5943 13.7951C10.9293 13.5822 11.2646 13.3265 11.3902 12.9434C11.4738 12.5603 11.2226 12.2197 10.9293 12.0493C10.6157 12.1101 10.2807 12.0462 9.95092 11.9834C9.35638 11.8701 8.77901 11.76 8.37487 12.3899L8.24926 12.3474C8.16544 12.0068 8.45868 11.6237 8.79372 11.4532C9.13634 11.4715 9.32369 11.2137 9.49944 10.9719C9.73197 10.6519 9.94421 10.3598 10.4689 10.772C10.5565 10.5344 10.7661 10.566 10.9418 10.5925C11.0182 10.604 11.0882 10.6145 11.139 10.6016C11.2445 10.525 11.3012 10.3878 11.3559 10.2554C11.4533 10.0198 11.5443 9.79938 11.8929 9.96304C11.8929 10.0281 11.9416 10.0186 11.9833 10.0104C11.9963 10.0079 12.0086 10.0055 12.0185 10.0055C12.2699 9.79284 12.1861 9.4095 12.1023 9.15409C11.957 8.95695 11.93 8.70916 11.9036 8.4669C11.8615 8.08116 11.821 7.70946 11.3066 7.57868C11.0786 7.45222 10.8813 7.5971 10.6945 7.73428C10.504 7.87417 10.3244 8.00607 10.1341 7.83409C10.167 7.61703 10.3094 7.41958 10.4451 7.23149C10.6553 6.94013 10.8493 6.67122 10.5948 6.38662C10.6497 6.12586 10.881 6.04437 11.0993 5.96748C11.38 5.8686 11.6392 5.7773 11.4743 5.32226C11.3975 5.08808 11.1535 5.05075 10.9359 5.01746C10.6789 4.97814 10.4587 4.94445 10.5948 4.59852C10.7252 4.56787 10.8677 4.54945 11.0106 4.53097C11.4644 4.47232 11.9232 4.413 12.0187 3.95977C11.7368 3.45812 11.9559 3.09042 12.1803 2.71385C12.3558 2.41938 12.5345 2.11947 12.4794 1.74583C12.5003 1.72452 12.5187 1.69787 12.537 1.67123Z" fill="#4B4C4B"/>
</svg>
