<svg xmlns="http://www.w3.org/2000/svg" xmlns:xlink="http://www.w3.org/1999/xlink" width="120" zoomAndPan="magnify" viewBox="0 0 90 89.999999" height="120" preserveAspectRatio="xMidYMid meet" version="1.0"><defs><clipPath id="187534712e"><path d="M 9 8.5 L 78 8.5 L 78 79 L 9 79 Z M 9 8.5 " clip-rule="nonzero"/></clipPath></defs><g clip-path="url(#187534712e)"><path fill="#ffffff" d="M 72.003906 15.570312 L 66.714844 15.570312 L 67.183594 14.515625 C 67.375 14.085938 67.28125 13.585938 66.949219 13.253906 L 64.769531 11.074219 C 64.4375 10.742188 63.9375 10.648438 63.507812 10.839844 L 62.1875 11.425781 C 61.53125 11.070312 60.839844 10.785156 60.128906 10.574219 L 59.609375 9.226562 C 59.441406 8.785156 59.019531 8.5 58.550781 8.5 L 55.46875 8.5 C 55 8.5 54.582031 8.785156 54.410156 9.222656 L 53.894531 10.574219 C 53.179688 10.785156 52.488281 11.070312 51.832031 11.425781 L 50.511719 10.839844 C 50.082031 10.648438 49.582031 10.742188 49.25 11.074219 L 47.070312 13.253906 C 46.738281 13.585938 46.648438 14.085938 46.835938 14.515625 L 47.304688 15.570312 L 43.785156 15.570312 L 43.785156 13.246094 C 43.785156 11.230469 42.144531 9.59375 40.128906 9.59375 L 39.121094 9.59375 C 37.109375 9.59375 35.46875 11.230469 35.46875 13.246094 L 35.46875 15.570312 L 15.296875 15.570312 C 11.832031 15.570312 9.011719 18.390625 9.011719 21.855469 L 9.011719 57.296875 C 9.011719 60.761719 11.832031 63.582031 15.296875 63.582031 L 31.988281 63.582031 L 31.988281 69.5 L 25.28125 69.5 C 22.230469 69.5 19.753906 71.582031 19.753906 74.144531 L 19.753906 77.652344 C 19.753906 78.28125 20.261719 78.789062 20.886719 78.789062 L 66.417969 78.789062 C 67.042969 78.789062 67.550781 78.28125 67.550781 77.652344 L 67.550781 74.144531 C 67.550781 71.582031 65.070312 69.5 62.023438 69.5 L 55.316406 69.5 L 55.316406 63.582031 L 72.003906 63.582031 C 75.472656 63.582031 78.289062 60.761719 78.289062 57.296875 L 78.289062 21.855469 C 78.289062 18.390625 75.472656 15.570312 72.003906 15.570312 Z M 48.617188 19.007812 C 48.828125 18.121094 49.179688 17.277344 49.660156 16.496094 C 49.855469 16.179688 49.882812 15.785156 49.730469 15.441406 L 49.226562 14.304688 L 50.304688 13.226562 L 51.441406 13.734375 C 51.78125 13.882812 52.175781 13.859375 52.492188 13.664062 C 53.273438 13.183594 54.117188 12.832031 55.007812 12.621094 C 55.371094 12.535156 55.667969 12.273438 55.800781 11.925781 L 56.25 10.765625 L 57.773438 10.765625 L 58.21875 11.925781 C 58.351562 12.273438 58.648438 12.535156 59.015625 12.621094 C 59.902344 12.832031 60.746094 13.183594 61.527344 13.664062 C 61.84375 13.859375 62.238281 13.886719 62.582031 13.734375 L 63.71875 13.226562 L 64.796875 14.304688 L 64.289062 15.441406 C 64.136719 15.785156 64.164062 16.179688 64.359375 16.496094 C 64.839844 17.277344 65.191406 18.121094 65.402344 19.007812 C 65.488281 19.371094 65.75 19.671875 66.097656 19.804688 L 67.257812 20.25 L 67.257812 21.773438 L 66.097656 22.222656 C 65.75 22.355469 65.488281 22.652344 65.402344 23.015625 C 65.191406 23.90625 64.839844 24.75 64.359375 25.527344 C 64.164062 25.847656 64.140625 26.242188 64.289062 26.582031 L 64.796875 27.71875 L 63.71875 28.796875 L 62.582031 28.292969 C 62.238281 28.140625 61.84375 28.167969 61.527344 28.363281 C 60.746094 28.84375 59.902344 29.195312 59.015625 29.40625 C 58.652344 29.492188 58.351562 29.75 58.21875 30.101562 L 57.773438 31.261719 L 56.25 31.261719 L 55.800781 30.101562 C 55.667969 29.753906 55.371094 29.492188 55.007812 29.40625 C 54.117188 29.195312 53.273438 28.84375 52.492188 28.363281 C 52.175781 28.167969 51.78125 28.140625 51.4375 28.292969 L 50.304688 28.796875 L 49.226562 27.71875 L 49.730469 26.582031 C 49.882812 26.242188 49.855469 25.847656 49.660156 25.527344 C 49.179688 24.75 48.828125 23.902344 48.617188 23.015625 C 48.53125 22.652344 48.273438 22.355469 47.921875 22.222656 L 46.761719 21.773438 L 46.761719 20.25 L 47.921875 19.804688 C 48.269531 19.671875 48.53125 19.371094 48.617188 19.007812 Z M 35.621094 39.414062 L 38.644531 44.652344 C 38.847656 45.003906 39.222656 45.21875 39.625 45.21875 C 40.03125 45.21875 40.40625 45.003906 40.609375 44.652344 L 43.632812 39.414062 C 43.730469 39.242188 43.785156 39.046875 43.785156 38.847656 L 43.785156 22.148438 L 44.496094 22.148438 L 44.496094 22.554688 C 44.496094 23.023438 44.785156 23.441406 45.222656 23.609375 L 46.570312 24.128906 C 46.78125 24.84375 47.070312 25.535156 47.421875 26.191406 L 46.835938 27.511719 C 46.648438 27.941406 46.738281 28.441406 47.070312 28.773438 L 49.25 30.953125 C 49.582031 31.28125 50.082031 31.375 50.511719 31.1875 L 51.832031 30.597656 C 52.488281 30.953125 53.179688 31.242188 53.894531 31.453125 L 54.410156 32.800781 C 54.578125 33.238281 55 33.527344 55.46875 33.527344 L 58.550781 33.527344 C 59.019531 33.527344 59.441406 33.238281 59.609375 32.800781 L 60.125 31.453125 C 60.839844 31.238281 61.53125 30.953125 62.1875 30.597656 L 63.507812 31.1875 C 63.9375 31.375 64.4375 31.28125 64.769531 30.953125 L 66.949219 28.773438 C 67.28125 28.441406 67.375 27.941406 67.183594 27.511719 L 66.597656 26.191406 C 66.953125 25.535156 67.238281 24.84375 67.449219 24.128906 L 68.796875 23.609375 C 69.234375 23.441406 69.523438 23.023438 69.523438 22.554688 L 69.523438 22.148438 L 71.714844 22.148438 L 71.714844 52.636719 L 15.585938 52.636719 L 15.585938 22.148438 L 35.46875 22.148438 L 35.46875 38.847656 C 35.46875 39.046875 35.519531 39.242188 35.621094 39.414062 Z M 38.566406 39.980469 L 40.6875 39.980469 L 39.625 41.816406 Z M 46.589844 17.839844 C 46.582031 17.859375 46.574219 17.875 46.570312 17.894531 L 45.222656 18.414062 C 44.785156 18.582031 44.496094 19.003906 44.496094 19.472656 L 44.496094 19.878906 L 43.785156 19.878906 L 43.785156 17.839844 Z M 39.121094 11.859375 L 40.128906 11.859375 C 40.894531 11.859375 41.515625 12.480469 41.515625 13.246094 L 41.515625 37.714844 L 37.734375 37.714844 L 37.734375 13.246094 C 37.734375 12.480469 38.359375 11.859375 39.121094 11.859375 Z M 65.28125 74.144531 L 65.28125 76.519531 L 22.019531 76.519531 L 22.019531 74.144531 C 22.019531 72.855469 23.511719 71.765625 25.28125 71.765625 L 62.023438 71.765625 C 63.789062 71.765625 65.28125 72.855469 65.28125 74.144531 Z M 53.046875 69.5 L 34.253906 69.5 L 34.253906 63.582031 L 53.046875 63.582031 Z M 76.023438 57.296875 C 76.023438 59.511719 74.222656 61.316406 72.003906 61.316406 L 15.296875 61.316406 C 13.082031 61.316406 11.277344 59.511719 11.277344 57.296875 L 11.277344 21.855469 C 11.277344 19.640625 13.082031 17.839844 15.296875 17.839844 L 35.46875 17.839844 L 35.46875 19.878906 L 15.167969 19.878906 C 14.148438 19.878906 13.320312 20.707031 13.320312 21.726562 L 13.320312 53.769531 C 13.320312 54.398438 13.828125 54.90625 14.453125 54.90625 L 72.847656 54.90625 C 73.476562 54.90625 73.984375 54.398438 73.984375 53.769531 L 73.984375 21.726562 C 73.984375 20.707031 73.152344 19.878906 72.132812 19.878906 L 69.523438 19.878906 L 69.523438 19.472656 C 69.523438 19.003906 69.234375 18.582031 68.796875 18.414062 L 67.449219 17.894531 C 67.445312 17.875 67.4375 17.859375 67.433594 17.839844 L 72.003906 17.839844 C 74.21875 17.839844 76.023438 19.640625 76.023438 21.855469 Z M 57.011719 27.519531 C 60.597656 27.519531 63.515625 24.601562 63.515625 21.011719 C 63.515625 17.425781 60.597656 14.507812 57.011719 14.507812 C 53.421875 14.507812 50.503906 17.425781 50.503906 21.011719 C 50.503906 24.601562 53.421875 27.519531 57.011719 27.519531 Z M 57.011719 16.773438 C 59.347656 16.773438 61.25 18.675781 61.25 21.011719 C 61.25 23.351562 59.347656 25.25 57.011719 25.25 C 54.671875 25.25 52.769531 23.351562 52.769531 21.011719 C 52.769531 18.675781 54.671875 16.773438 57.011719 16.773438 Z M 55.148438 48.644531 L 58.066406 37.75 C 58.226562 37.144531 58.851562 36.785156 59.453125 36.945312 C 60.058594 37.109375 60.417969 37.730469 60.257812 38.335938 L 57.335938 49.230469 C 57.203125 49.738281 56.742188 50.070312 56.242188 50.070312 C 56.144531 50.070312 56.046875 50.058594 55.949219 50.03125 C 55.34375 49.871094 54.984375 49.25 55.148438 48.644531 Z M 47.492188 43.488281 C 47.492188 43.15625 47.640625 42.839844 47.898438 42.625 L 52.652344 38.613281 C 53.132812 38.210938 53.847656 38.273438 54.25 38.75 C 54.65625 39.230469 54.59375 39.945312 54.113281 40.347656 L 50.386719 43.488281 L 54.113281 46.632812 C 54.59375 47.035156 54.65625 47.75 54.25 48.230469 C 54.027344 48.496094 53.707031 48.632812 53.382812 48.632812 C 53.125 48.632812 52.867188 48.542969 52.652344 48.367188 L 47.898438 44.355469 C 47.640625 44.140625 47.492188 43.824219 47.492188 43.488281 Z M 61.289062 46.632812 L 65.015625 43.488281 L 61.289062 40.347656 C 60.808594 39.945312 60.75 39.230469 61.152344 38.75 C 61.554688 38.273438 62.269531 38.210938 62.75 38.613281 L 67.507812 42.625 C 67.761719 42.839844 67.910156 43.15625 67.910156 43.488281 C 67.910156 43.824219 67.761719 44.140625 67.507812 44.355469 L 62.75 48.367188 C 62.535156 48.542969 62.277344 48.632812 62.019531 48.632812 C 61.695312 48.632812 61.375 48.496094 61.152344 48.230469 C 60.75 47.75 60.808594 47.035156 61.289062 46.632812 Z M 19.433594 47.5625 L 43.039062 47.5625 C 43.664062 47.5625 44.171875 48.070312 44.171875 48.695312 C 44.171875 49.320312 43.664062 49.828125 43.039062 49.828125 L 19.433594 49.828125 C 18.808594 49.828125 18.300781 49.320312 18.300781 48.695312 C 18.300781 48.070312 18.808594 47.5625 19.433594 47.5625 Z M 18.222656 39.550781 C 18.222656 38.925781 18.730469 38.417969 19.355469 38.417969 L 31.621094 38.417969 C 32.246094 38.417969 32.753906 38.925781 32.753906 39.550781 C 32.753906 40.175781 32.246094 40.683594 31.621094 40.683594 L 19.355469 40.683594 C 18.726562 40.683594 18.222656 40.175781 18.222656 39.550781 Z M 18.261719 44.121094 C 18.261719 43.496094 18.769531 42.988281 19.394531 42.988281 L 31.660156 42.988281 C 32.285156 42.988281 32.792969 43.496094 32.792969 44.121094 C 32.792969 44.75 32.285156 45.257812 31.660156 45.257812 L 19.394531 45.257812 C 18.769531 45.257812 18.261719 44.75 18.261719 44.121094 Z M 18.300781 25.835938 C 18.300781 25.210938 18.808594 24.703125 19.433594 24.703125 L 31.699219 24.703125 C 32.328125 24.703125 32.835938 25.210938 32.835938 25.835938 C 32.835938 26.460938 32.328125 26.96875 31.699219 26.96875 L 19.433594 26.96875 C 18.808594 26.96875 18.300781 26.460938 18.300781 25.835938 Z M 18.261719 30.40625 C 18.261719 29.78125 18.769531 29.273438 19.394531 29.273438 L 31.660156 29.273438 C 32.285156 29.273438 32.792969 29.78125 32.792969 30.40625 C 32.792969 31.035156 32.285156 31.542969 31.660156 31.542969 L 19.394531 31.542969 C 18.769531 31.542969 18.261719 31.035156 18.261719 30.40625 Z M 18.222656 34.980469 C 18.222656 34.351562 18.730469 33.84375 19.355469 33.84375 L 31.621094 33.84375 C 32.246094 33.84375 32.753906 34.351562 32.753906 34.980469 C 32.753906 35.605469 32.246094 36.113281 31.621094 36.113281 L 19.355469 36.113281 C 18.726562 36.113281 18.222656 35.605469 18.222656 34.980469 Z M 18.222656 34.980469 " fill-opacity="1" fill-rule="nonzero"/></g></svg>