<svg xmlns="http://www.w3.org/2000/svg" xmlns:xlink="http://www.w3.org/1999/xlink" width="120" zoomAndPan="magnify" viewBox="0 0 90 89.999999" height="120" preserveAspectRatio="xMidYMid meet" version="1.0"><defs><clipPath id="601158c5cd"><path d="M 33 68 L 58 68 L 58 74.089844 L 33 74.089844 Z M 33 68 " clip-rule="nonzero"/></clipPath><clipPath id="ecedef547d"><path d="M 53 15.589844 L 81.75 15.589844 L 81.75 40 L 53 40 Z M 53 15.589844 " clip-rule="nonzero"/></clipPath><clipPath id="b915d2bf76"><path d="M 9 15.589844 L 37 15.589844 L 37 40 L 9 40 Z M 9 15.589844 " clip-rule="nonzero"/></clipPath></defs><path fill="#ffffff" d="M 38.144531 21.496094 L 52.242188 21.496094 L 52.242188 25.117188 L 38.144531 25.117188 Z M 38.144531 21.496094 " fill-opacity="1" fill-rule="nonzero"/><path fill="#ffffff" d="M 69.84375 54.453125 L 20.542969 54.453125 L 20.542969 37.464844 L 16.921875 37.464844 L 16.921875 63.265625 C 16.921875 65.273438 18.539062 66.886719 20.542969 66.886719 L 69.84375 66.886719 C 71.847656 66.886719 73.464844 65.273438 73.464844 63.265625 L 73.464844 37.464844 L 69.84375 37.464844 Z M 45.191406 65.496094 C 43.53125 65.496094 42.171875 64.148438 42.171875 62.472656 C 42.171875 60.8125 43.53125 59.464844 45.191406 59.464844 C 46.855469 59.464844 48.214844 60.8125 48.214844 62.472656 C 48.214844 64.148438 46.855469 65.496094 45.191406 65.496094 Z M 45.191406 65.496094 " fill-opacity="1" fill-rule="nonzero"/><g clip-path="url(#601158c5cd)"><path fill="#ffffff" d="M 38.355469 68.386719 L 33.011719 72.425781 L 33.011719 74.328125 L 57.375 74.328125 L 57.375 72.425781 L 52.03125 68.386719 Z M 38.355469 68.386719 " fill-opacity="1" fill-rule="nonzero"/></g><path fill="#ffffff" d="M 39.25 45.726562 C 38.398438 46.175781 37.621094 46.730469 36.886719 47.371094 C 35.210938 45.53125 34.132812 43.152344 33.96875 40.519531 C 32.59375 39.503906 32.335938 39.316406 32.488281 39.425781 C 32.472656 39.546875 32.472656 39.664062 32.472656 39.800781 C 32.472656 46.804688 38.1875 52.507812 45.191406 52.507812 C 52.199219 52.507812 57.914062 46.804688 57.914062 39.800781 C 57.914062 39.664062 57.914062 39.53125 57.898438 39.410156 C 57.746094 39.523438 55.570312 41.152344 56.417969 40.519531 C 56.253906 43.136719 55.191406 45.53125 53.515625 47.359375 C 52.78125 46.730469 51.988281 46.160156 51.148438 45.710938 C 51.570312 44.15625 51.824219 42.390625 51.882812 40.519531 L 53.542969 40.519531 C 52.976562 40.203125 52.554688 39.695312 52.363281 39.066406 L 51.882812 39.066406 C 51.824219 37.179688 51.570312 35.414062 51.148438 33.859375 C 51.523438 33.664062 51.882812 33.4375 52.242188 33.199219 L 52.242188 31.390625 C 51.761719 31.777344 51.238281 32.136719 50.699219 32.4375 C 50.222656 31.148438 49.625 30.027344 48.917969 29.160156 C 50.117188 29.578125 51.253906 30.207031 52.242188 31.03125 L 52.242188 29.1875 C 50.175781 27.8125 47.738281 27.0625 45.191406 27.0625 C 42.632812 27.0625 40.210938 27.8125 38.144531 29.203125 L 38.144531 31.03125 C 39.148438 30.207031 40.269531 29.578125 41.480469 29.160156 C 40.777344 30.027344 40.179688 31.148438 39.699219 32.4375 C 39.148438 32.136719 38.625 31.777344 38.144531 31.375 L 38.144531 33.183594 C 38.503906 33.4375 38.863281 33.664062 39.25 33.859375 C 38.816406 35.414062 38.5625 37.179688 38.519531 39.066406 L 38.023438 39.066406 C 37.832031 39.695312 37.410156 40.203125 36.84375 40.519531 L 38.519531 40.519531 C 38.5625 42.390625 38.816406 44.15625 39.25 45.726562 Z M 52.46875 48.375 C 51.433594 49.257812 50.238281 49.945312 48.917969 50.410156 C 49.625 49.542969 50.222656 48.421875 50.699219 47.132812 C 51.328125 47.476562 51.914062 47.894531 52.46875 48.375 Z M 45.925781 28.648438 C 47.320312 29.085938 48.546875 30.730469 49.382812 33.082031 C 48.292969 33.515625 47.125 33.769531 45.925781 33.84375 Z M 45.925781 35.296875 C 47.273438 35.21875 48.574219 34.949219 49.804688 34.457031 C 50.164062 35.847656 50.386719 37.421875 50.429688 39.066406 L 45.925781 39.066406 Z M 45.925781 40.519531 L 50.429688 40.519531 C 50.386719 42.148438 50.160156 43.722656 49.804688 45.097656 C 48.574219 44.617188 47.273438 44.351562 45.925781 44.273438 Z M 45.925781 45.726562 C 47.125 45.800781 48.292969 46.054688 49.382812 46.488281 C 48.5625 48.839844 47.320312 50.5 45.925781 50.933594 Z M 44.476562 50.933594 C 43.082031 50.5 41.839844 48.839844 41.019531 46.488281 C 42.109375 46.054688 43.277344 45.800781 44.476562 45.726562 Z M 44.476562 28.648438 L 44.476562 33.84375 C 43.277344 33.769531 42.109375 33.515625 41.019531 33.082031 C 41.839844 30.730469 43.082031 29.085938 44.476562 28.648438 Z M 40.582031 34.472656 C 41.8125 34.949219 43.128906 35.21875 44.476562 35.296875 L 44.476562 39.066406 L 39.957031 39.066406 C 40.015625 37.421875 40.226562 35.863281 40.582031 34.472656 Z M 44.476562 40.519531 L 44.476562 44.273438 C 43.128906 44.351562 41.824219 44.632812 40.582031 45.113281 C 40.226562 43.722656 40.015625 42.148438 39.957031 40.519531 Z M 39.699219 47.132812 C 40.179688 48.433594 40.777344 49.542969 41.46875 50.410156 C 40.164062 49.945312 38.96875 49.257812 37.921875 48.390625 C 38.472656 47.910156 39.070312 47.492188 39.699219 47.132812 Z M 39.699219 47.132812 " fill-opacity="1" fill-rule="nonzero"/><path fill="#ffffff" d="M 71.457031 29.523438 L 73.574219 29.523438 L 74.371094 26.101562 L 71.457031 26.101562 Z M 71.457031 29.523438 " fill-opacity="1" fill-rule="nonzero"/><g clip-path="url(#ecedef547d)"><path fill="#ffffff" d="M 79.035156 15.519531 L 55.808594 15.519531 C 54.664062 15.519531 53.734375 16.445312 53.734375 17.59375 L 53.734375 38.320312 C 53.734375 39.121094 54.601562 39.617188 55.292969 39.214844 L 60.851562 35.972656 L 79.035156 35.972656 C 80.183594 35.972656 81.113281 35.042969 81.113281 33.898438 L 81.113281 17.59375 C 81.113281 16.445312 80.183594 15.519531 79.035156 15.519531 Z M 65.351562 33.230469 C 64.5 33.230469 63.796875 32.527344 63.796875 31.671875 C 63.796875 31.238281 63.976562 30.851562 64.261719 30.566406 L 66.460938 30.566406 C 66.746094 30.851562 66.925781 31.238281 66.925781 31.671875 C 66.925781 32.527344 66.21875 33.230469 65.351562 33.230469 Z M 72.042969 33.230469 C 71.1875 33.230469 70.484375 32.527344 70.484375 31.671875 C 70.484375 31.238281 70.664062 30.851562 70.949219 30.566406 L 73.148438 30.566406 C 73.433594 30.851562 73.613281 31.238281 73.613281 31.671875 C 73.613281 32.527344 72.910156 33.230469 72.042969 33.230469 Z M 76.574219 21.234375 L 74.496094 30.160156 C 74.441406 30.394531 74.230469 30.5625 73.988281 30.5625 L 63.339844 30.5625 C 63.28125 30.5625 63.222656 30.554688 63.167969 30.535156 C 63.136719 30.523438 63.113281 30.503906 63.085938 30.488281 C 63.0625 30.476562 63.039062 30.46875 63.019531 30.453125 C 62.992188 30.429688 62.972656 30.402344 62.949219 30.375 C 62.933594 30.359375 62.914062 30.34375 62.902344 30.324219 C 62.878906 30.289062 62.867188 30.25 62.851562 30.207031 C 62.847656 30.191406 62.835938 30.179688 62.832031 30.160156 L 60.382812 19.707031 C 60.328125 19.46875 60.121094 19.304688 59.878906 19.304688 L 58.777344 19.304688 C 58.488281 19.304688 58.257812 19.070312 58.257812 18.78125 C 58.257812 18.496094 58.488281 18.261719 58.777344 18.261719 L 59.878906 18.261719 C 60.609375 18.261719 61.234375 18.757812 61.398438 19.46875 L 61.660156 20.597656 L 76.066406 20.597656 C 76.226562 20.597656 76.378906 20.667969 76.476562 20.792969 C 76.574219 20.917969 76.609375 21.078125 76.574219 21.234375 Z M 76.574219 21.234375 " fill-opacity="1" fill-rule="nonzero"/></g><path fill="#ffffff" d="M 71.457031 25.058594 L 74.613281 25.058594 L 75.414062 21.636719 L 71.457031 21.636719 Z M 71.457031 25.058594 " fill-opacity="1" fill-rule="nonzero"/><path fill="#ffffff" d="M 62.710938 25.058594 L 65.871094 25.058594 L 65.871094 21.636719 L 61.914062 21.636719 Z M 62.710938 25.058594 " fill-opacity="1" fill-rule="nonzero"/><path fill="#ffffff" d="M 66.910156 21.636719 L 70.417969 21.636719 L 70.417969 25.0625 L 66.910156 25.0625 Z M 66.910156 21.636719 " fill-opacity="1" fill-rule="nonzero"/><path fill="#ffffff" d="M 63.675781 29.191406 L 63.753906 29.523438 L 65.871094 29.523438 L 65.871094 26.101562 L 62.953125 26.101562 Z M 63.675781 29.191406 " fill-opacity="1" fill-rule="nonzero"/><path fill="#ffffff" d="M 66.910156 26.097656 L 70.417969 26.097656 L 70.417969 29.523438 L 66.910156 29.523438 Z M 66.910156 26.097656 " fill-opacity="1" fill-rule="nonzero"/><g clip-path="url(#b915d2bf76)"><path fill="#ffffff" d="M 35.089844 39.214844 C 35.78125 39.621094 36.648438 39.125 36.648438 38.316406 L 36.648438 17.589844 C 36.648438 16.453125 35.71875 15.523438 34.582031 15.523438 L 11.355469 15.523438 C 10.203125 15.523438 9.273438 16.453125 9.273438 17.589844 L 9.273438 33.902344 C 9.273438 35.039062 10.203125 35.96875 11.355469 35.96875 L 29.539062 35.96875 Z M 10.996094 31.628906 L 10.996094 19.867188 C 10.996094 18.5625 12.058594 17.515625 13.34375 17.515625 L 32.578125 17.515625 C 33.863281 17.515625 34.925781 18.5625 34.925781 19.867188 L 34.925781 31.628906 C 34.925781 32.914062 33.863281 33.976562 32.578125 33.976562 L 13.34375 33.976562 C 12.058594 33.976562 10.996094 32.914062 10.996094 31.628906 Z M 10.996094 31.628906 " fill-opacity="1" fill-rule="nonzero"/></g><path fill="#ffffff" d="M 33.429688 19.867188 C 33.429688 19.386719 33.039062 19.011719 32.578125 19.011719 L 13.34375 19.011719 C 12.882812 19.011719 12.492188 19.386719 12.492188 19.867188 L 12.492188 20.71875 L 33.429688 20.71875 Z M 33.429688 19.867188 " fill-opacity="1" fill-rule="nonzero"/><path fill="#ffffff" d="M 12.496094 22.214844 L 33.429688 22.214844 L 33.429688 24.101562 L 12.496094 24.101562 Z M 12.496094 22.214844 " fill-opacity="1" fill-rule="nonzero"/><path fill="#ffffff" d="M 33.429688 31.628906 L 33.429688 25.597656 L 12.492188 25.597656 L 12.492188 31.628906 C 12.492188 32.09375 12.882812 32.480469 13.34375 32.480469 L 32.578125 32.480469 C 33.039062 32.480469 33.429688 32.09375 33.429688 31.628906 Z M 20.019531 29.613281 L 16.539062 29.613281 L 16.539062 28.332031 L 20.019531 28.332031 Z M 24.703125 29.613281 L 21.222656 29.613281 L 21.222656 28.332031 L 24.703125 28.332031 Z M 29.386719 29.613281 L 25.90625 29.613281 L 25.90625 28.332031 L 29.386719 28.332031 Z M 29.386719 29.613281 " fill-opacity="1" fill-rule="nonzero"/></svg>