<svg xmlns="http://www.w3.org/2000/svg" xmlns:xlink="http://www.w3.org/1999/xlink" width="120" zoomAndPan="magnify" viewBox="0 0 90 89.999999" height="120" preserveAspectRatio="xMidYMid meet" version="1.0"><defs><clipPath id="85c3dc2b79"><path d="M 27 20 L 63 20 L 63 84.75 L 27 84.75 Z M 27 20 " clip-rule="nonzero"/></clipPath><clipPath id="4d2077cce7"><path d="M 11.886719 9 L 77.886719 9 L 77.886719 47 L 11.886719 47 Z M 11.886719 9 " clip-rule="nonzero"/></clipPath></defs><g clip-path="url(#85c3dc2b79)"><path fill="#ffffff" d="M 43.0625 48.109375 C 43.328125 48.03125 43.460938 47.851562 43.464844 47.574219 L 43.464844 21.117188 C 43.464844 20.9375 43.402344 20.785156 43.277344 20.660156 C 43.148438 20.535156 43 20.472656 42.820312 20.472656 L 42.117188 20.472656 C 41.734375 20.472656 41.472656 20.648438 41.328125 21.003906 L 27.519531 54.507812 C 27.21875 55.242188 27.199219 55.980469 27.464844 56.726562 L 31.351562 67.648438 L 30.15625 67.648438 C 30 67.648438 29.851562 67.679688 29.707031 67.738281 C 29.566406 67.796875 29.4375 67.882812 29.328125 67.992188 C 29.21875 68.101562 29.136719 68.226562 29.078125 68.371094 C 29.015625 68.511719 28.988281 68.660156 28.988281 68.816406 L 28.988281 73.566406 C 28.988281 73.71875 29.015625 73.867188 29.078125 74.011719 C 29.136719 74.15625 29.21875 74.28125 29.328125 74.390625 C 29.4375 74.5 29.566406 74.585938 29.707031 74.644531 C 29.851562 74.703125 30 74.734375 30.15625 74.734375 L 31 74.734375 L 31 83.5 C 31 83.65625 31.03125 83.808594 31.089844 83.953125 C 31.148438 84.097656 31.234375 84.222656 31.34375 84.335938 C 31.457031 84.445312 31.582031 84.53125 31.726562 84.589844 C 31.871094 84.648438 32.023438 84.679688 32.179688 84.679688 L 57.722656 84.679688 C 57.878906 84.679688 58.027344 84.648438 58.171875 84.589844 C 58.316406 84.53125 58.445312 84.445312 58.554688 84.335938 C 58.664062 84.222656 58.75 84.097656 58.808594 83.953125 C 58.871094 83.808594 58.898438 83.65625 58.898438 83.5 L 58.898438 76.875 C 58.898438 76.726562 58.847656 76.597656 58.742188 76.492188 C 58.636719 76.386719 58.507812 76.332031 58.355469 76.332031 C 58.207031 76.332031 58.078125 76.386719 57.972656 76.492188 C 57.867188 76.597656 57.816406 76.726562 57.816406 76.875 L 57.816406 83.5 C 57.8125 83.5625 57.785156 83.59375 57.722656 83.59375 L 32.179688 83.59375 C 32.117188 83.59375 32.085938 83.5625 32.085938 83.5 L 32.085938 74.734375 L 59.746094 74.734375 C 59.898438 74.734375 60.050781 74.703125 60.191406 74.644531 C 60.335938 74.585938 60.460938 74.5 60.570312 74.390625 C 60.679688 74.28125 60.765625 74.15625 60.824219 74.011719 C 60.882812 73.867188 60.914062 73.71875 60.914062 73.566406 L 60.914062 68.816406 C 60.914062 68.660156 60.882812 68.511719 60.824219 68.371094 C 60.765625 68.226562 60.679688 68.101562 60.570312 67.992188 C 60.460938 67.882812 60.335938 67.796875 60.191406 67.738281 C 60.050781 67.679688 59.898438 67.648438 59.746094 67.648438 L 58.550781 67.648438 L 62.433594 56.726562 C 62.699219 55.980469 62.683594 55.242188 62.382812 54.507812 L 48.574219 21.003906 C 48.429688 20.648438 48.164062 20.472656 47.78125 20.472656 L 47.078125 20.472656 C 46.902344 20.472656 46.75 20.535156 46.625 20.660156 C 46.5 20.785156 46.4375 20.9375 46.4375 21.117188 L 46.4375 47.574219 C 46.4375 47.851562 46.574219 48.03125 46.839844 48.109375 C 47.554688 48.320312 48.214844 48.644531 48.824219 49.082031 C 49.429688 49.515625 49.945312 50.039062 50.375 50.652344 C 50.804688 51.261719 51.125 51.925781 51.328125 52.644531 C 51.535156 53.363281 51.613281 54.09375 51.574219 54.839844 C 51.394531 58.101562 48.472656 60.96875 45.210938 61.09375 C 44.808594 61.109375 44.410156 61.089844 44.015625 61.03125 C 43.617188 60.976562 43.230469 60.886719 42.847656 60.757812 C 42.46875 60.632812 42.101562 60.472656 41.753906 60.277344 C 41.402344 60.085938 41.070312 59.859375 40.757812 59.609375 C 40.449219 59.355469 40.164062 59.074219 39.902344 58.769531 C 39.644531 58.464844 39.414062 58.140625 39.210938 57.792969 C 39.011719 57.445312 38.84375 57.085938 38.707031 56.707031 C 38.570312 56.332031 38.472656 55.945312 38.40625 55.550781 C 38.339844 55.152344 38.3125 54.753906 38.316406 54.355469 C 38.324219 53.953125 38.367188 53.558594 38.445312 53.164062 C 38.523438 52.769531 38.636719 52.386719 38.785156 52.015625 C 38.933594 51.644531 39.113281 51.289062 39.328125 50.949219 C 39.539062 50.609375 39.78125 50.289062 40.050781 49.996094 C 40.320312 49.699219 40.617188 49.429688 40.933594 49.1875 C 41.253906 48.945312 41.59375 48.730469 41.949219 48.550781 C 42.308594 48.371094 42.679688 48.222656 43.0625 48.109375 Z M 59.828125 68.816406 L 59.828125 73.566406 C 59.828125 73.621094 59.800781 73.648438 59.746094 73.648438 L 30.15625 73.648438 C 30.101562 73.648438 30.074219 73.621094 30.074219 73.566406 L 30.074219 68.816406 C 30.074219 68.761719 30.101562 68.734375 30.15625 68.734375 L 59.746094 68.734375 C 59.800781 68.734375 59.828125 68.761719 59.828125 68.816406 Z M 59.828125 68.816406 " fill-opacity="1" fill-rule="nonzero"/></g><path fill="#ffffff" d="M 34.949219 14.484375 C 33.769531 14.96875 32.632812 15.535156 31.539062 16.183594 C 30.441406 16.835938 29.398438 17.558594 28.410156 18.363281 C 27.417969 19.164062 26.492188 20.03125 25.625 20.96875 C 24.761719 21.902344 23.96875 22.898438 23.25 23.949219 C 22.53125 25 21.890625 26.097656 21.332031 27.242188 C 20.769531 28.382812 20.296875 29.5625 19.90625 30.777344 C 19.515625 31.988281 19.21875 33.222656 19.007812 34.480469 C 18.796875 35.734375 18.679688 37 18.652344 38.273438 L 16.445312 38.273438 C 16.292969 38.273438 16.140625 38.304688 15.996094 38.363281 C 15.855469 38.425781 15.726562 38.507812 15.617188 38.617188 C 15.507812 38.730469 15.421875 38.855469 15.363281 39 C 15.300781 39.144531 15.273438 39.292969 15.273438 39.449219 L 15.273438 44.9375 C 15.273438 45.089844 15.300781 45.242188 15.363281 45.386719 C 15.421875 45.527344 15.507812 45.65625 15.617188 45.765625 C 15.726562 45.875 15.855469 45.960938 15.996094 46.019531 C 16.140625 46.082031 16.292969 46.109375 16.445312 46.109375 L 21.933594 46.109375 C 22.089844 46.109375 22.238281 46.082031 22.382812 46.019531 C 22.527344 45.960938 22.652344 45.875 22.765625 45.765625 C 22.875 45.65625 22.957031 45.527344 23.019531 45.386719 C 23.078125 45.242188 23.109375 45.089844 23.109375 44.9375 L 23.109375 39.449219 C 23.109375 39.292969 23.078125 39.144531 23.019531 39 C 22.957031 38.855469 22.875 38.730469 22.765625 38.617188 C 22.652344 38.507812 22.527344 38.425781 22.382812 38.363281 C 22.238281 38.304688 22.089844 38.273438 21.933594 38.273438 L 19.738281 38.273438 C 19.765625 37.054688 19.878906 35.84375 20.082031 34.640625 C 20.285156 33.4375 20.570312 32.253906 20.945312 31.089844 C 21.320312 29.929688 21.773438 28.800781 22.3125 27.707031 C 22.847656 26.609375 23.464844 25.558594 24.152344 24.550781 C 24.84375 23.546875 25.601562 22.59375 26.429688 21.699219 C 27.257812 20.800781 28.148438 19.96875 29.09375 19.203125 C 30.042969 18.433594 31.042969 17.738281 32.09375 17.117188 C 33.144531 16.496094 34.230469 15.953125 35.359375 15.488281 C 35.5 15.429688 35.597656 15.332031 35.65625 15.195312 C 35.714844 15.054688 35.714844 14.917969 35.65625 14.777344 C 35.597656 14.640625 35.5 14.542969 35.363281 14.484375 C 35.226562 14.425781 35.085938 14.425781 34.949219 14.484375 Z M 21.933594 39.359375 C 21.992188 39.359375 22.023438 39.390625 22.023438 39.449219 L 22.023438 44.9375 C 22.023438 44.996094 21.992188 45.023438 21.933594 45.023438 L 16.445312 45.023438 C 16.386719 45.023438 16.359375 44.996094 16.359375 44.9375 L 16.359375 39.449219 C 16.359375 39.390625 16.386719 39.359375 16.445312 39.359375 Z M 21.933594 39.359375 " fill-opacity="1" fill-rule="nonzero"/><g clip-path="url(#4d2077cce7)"><path fill="#ffffff" d="M 74.085938 9.140625 C 73.613281 9.140625 73.15625 9.222656 72.714844 9.390625 C 72.269531 9.554688 71.871094 9.792969 71.515625 10.101562 C 71.160156 10.414062 70.867188 10.777344 70.644531 11.191406 C 70.417969 11.605469 70.273438 12.046875 70.207031 12.515625 L 48.867188 12.515625 L 48.867188 10.3125 C 48.867188 10.160156 48.839844 10.007812 48.777344 9.863281 C 48.71875 9.722656 48.632812 9.59375 48.523438 9.484375 C 48.414062 9.375 48.285156 9.289062 48.144531 9.230469 C 48 9.167969 47.847656 9.140625 47.695312 9.140625 L 42.207031 9.140625 C 42.050781 9.140625 41.902344 9.167969 41.757812 9.230469 C 41.613281 9.289062 41.488281 9.375 41.375 9.484375 C 41.265625 9.59375 41.183594 9.722656 41.121094 9.863281 C 41.0625 10.007812 41.03125 10.160156 41.03125 10.3125 L 41.03125 12.515625 L 19.695312 12.515625 C 19.648438 12.1875 19.5625 11.875 19.4375 11.570312 C 19.316406 11.265625 19.15625 10.984375 18.957031 10.71875 C 18.761719 10.457031 18.535156 10.222656 18.28125 10.015625 C 18.027344 9.808594 17.75 9.636719 17.449219 9.496094 C 17.152344 9.359375 16.839844 9.261719 16.519531 9.203125 C 16.195312 9.144531 15.871094 9.125 15.542969 9.148438 C 15.214844 9.171875 14.894531 9.234375 14.582031 9.339844 C 14.269531 9.441406 13.976562 9.582031 13.699219 9.757812 C 13.421875 9.9375 13.171875 10.144531 12.949219 10.386719 C 12.726562 10.625 12.535156 10.890625 12.375 11.175781 C 12.21875 11.464844 12.101562 11.769531 12.019531 12.085938 C 11.9375 12.40625 11.894531 12.730469 11.894531 13.058594 C 11.894531 13.386719 11.9375 13.710938 12.019531 14.027344 C 12.101562 14.347656 12.21875 14.648438 12.375 14.9375 C 12.535156 15.226562 12.726562 15.488281 12.949219 15.730469 C 13.171875 15.96875 13.421875 16.179688 13.699219 16.355469 C 13.976562 16.535156 14.269531 16.671875 14.582031 16.777344 C 14.894531 16.878906 15.214844 16.941406 15.542969 16.964844 C 15.871094 16.988281 16.195312 16.972656 16.519531 16.910156 C 16.839844 16.851562 17.152344 16.753906 17.449219 16.617188 C 17.75 16.480469 18.027344 16.308594 18.28125 16.101562 C 18.535156 15.894531 18.761719 15.660156 18.957031 15.394531 C 19.15625 15.132812 19.316406 14.847656 19.4375 14.542969 C 19.5625 14.242188 19.648438 13.925781 19.695312 13.601562 L 41.03125 13.601562 L 41.03125 15.800781 C 41.03125 15.957031 41.0625 16.105469 41.121094 16.25 C 41.183594 16.394531 41.265625 16.519531 41.375 16.632812 C 41.488281 16.742188 41.613281 16.824219 41.757812 16.886719 C 41.902344 16.945312 42.050781 16.976562 42.207031 16.976562 L 47.695312 16.976562 C 47.847656 16.976562 48 16.945312 48.144531 16.886719 C 48.285156 16.824219 48.414062 16.742188 48.523438 16.632812 C 48.632812 16.519531 48.71875 16.394531 48.777344 16.25 C 48.839844 16.105469 48.867188 15.957031 48.867188 15.800781 L 48.867188 13.902344 C 60.875 15.777344 69.898438 26.097656 70.160156 38.273438 L 67.96875 38.273438 C 67.8125 38.273438 67.660156 38.304688 67.515625 38.363281 C 67.375 38.425781 67.246094 38.507812 67.136719 38.617188 C 67.027344 38.730469 66.941406 38.855469 66.882812 39 C 66.824219 39.144531 66.792969 39.292969 66.792969 39.449219 L 66.792969 44.9375 C 66.792969 45.089844 66.824219 45.242188 66.882812 45.386719 C 66.941406 45.527344 67.027344 45.65625 67.136719 45.765625 C 67.246094 45.875 67.375 45.960938 67.515625 46.019531 C 67.660156 46.082031 67.8125 46.109375 67.96875 46.109375 L 73.453125 46.109375 C 73.609375 46.109375 73.757812 46.082031 73.902344 46.019531 C 74.046875 45.960938 74.171875 45.875 74.285156 45.765625 C 74.394531 45.65625 74.480469 45.527344 74.539062 45.386719 C 74.597656 45.242188 74.628906 45.089844 74.628906 44.9375 L 74.628906 39.449219 C 74.628906 39.292969 74.597656 39.144531 74.539062 39 C 74.480469 38.855469 74.394531 38.730469 74.285156 38.617188 C 74.171875 38.507812 74.046875 38.425781 73.902344 38.363281 C 73.757812 38.304688 73.609375 38.273438 73.453125 38.273438 L 71.246094 38.273438 C 71.21875 36.890625 71.082031 35.515625 70.835938 34.152344 C 70.589844 32.789062 70.238281 31.453125 69.78125 30.148438 C 69.324219 28.839844 68.769531 27.574219 68.113281 26.355469 C 67.457031 25.136719 66.710938 23.976562 65.871094 22.875 C 65.03125 21.773438 64.109375 20.742188 63.109375 19.785156 C 62.105469 18.828125 61.035156 17.957031 59.894531 17.171875 C 58.757812 16.382812 57.5625 15.691406 56.3125 15.089844 C 55.066406 14.492188 53.777344 13.996094 52.449219 13.601562 L 70.207031 13.601562 C 70.277344 14.097656 70.4375 14.566406 70.6875 15.003906 C 70.9375 15.441406 71.257812 15.816406 71.65625 16.128906 C 72.050781 16.441406 72.488281 16.667969 72.972656 16.8125 C 73.453125 16.957031 73.945312 17.003906 74.449219 16.957031 C 74.949219 16.910156 75.425781 16.773438 75.875 16.542969 C 76.320312 16.3125 76.710938 16.007812 77.042969 15.628906 C 77.371094 15.246094 77.621094 14.820312 77.785156 14.34375 C 77.953125 13.867188 78.023438 13.378906 78 12.875 C 77.976562 12.371094 77.859375 11.890625 77.652344 11.433594 C 77.441406 10.972656 77.15625 10.570312 76.789062 10.222656 C 76.425781 9.875 76.011719 9.609375 75.542969 9.421875 C 75.074219 9.234375 74.589844 9.140625 74.085938 9.140625 Z M 15.816406 15.890625 C 15.808594 15.890625 15.804688 15.890625 15.800781 15.890625 C 16.398438 15.289062 16.792969 14.246094 16.792969 13.058594 C 16.792969 11.871094 16.398438 10.828125 15.800781 10.226562 C 15.804688 10.226562 15.808594 10.226562 15.816406 10.226562 C 16.191406 10.226562 16.550781 10.296875 16.898438 10.441406 C 17.246094 10.585938 17.550781 10.789062 17.816406 11.054688 C 18.082031 11.320312 18.289062 11.625 18.433594 11.972656 C 18.574219 12.320312 18.648438 12.683594 18.648438 13.058594 C 18.648438 13.433594 18.574219 13.792969 18.433594 14.140625 C 18.289062 14.488281 18.082031 14.792969 17.816406 15.058594 C 17.550781 15.324219 17.246094 15.53125 16.898438 15.675781 C 16.550781 15.816406 16.191406 15.890625 15.816406 15.890625 Z M 47.78125 15.800781 C 47.78125 15.859375 47.753906 15.890625 47.695312 15.890625 L 42.207031 15.890625 C 42.148438 15.890625 42.117188 15.859375 42.117188 15.800781 L 42.117188 10.3125 C 42.117188 10.253906 42.148438 10.226562 42.207031 10.226562 L 47.695312 10.226562 C 47.753906 10.226562 47.78125 10.253906 47.78125 10.3125 Z M 73.453125 39.359375 C 73.511719 39.359375 73.542969 39.390625 73.542969 39.449219 L 73.542969 44.9375 C 73.542969 44.996094 73.511719 45.023438 73.453125 45.023438 L 67.96875 45.023438 C 67.90625 45.023438 67.878906 44.996094 67.878906 44.9375 L 67.878906 39.449219 C 67.878906 39.390625 67.90625 39.359375 67.96875 39.359375 Z M 74.085938 15.890625 C 74.078125 15.890625 74.074219 15.890625 74.070312 15.890625 C 74.667969 15.289062 75.0625 14.246094 75.0625 13.058594 C 75.0625 11.871094 74.667969 10.828125 74.070312 10.226562 C 74.074219 10.226562 74.078125 10.226562 74.085938 10.226562 C 74.460938 10.226562 74.820312 10.296875 75.167969 10.441406 C 75.515625 10.585938 75.824219 10.789062 76.089844 11.054688 C 76.355469 11.320312 76.558594 11.625 76.703125 11.972656 C 76.84375 12.320312 76.917969 12.683594 76.917969 13.058594 C 76.917969 13.433594 76.84375 13.792969 76.703125 14.140625 C 76.558594 14.488281 76.355469 14.792969 76.089844 15.058594 C 75.824219 15.324219 75.515625 15.53125 75.167969 15.675781 C 74.820312 15.816406 74.460938 15.890625 74.085938 15.890625 Z M 74.085938 15.890625 " fill-opacity="1" fill-rule="nonzero"/></g></svg>