<svg xmlns="http://www.w3.org/2000/svg" xmlns:xlink="http://www.w3.org/1999/xlink" width="120" zoomAndPan="magnify" viewBox="0 0 90 89.999999" height="120" preserveAspectRatio="xMidYMid meet" version="1.0"><defs><clipPath id="66f505771a"><path d="M 29 39 L 76.5 39 L 76.5 76.5 L 29 76.5 Z M 29 39 " clip-rule="nonzero"/></clipPath><clipPath id="67ac44a823"><path d="M 13.5 13.5 L 49 13.5 L 49 61 L 13.5 61 Z M 13.5 13.5 " clip-rule="nonzero"/></clipPath></defs><g clip-path="url(#66f505771a)"><path fill="#ffffff" d="M 74.53125 76.5 L 31.21875 76.5 C 30.957031 76.5 30.707031 76.449219 30.464844 76.351562 C 30.222656 76.25 30.011719 76.109375 29.828125 75.921875 C 29.640625 75.738281 29.5 75.527344 29.398438 75.285156 C 29.300781 75.042969 29.25 74.792969 29.25 74.53125 L 29.25 41.0625 C 29.25 40.800781 29.300781 40.550781 29.398438 40.308594 C 29.5 40.066406 29.640625 39.855469 29.828125 39.671875 C 30.011719 39.484375 30.222656 39.34375 30.464844 39.242188 C 30.707031 39.144531 30.957031 39.09375 31.21875 39.09375 L 74.53125 39.09375 C 74.792969 39.09375 75.042969 39.144531 75.285156 39.242188 C 75.527344 39.34375 75.738281 39.484375 75.921875 39.671875 C 76.109375 39.855469 76.25 40.066406 76.351562 40.308594 C 76.449219 40.550781 76.5 40.800781 76.5 41.0625 L 76.5 74.53125 C 76.5 74.792969 76.449219 75.042969 76.351562 75.285156 C 76.25 75.527344 76.109375 75.738281 75.921875 75.921875 C 75.738281 76.109375 75.527344 76.25 75.285156 76.351562 C 75.042969 76.449219 74.792969 76.5 74.53125 76.5 Z M 33.1875 72.5625 L 72.5625 72.5625 L 72.5625 43.03125 L 33.1875 43.03125 Z M 33.1875 72.5625 " fill-opacity="1" fill-rule="nonzero"/></g><g clip-path="url(#67ac44a823)"><path fill="#ffffff" d="M 31.21875 60.75 L 21.375 60.75 C 20.859375 60.75 20.347656 60.699219 19.839844 60.597656 C 19.332031 60.496094 18.839844 60.347656 18.363281 60.152344 C 17.882812 59.953125 17.429688 59.710938 17 59.421875 C 16.570312 59.136719 16.171875 58.808594 15.804688 58.445312 C 15.441406 58.078125 15.113281 57.679688 14.828125 57.25 C 14.539062 56.820312 14.296875 56.367188 14.097656 55.886719 C 13.902344 55.410156 13.753906 54.917969 13.652344 54.410156 C 13.550781 53.902344 13.5 53.390625 13.5 52.875 L 13.5 21.375 C 13.5 20.859375 13.550781 20.347656 13.652344 19.839844 C 13.753906 19.332031 13.902344 18.839844 14.097656 18.363281 C 14.296875 17.882812 14.539062 17.429688 14.828125 17 C 15.113281 16.570312 15.441406 16.171875 15.804688 15.804688 C 16.171875 15.441406 16.570312 15.113281 17 14.828125 C 17.429688 14.539062 17.882812 14.296875 18.363281 14.097656 C 18.839844 13.902344 19.332031 13.753906 19.839844 13.652344 C 20.347656 13.550781 20.859375 13.5 21.375 13.5 L 41.0625 13.5 C 41.578125 13.5 42.089844 13.550781 42.597656 13.652344 C 43.105469 13.753906 43.597656 13.902344 44.074219 14.097656 C 44.554688 14.296875 45.007812 14.539062 45.4375 14.828125 C 45.867188 15.113281 46.265625 15.441406 46.632812 15.804688 C 46.996094 16.171875 47.324219 16.570312 47.609375 17 C 47.898438 17.429688 48.140625 17.882812 48.339844 18.363281 C 48.535156 18.839844 48.683594 19.332031 48.785156 19.839844 C 48.886719 20.347656 48.9375 20.859375 48.9375 21.375 L 48.9375 33.1875 C 48.9375 33.449219 48.886719 33.699219 48.789062 33.941406 C 48.6875 34.183594 48.546875 34.394531 48.359375 34.578125 C 48.175781 34.765625 47.964844 34.90625 47.722656 35.007812 C 47.480469 35.105469 47.230469 35.15625 46.96875 35.15625 C 46.707031 35.15625 46.457031 35.105469 46.214844 35.007812 C 45.972656 34.90625 45.761719 34.765625 45.578125 34.578125 C 45.390625 34.394531 45.25 34.183594 45.148438 33.941406 C 45.050781 33.699219 45 33.449219 45 33.1875 L 45 21.375 C 45 20.851562 44.898438 20.351562 44.699219 19.867188 C 44.5 19.386719 44.214844 18.960938 43.847656 18.589844 C 43.476562 18.222656 43.050781 17.9375 42.570312 17.738281 C 42.085938 17.539062 41.585938 17.4375 41.0625 17.4375 L 21.375 17.4375 C 20.851562 17.4375 20.351562 17.539062 19.867188 17.738281 C 19.386719 17.9375 18.960938 18.222656 18.589844 18.589844 C 18.222656 18.960938 17.9375 19.386719 17.738281 19.867188 C 17.539062 20.351562 17.4375 20.851562 17.4375 21.375 L 17.4375 52.875 C 17.4375 53.398438 17.539062 53.898438 17.738281 54.382812 C 17.9375 54.863281 18.222656 55.289062 18.589844 55.660156 C 18.960938 56.027344 19.386719 56.3125 19.867188 56.511719 C 20.351562 56.710938 20.851562 56.8125 21.375 56.8125 L 31.21875 56.8125 C 31.480469 56.8125 31.730469 56.863281 31.972656 56.960938 C 32.214844 57.0625 32.425781 57.203125 32.609375 57.390625 C 32.796875 57.574219 32.9375 57.785156 33.039062 58.027344 C 33.136719 58.269531 33.1875 58.519531 33.1875 58.78125 C 33.1875 59.042969 33.136719 59.292969 33.039062 59.535156 C 32.9375 59.777344 32.796875 59.988281 32.609375 60.171875 C 32.425781 60.359375 32.214844 60.5 31.972656 60.601562 C 31.730469 60.699219 31.480469 60.75 31.21875 60.75 Z M 31.21875 60.75 " fill-opacity="1" fill-rule="nonzero"/></g><path fill="#ffffff" d="M 27.28125 35.15625 C 26.894531 35.15625 26.507812 35.117188 26.128906 35.042969 C 25.75 34.96875 25.378906 34.855469 25.019531 34.707031 C 24.664062 34.558594 24.324219 34.375 24 34.160156 C 23.675781 33.945312 23.378906 33.699219 23.105469 33.425781 C 22.832031 33.152344 22.585938 32.855469 22.371094 32.53125 C 22.15625 32.207031 21.972656 31.867188 21.824219 31.511719 C 21.675781 31.152344 21.5625 30.78125 21.488281 30.402344 C 21.414062 30.023438 21.375 29.636719 21.375 29.25 L 21.375 23.34375 C 21.375 23.082031 21.425781 22.832031 21.523438 22.589844 C 21.625 22.347656 21.765625 22.136719 21.953125 21.953125 C 22.136719 21.765625 22.347656 21.625 22.589844 21.523438 C 22.832031 21.425781 23.082031 21.375 23.34375 21.375 C 23.605469 21.375 23.855469 21.425781 24.097656 21.523438 C 24.339844 21.625 24.550781 21.765625 24.734375 21.953125 C 24.921875 22.136719 25.0625 22.347656 25.164062 22.589844 C 25.261719 22.832031 25.3125 23.082031 25.3125 23.34375 L 25.3125 29.25 C 25.3125 29.511719 25.363281 29.761719 25.460938 30.003906 C 25.5625 30.246094 25.703125 30.457031 25.890625 30.640625 C 26.074219 30.828125 26.285156 30.96875 26.527344 31.070312 C 26.769531 31.167969 27.019531 31.21875 27.28125 31.21875 C 27.542969 31.21875 27.792969 31.167969 28.035156 31.070312 C 28.277344 30.96875 28.488281 30.828125 28.671875 30.640625 C 28.859375 30.457031 29 30.246094 29.101562 30.003906 C 29.199219 29.761719 29.25 29.511719 29.25 29.25 L 29.25 23.34375 C 29.25 23.082031 29.300781 22.832031 29.398438 22.589844 C 29.5 22.347656 29.640625 22.136719 29.828125 21.953125 C 30.011719 21.765625 30.222656 21.625 30.464844 21.523438 C 30.707031 21.425781 30.957031 21.375 31.21875 21.375 C 31.480469 21.375 31.730469 21.425781 31.972656 21.523438 C 32.214844 21.625 32.425781 21.765625 32.609375 21.953125 C 32.796875 22.136719 32.9375 22.347656 33.039062 22.589844 C 33.136719 22.832031 33.1875 23.082031 33.1875 23.34375 L 33.1875 29.25 C 33.1875 29.636719 33.148438 30.023438 33.074219 30.402344 C 33 30.78125 32.886719 31.152344 32.738281 31.511719 C 32.589844 31.867188 32.40625 32.207031 32.191406 32.53125 C 31.976562 32.855469 31.730469 33.152344 31.457031 33.425781 C 31.183594 33.699219 30.886719 33.945312 30.5625 34.160156 C 30.238281 34.375 29.898438 34.558594 29.542969 34.707031 C 29.183594 34.855469 28.8125 34.96875 28.433594 35.042969 C 28.054688 35.117188 27.667969 35.15625 27.28125 35.15625 Z M 27.28125 35.15625 " fill-opacity="1" fill-rule="nonzero"/><path fill="#ffffff" d="M 43.03125 60.75 C 42.644531 60.75 42.257812 60.710938 41.878906 60.636719 C 41.5 60.5625 41.128906 60.449219 40.769531 60.300781 C 40.414062 60.152344 40.074219 59.96875 39.75 59.753906 C 39.425781 59.539062 39.128906 59.292969 38.855469 59.019531 C 38.582031 58.746094 38.335938 58.449219 38.121094 58.125 C 37.90625 57.800781 37.722656 57.460938 37.574219 57.105469 C 37.425781 56.746094 37.3125 56.375 37.238281 55.996094 C 37.164062 55.617188 37.125 55.230469 37.125 54.84375 L 37.125 48.9375 C 37.125 48.675781 37.175781 48.425781 37.273438 48.183594 C 37.375 47.941406 37.515625 47.730469 37.703125 47.546875 C 37.886719 47.359375 38.097656 47.21875 38.339844 47.117188 C 38.582031 47.019531 38.832031 46.96875 39.09375 46.96875 C 39.355469 46.96875 39.605469 47.019531 39.847656 47.117188 C 40.089844 47.21875 40.300781 47.359375 40.484375 47.546875 C 40.671875 47.730469 40.8125 47.941406 40.914062 48.183594 C 41.011719 48.425781 41.0625 48.675781 41.0625 48.9375 L 41.0625 54.84375 C 41.0625 55.105469 41.113281 55.355469 41.210938 55.597656 C 41.3125 55.839844 41.453125 56.050781 41.640625 56.234375 C 41.824219 56.421875 42.035156 56.5625 42.277344 56.664062 C 42.519531 56.761719 42.769531 56.8125 43.03125 56.8125 C 43.292969 56.8125 43.542969 56.761719 43.785156 56.664062 C 44.027344 56.5625 44.238281 56.421875 44.421875 56.234375 C 44.609375 56.050781 44.75 55.839844 44.851562 55.597656 C 44.949219 55.355469 45 55.105469 45 54.84375 L 45 48.9375 C 45 48.675781 45.050781 48.425781 45.148438 48.183594 C 45.25 47.941406 45.390625 47.730469 45.578125 47.546875 C 45.761719 47.359375 45.972656 47.21875 46.214844 47.117188 C 46.457031 47.019531 46.707031 46.96875 46.96875 46.96875 C 47.230469 46.96875 47.480469 47.019531 47.722656 47.117188 C 47.964844 47.21875 48.175781 47.359375 48.359375 47.546875 C 48.546875 47.730469 48.6875 47.941406 48.789062 48.183594 C 48.886719 48.425781 48.9375 48.675781 48.9375 48.9375 L 48.9375 54.84375 C 48.9375 55.230469 48.898438 55.617188 48.824219 55.996094 C 48.75 56.375 48.636719 56.746094 48.488281 57.105469 C 48.339844 57.460938 48.15625 57.800781 47.941406 58.125 C 47.726562 58.449219 47.480469 58.746094 47.207031 59.019531 C 46.933594 59.292969 46.636719 59.539062 46.3125 59.753906 C 45.988281 59.96875 45.648438 60.152344 45.292969 60.300781 C 44.933594 60.449219 44.5625 60.5625 44.183594 60.636719 C 43.804688 60.710938 43.417969 60.75 43.03125 60.75 Z M 43.03125 60.75 " fill-opacity="1" fill-rule="nonzero"/><path fill="#ffffff" d="M 39.09375 35.15625 C 38.832031 35.15625 38.582031 35.105469 38.339844 35.007812 C 38.097656 34.90625 37.886719 34.765625 37.703125 34.578125 C 37.515625 34.394531 37.375 34.183594 37.273438 33.941406 C 37.175781 33.699219 37.125 33.449219 37.125 33.1875 L 37.125 23.34375 C 37.125 23.082031 37.175781 22.832031 37.273438 22.589844 C 37.375 22.347656 37.515625 22.136719 37.703125 21.953125 C 37.886719 21.765625 38.097656 21.625 38.339844 21.523438 C 38.582031 21.425781 38.832031 21.375 39.09375 21.375 C 39.355469 21.375 39.605469 21.425781 39.847656 21.523438 C 40.089844 21.625 40.300781 21.765625 40.484375 21.953125 C 40.671875 22.136719 40.8125 22.347656 40.914062 22.589844 C 41.011719 22.832031 41.0625 23.082031 41.0625 23.34375 L 41.0625 33.1875 C 41.0625 33.449219 41.011719 33.699219 40.914062 33.941406 C 40.8125 34.183594 40.671875 34.394531 40.484375 34.578125 C 40.300781 34.765625 40.089844 34.90625 39.847656 35.007812 C 39.605469 35.105469 39.355469 35.15625 39.09375 35.15625 Z M 39.09375 35.15625 " fill-opacity="1" fill-rule="nonzero"/><path fill="#ffffff" d="M 60.75 60.75 C 60.117188 60.746094 59.605469 60.496094 59.214844 60 L 51.339844 50.15625 C 51.203125 49.953125 51.109375 49.730469 51.054688 49.488281 C 51.003906 49.246094 50.996094 49.003906 51.035156 48.761719 C 51.074219 48.519531 51.152344 48.289062 51.277344 48.078125 C 51.402344 47.863281 51.5625 47.679688 51.753906 47.527344 C 51.945312 47.375 52.160156 47.261719 52.398438 47.1875 C 52.632812 47.113281 52.875 47.085938 53.121094 47.105469 C 53.363281 47.121094 53.601562 47.183594 53.824219 47.289062 C 54.046875 47.394531 54.242188 47.539062 54.410156 47.71875 L 62.285156 57.5625 C 62.519531 57.855469 62.65625 58.191406 62.699219 58.566406 C 62.738281 58.9375 62.679688 59.296875 62.515625 59.636719 C 62.351562 59.972656 62.109375 60.246094 61.792969 60.445312 C 61.472656 60.648438 61.125 60.75 60.75 60.75 Z M 60.75 60.75 " fill-opacity="1" fill-rule="nonzero"/><path fill="#ffffff" d="M 52.875 60.75 C 52.5 60.75 52.152344 60.648438 51.832031 60.445312 C 51.515625 60.246094 51.273438 59.972656 51.109375 59.636719 C 50.945312 59.296875 50.886719 58.9375 50.925781 58.566406 C 50.96875 58.191406 51.105469 57.855469 51.339844 57.5625 L 59.214844 47.71875 C 59.367188 47.488281 59.558594 47.296875 59.792969 47.148438 C 60.023438 47 60.273438 46.90625 60.546875 46.863281 C 60.820312 46.820312 61.089844 46.832031 61.355469 46.902344 C 61.621094 46.972656 61.863281 47.09375 62.078125 47.265625 C 62.292969 47.4375 62.46875 47.644531 62.59375 47.886719 C 62.722656 48.132812 62.796875 48.390625 62.816406 48.667969 C 62.835938 48.941406 62.800781 49.207031 62.707031 49.46875 C 62.617188 49.726562 62.476562 49.957031 62.285156 50.15625 L 54.410156 60 C 54.019531 60.496094 53.507812 60.746094 52.875 60.75 Z M 52.875 60.75 " fill-opacity="1" fill-rule="nonzero"/><path fill="#ffffff" d="M 43.03125 68.625 L 39.09375 68.625 C 38.832031 68.625 38.582031 68.574219 38.339844 68.476562 C 38.097656 68.375 37.886719 68.234375 37.703125 68.046875 C 37.515625 67.863281 37.375 67.652344 37.273438 67.410156 C 37.175781 67.167969 37.125 66.917969 37.125 66.65625 C 37.125 66.394531 37.175781 66.144531 37.273438 65.902344 C 37.375 65.660156 37.515625 65.449219 37.703125 65.265625 C 37.886719 65.078125 38.097656 64.9375 38.339844 64.835938 C 38.582031 64.738281 38.832031 64.6875 39.09375 64.6875 L 43.03125 64.6875 C 43.292969 64.6875 43.542969 64.738281 43.785156 64.835938 C 44.027344 64.9375 44.238281 65.078125 44.421875 65.265625 C 44.609375 65.449219 44.75 65.660156 44.851562 65.902344 C 44.949219 66.144531 45 66.394531 45 66.65625 C 45 66.917969 44.949219 67.167969 44.851562 67.410156 C 44.75 67.652344 44.609375 67.863281 44.421875 68.046875 C 44.238281 68.234375 44.027344 68.375 43.785156 68.476562 C 43.542969 68.574219 43.292969 68.625 43.03125 68.625 Z M 43.03125 68.625 " fill-opacity="1" fill-rule="nonzero"/><path fill="#ffffff" d="M 66.65625 68.625 L 50.90625 68.625 C 50.644531 68.625 50.394531 68.574219 50.152344 68.476562 C 49.910156 68.375 49.699219 68.234375 49.515625 68.046875 C 49.328125 67.863281 49.1875 67.652344 49.085938 67.410156 C 48.988281 67.167969 48.9375 66.917969 48.9375 66.65625 C 48.9375 66.394531 48.988281 66.144531 49.085938 65.902344 C 49.1875 65.660156 49.328125 65.449219 49.515625 65.265625 C 49.699219 65.078125 49.910156 64.9375 50.152344 64.835938 C 50.394531 64.738281 50.644531 64.6875 50.90625 64.6875 L 66.65625 64.6875 C 66.917969 64.6875 67.167969 64.738281 67.410156 64.835938 C 67.652344 64.9375 67.863281 65.078125 68.046875 65.265625 C 68.234375 65.449219 68.375 65.660156 68.476562 65.902344 C 68.574219 66.144531 68.625 66.394531 68.625 66.65625 C 68.625 66.917969 68.574219 67.167969 68.476562 67.410156 C 68.375 67.652344 68.234375 67.863281 68.046875 68.046875 C 67.863281 68.234375 67.652344 68.375 67.410156 68.476562 C 67.167969 68.574219 66.917969 68.625 66.65625 68.625 Z M 66.65625 68.625 " fill-opacity="1" fill-rule="nonzero"/></svg>