<svg xmlns="http://www.w3.org/2000/svg" xmlns:xlink="http://www.w3.org/1999/xlink" width="120" zoomAndPan="magnify" viewBox="0 0 90 89.999999" height="120" preserveAspectRatio="xMidYMid meet" version="1.0"><defs><clipPath id="c1b8f62102"><path d="M 34 11.816406 L 56 11.816406 L 56 28 L 34 28 Z M 34 11.816406 " clip-rule="nonzero"/></clipPath><clipPath id="175e852dc4"><path d="M 7.566406 70 L 82.429688 70 L 82.429688 77.816406 L 7.566406 77.816406 Z M 7.566406 70 " clip-rule="nonzero"/></clipPath></defs><path fill="#ffffff" d="M 25.550781 69.984375 L 64.449219 69.984375 L 66.167969 46.996094 C 66.179688 46.804688 66.089844 46.675781 66.035156 46.617188 C 65.976562 46.554688 65.855469 46.457031 65.664062 46.457031 L 24.332031 46.457031 C 24.140625 46.457031 24.019531 46.554688 23.964844 46.617188 C 23.910156 46.675781 23.816406 46.804688 23.832031 46.996094 Z M 65.402344 72.039062 L 24.597656 72.039062 C 24.058594 72.039062 23.609375 71.625 23.570312 71.089844 L 21.78125 47.148438 C 21.730469 46.441406 21.976562 45.738281 22.457031 45.21875 C 22.941406 44.699219 23.621094 44.402344 24.332031 44.402344 L 65.664062 44.402344 C 66.375 44.402344 67.058594 44.699219 67.539062 45.21875 C 68.023438 45.738281 68.269531 46.441406 68.214844 47.148438 L 66.425781 71.089844 C 66.386719 71.625 65.941406 72.039062 65.402344 72.039062 " fill-opacity="1" fill-rule="nonzero"/><path fill="#ffffff" d="M 45 46.160156 C 44.6875 46.160156 44.394531 46.019531 44.199219 45.78125 L 40.140625 40.746094 C 39.992188 40.5625 39.910156 40.335938 39.910156 40.101562 L 39.910156 36.496094 C 39.910156 35.929688 40.371094 35.46875 40.9375 35.46875 C 41.507812 35.46875 41.964844 35.929688 41.964844 36.496094 L 41.964844 39.738281 L 45 43.496094 L 48.03125 39.738281 L 48.03125 36.496094 C 48.03125 35.929688 48.492188 35.46875 49.058594 35.46875 C 49.625 35.46875 50.085938 35.929688 50.085938 36.496094 L 50.085938 40.101562 C 50.085938 40.335938 50.007812 40.5625 49.859375 40.746094 L 45.796875 45.78125 C 45.605469 46.019531 45.308594 46.160156 45 46.160156 " fill-opacity="1" fill-rule="nonzero"/><g clip-path="url(#c1b8f62102)"><path fill="#ffffff" d="M 54.5625 27.167969 C 53.996094 27.167969 53.535156 26.707031 53.535156 26.140625 L 53.535156 22.40625 C 53.535156 17.71875 49.71875 13.886719 45.03125 13.871094 C 45.019531 13.871094 45.011719 13.871094 45 13.871094 C 42.757812 13.871094 40.632812 14.757812 39.015625 16.367188 C 37.371094 18.007812 36.460938 20.179688 36.460938 22.480469 L 36.460938 26.140625 C 36.460938 26.707031 36.003906 27.167969 35.433594 27.167969 C 34.867188 27.167969 34.40625 26.707031 34.40625 26.140625 L 34.40625 22.480469 C 34.40625 21.042969 34.695312 19.644531 35.257812 18.320312 C 35.800781 17.042969 36.578125 15.894531 37.566406 14.914062 C 39.570312 12.914062 42.207031 11.816406 45 11.816406 C 45.011719 11.816406 45.023438 11.816406 45.039062 11.816406 C 47.859375 11.828125 50.507812 12.933594 52.5 14.929688 C 54.492188 16.929688 55.589844 19.585938 55.589844 22.40625 L 55.589844 26.140625 C 55.589844 26.707031 55.128906 27.167969 54.5625 27.167969 " fill-opacity="1" fill-rule="nonzero"/></g><path fill="#ffffff" d="M 38.945312 25.292969 L 38.945312 30.679688 C 38.945312 34.015625 41.660156 36.730469 45 36.730469 C 48.335938 36.730469 51.050781 34.015625 51.050781 30.679688 L 51.050781 24.664062 L 49.101562 22.484375 C 46.007812 24.820312 41.097656 25.230469 38.945312 25.292969 Z M 45 38.785156 C 40.527344 38.785156 36.890625 35.148438 36.890625 30.679688 L 36.890625 24.269531 C 36.890625 23.992188 37.003906 23.726562 37.203125 23.53125 C 37.402344 23.339844 37.671875 23.234375 37.949219 23.242188 C 38.023438 23.246094 45.367188 23.421875 48.464844 20.320312 C 48.667969 20.121094 48.941406 20.015625 49.222656 20.023438 C 49.503906 20.027344 49.769531 20.152344 49.957031 20.363281 L 52.84375 23.585938 C 53.011719 23.773438 53.105469 24.015625 53.105469 24.269531 L 53.105469 30.679688 C 53.105469 35.148438 49.46875 38.785156 45 38.785156 " fill-opacity="1" fill-rule="nonzero"/><path fill="#ffffff" d="M 36.890625 26.773438 C 36.0625 26.785156 35.390625 27.464844 35.390625 28.296875 C 35.390625 29.128906 36.0625 29.808594 36.890625 29.820312 Z M 37.917969 31.875 L 36.914062 31.875 C 34.9375 31.875 33.335938 30.269531 33.335938 28.296875 C 33.335938 26.324219 34.9375 24.71875 36.914062 24.71875 L 37.917969 24.71875 C 38.484375 24.71875 38.945312 25.179688 38.945312 25.746094 L 38.945312 30.847656 C 38.945312 31.414062 38.484375 31.875 37.917969 31.875 " fill-opacity="1" fill-rule="nonzero"/><path fill="#ffffff" d="M 53.105469 26.773438 L 53.105469 29.820312 C 53.9375 29.808594 54.609375 29.128906 54.609375 28.296875 C 54.609375 27.464844 53.9375 26.785156 53.105469 26.773438 Z M 53.085938 31.875 L 52.078125 31.875 C 51.511719 31.875 51.050781 31.414062 51.050781 30.847656 L 51.050781 25.746094 C 51.050781 25.179688 51.511719 24.71875 52.078125 24.71875 L 53.085938 24.71875 C 55.058594 24.71875 56.664062 26.324219 56.664062 28.296875 C 56.664062 30.269531 55.058594 31.875 53.085938 31.875 " fill-opacity="1" fill-rule="nonzero"/><path fill="#ffffff" d="M 28.320312 46.457031 C 28.097656 46.457031 27.867188 46.382812 27.679688 46.226562 C 27.234375 45.871094 27.167969 45.226562 27.523438 44.785156 C 28.660156 43.371094 30.179688 42.339844 31.914062 41.800781 L 40.671875 39.09375 C 41.214844 38.929688 41.789062 39.234375 41.953125 39.777344 C 42.121094 40.320312 41.816406 40.894531 41.273438 41.058594 L 41.238281 41.070312 L 32.523438 43.765625 C 31.179688 44.179688 30.003906 44.976562 29.125 46.070312 C 28.921875 46.324219 28.621094 46.457031 28.320312 46.457031 " fill-opacity="1" fill-rule="nonzero"/><path fill="#ffffff" d="M 61.675781 46.457031 C 61.375 46.457031 61.078125 46.324219 60.875 46.070312 C 59.992188 44.976562 58.820312 44.179688 57.476562 43.765625 L 48.722656 41.058594 C 48.183594 40.894531 47.875 40.320312 48.042969 39.777344 C 48.210938 39.234375 48.785156 38.929688 49.328125 39.09375 L 49.359375 39.105469 L 58.082031 41.800781 C 59.816406 42.339844 61.335938 43.371094 62.476562 44.785156 C 62.832031 45.226562 62.761719 45.871094 62.320312 46.226562 C 62.128906 46.382812 61.902344 46.457031 61.675781 46.457031 " fill-opacity="1" fill-rule="nonzero"/><path fill="#ffffff" d="M 39.941406 63.265625 C 39.722656 63.265625 39.503906 63.195312 39.316406 63.050781 L 34.109375 59.035156 C 33.855469 58.839844 33.707031 58.539062 33.707031 58.21875 C 33.707031 57.902344 33.855469 57.601562 34.109375 57.40625 L 39.316406 53.390625 C 39.765625 53.042969 40.410156 53.125 40.757812 53.574219 C 41.101562 54.023438 41.019531 54.671875 40.570312 55.015625 L 36.417969 58.21875 L 40.570312 61.425781 C 41.019531 61.769531 41.101562 62.414062 40.757812 62.867188 C 40.554688 63.128906 40.25 63.265625 39.941406 63.265625 " fill-opacity="1" fill-rule="nonzero"/><path fill="#ffffff" d="M 50.054688 63.265625 C 49.746094 63.265625 49.441406 63.128906 49.242188 62.867188 C 48.894531 62.414062 48.976562 61.769531 49.425781 61.425781 L 53.582031 58.21875 L 49.425781 55.015625 C 48.976562 54.671875 48.894531 54.023438 49.242188 53.574219 C 49.585938 53.125 50.234375 53.042969 50.683594 53.390625 L 55.890625 57.40625 C 56.140625 57.601562 56.289062 57.902344 56.289062 58.21875 C 56.289062 58.539062 56.140625 58.839844 55.890625 59.035156 L 50.683594 63.050781 C 50.496094 63.195312 50.273438 63.265625 50.054688 63.265625 " fill-opacity="1" fill-rule="nonzero"/><path fill="#ffffff" d="M 43.101562 66.324219 C 43.015625 66.324219 42.925781 66.316406 42.835938 66.289062 C 42.289062 66.144531 41.964844 65.582031 42.109375 65.03125 L 45.902344 50.875 C 46.050781 50.328125 46.613281 50.003906 47.160156 50.148438 C 47.710938 50.296875 48.035156 50.859375 47.886719 51.410156 L 44.09375 65.5625 C 43.972656 66.023438 43.554688 66.324219 43.101562 66.324219 " fill-opacity="1" fill-rule="nonzero"/><g clip-path="url(#175e852dc4)"><path fill="#ffffff" d="M 9.625 76.125 L 80.375 76.125 C 80.308594 73.871094 78.457031 72.058594 76.1875 72.058594 L 13.8125 72.058594 C 11.542969 72.058594 9.691406 73.871094 9.625 76.125 Z M 81.402344 78.179688 L 8.59375 78.179688 C 8.027344 78.179688 7.566406 77.71875 7.566406 77.152344 L 7.566406 76.246094 C 7.566406 72.804688 10.367188 70.003906 13.8125 70.003906 L 76.1875 70.003906 C 79.628906 70.003906 82.429688 72.804688 82.429688 76.246094 L 82.429688 77.152344 C 82.429688 77.71875 81.96875 78.179688 81.402344 78.179688 " fill-opacity="1" fill-rule="nonzero"/></g></svg>