<svg xmlns="http://www.w3.org/2000/svg" xmlns:xlink="http://www.w3.org/1999/xlink" width="120" zoomAndPan="magnify" viewBox="0 0 90 89.999999" height="120" preserveAspectRatio="xMidYMid meet" version="1.0"><defs><clipPath id="6a593166e8"><path d="M 9 22.5 L 72 22.5 L 72 69 L 9 69 Z M 9 22.5 " clip-rule="nonzero"/></clipPath><clipPath id="2cbcf72cbe"><path d="M 58 34 L 82.5 34 L 82.5 59 L 58 59 Z M 58 34 " clip-rule="nonzero"/></clipPath></defs><path fill="#ffffff" d="M 35.519531 57.09375 C 34.886719 57.09375 34.367188 57.613281 34.367188 58.246094 C 34.367188 58.878906 34.886719 59.398438 35.519531 59.398438 L 44.742188 59.398438 C 45.378906 59.398438 45.894531 58.878906 45.894531 58.246094 C 45.894531 57.613281 45.378906 57.09375 44.742188 57.09375 Z M 35.519531 57.09375 " fill-opacity="1" fill-rule="nonzero"/><path fill="#ffffff" d="M 19.433594 57.898438 C 19.433594 58.171875 19.339844 58.402344 19.148438 58.59375 C 18.957031 58.785156 18.726562 58.878906 18.453125 58.878906 C 18.183594 58.878906 17.953125 58.785156 17.761719 58.59375 C 17.570312 58.402344 17.476562 58.171875 17.476562 57.898438 C 17.476562 57.628906 17.570312 57.398438 17.761719 57.207031 C 17.953125 57.015625 18.183594 56.917969 18.453125 56.917969 C 18.726562 56.917969 18.957031 57.015625 19.148438 57.207031 C 19.339844 57.398438 19.433594 57.628906 19.433594 57.898438 Z M 19.433594 57.898438 " fill-opacity="1" fill-rule="nonzero"/><path fill="#ffffff" d="M 15.570312 57.898438 C 15.570312 58.171875 15.476562 58.402344 15.285156 58.59375 C 15.09375 58.785156 14.863281 58.878906 14.59375 58.878906 C 14.320312 58.878906 14.089844 58.785156 13.898438 58.59375 C 13.707031 58.402344 13.613281 58.171875 13.613281 57.898438 C 13.613281 57.628906 13.707031 57.398438 13.898438 57.207031 C 14.089844 57.015625 14.320312 56.917969 14.59375 56.917969 C 14.863281 56.917969 15.09375 57.015625 15.285156 57.207031 C 15.476562 57.398438 15.570312 57.628906 15.570312 57.898438 Z M 15.570312 57.898438 " fill-opacity="1" fill-rule="nonzero"/><path fill="#ffffff" d="M 34.769531 31.667969 C 34.425781 31.148438 33.675781 30.976562 33.15625 31.324219 L 22.777344 38.242188 C 22.433594 38.472656 22.257812 38.816406 22.257812 39.222656 C 22.257812 39.625 22.433594 39.96875 22.777344 40.199219 C 22.777344 40.199219 33.15625 47.117188 33.15625 47.117188 C 33.675781 47.464844 34.425781 47.351562 34.769531 46.773438 C 35.117188 46.253906 35 45.503906 34.425781 45.160156 L 25.488281 39.222656 L 34.425781 33.28125 C 34.941406 32.9375 35.117188 32.1875 34.769531 31.667969 Z M 34.769531 31.667969 " fill-opacity="1" fill-rule="nonzero"/><path fill="#ffffff" d="M 45.492188 46.773438 C 45.839844 47.292969 46.589844 47.464844 47.105469 47.117188 L 57.484375 40.199219 C 57.832031 39.96875 58.003906 39.625 58.003906 39.222656 C 58.003906 38.816406 57.832031 38.472656 57.484375 38.242188 L 47.105469 31.324219 C 46.589844 30.976562 45.839844 31.09375 45.492188 31.667969 C 45.148438 32.1875 45.261719 32.9375 45.839844 33.28125 L 54.773438 39.222656 L 45.839844 45.160156 C 45.320312 45.503906 45.148438 46.253906 45.492188 46.773438 Z M 45.492188 46.773438 " fill-opacity="1" fill-rule="nonzero"/><path fill="#ffffff" d="M 41.34375 30.285156 L 36.730469 47.582031 C 36.558594 48.214844 36.960938 48.847656 37.539062 48.964844 C 37.652344 48.964844 37.710938 49.023438 37.824219 49.023438 C 38.34375 49.023438 38.804688 48.675781 38.921875 48.15625 L 43.53125 30.863281 C 43.707031 30.226562 43.300781 29.59375 42.726562 29.476562 C 42.148438 29.304688 41.515625 29.652344 41.34375 30.285156 Z M 41.34375 30.285156 " fill-opacity="1" fill-rule="nonzero"/><g clip-path="url(#6a593166e8)"><path fill="#ffffff" d="M 35.519531 66.316406 L 32.058594 66.316406 C 31.425781 66.316406 30.90625 66.835938 30.90625 67.46875 C 30.90625 68.105469 31.425781 68.621094 32.058594 68.621094 L 48.203125 68.621094 C 48.835938 68.621094 49.355469 68.105469 49.355469 67.46875 C 49.355469 66.835938 48.835938 66.316406 48.203125 66.316406 L 44.742188 66.316406 L 44.742188 62.859375 L 67.804688 62.859375 C 69.300781 62.859375 70.570312 61.878906 71.03125 60.550781 L 69.820312 60.550781 C 69.300781 60.550781 68.839844 60.492188 68.378906 60.320312 C 68.207031 60.4375 67.976562 60.550781 67.746094 60.550781 L 12.460938 60.550781 C 11.824219 60.550781 11.304688 60.03125 11.304688 59.398438 L 11.304688 55.941406 L 60.078125 55.941406 L 59.90625 55.765625 C 59.328125 55.191406 58.867188 54.441406 58.636719 53.632812 L 11.304688 53.632812 L 11.304688 25.960938 C 11.304688 25.328125 11.824219 24.808594 12.460938 24.808594 L 67.804688 24.808594 C 68.4375 24.808594 68.957031 25.328125 68.957031 25.960938 L 68.957031 31.839844 C 69.246094 31.785156 69.535156 31.726562 69.878906 31.726562 L 71.261719 31.726562 L 71.261719 25.960938 C 71.261719 24.058594 69.707031 22.503906 67.804688 22.503906 L 12.460938 22.503906 C 10.554688 22.503906 9 24.058594 9 25.960938 L 9 59.398438 C 9 61.300781 10.554688 62.859375 12.460938 62.859375 L 35.519531 62.859375 Z M 37.824219 62.859375 L 42.4375 62.859375 L 42.4375 66.316406 L 37.824219 66.316406 Z M 37.824219 62.859375 " fill-opacity="1" fill-rule="nonzero"/></g><g clip-path="url(#2cbcf72cbe)"><path fill="#ffffff" d="M 80.542969 42.507812 C 80.429688 42.21875 80.3125 41.988281 80.199219 41.699219 C 80.949219 40.605469 80.832031 39.105469 79.851562 38.125 L 78.699219 36.972656 C 78.179688 36.453125 77.429688 36.164062 76.683594 36.164062 C 76.105469 36.164062 75.585938 36.339844 75.125 36.625 C 74.894531 36.511719 74.605469 36.394531 74.316406 36.28125 C 74.03125 34.953125 72.878906 34.03125 71.550781 34.03125 L 69.9375 34.03125 C 68.554688 34.03125 67.398438 35.011719 67.167969 36.28125 C 66.882812 36.394531 66.652344 36.511719 66.363281 36.625 C 65.902344 36.339844 65.382812 36.164062 64.804688 36.164062 C 64.054688 36.164062 63.308594 36.453125 62.789062 36.972656 L 61.636719 38.125 C 60.65625 39.105469 60.539062 40.605469 61.289062 41.699219 C 61.175781 41.929688 61.058594 42.21875 60.941406 42.507812 C 59.617188 42.796875 58.695312 43.949219 58.695312 45.273438 L 58.695312 46.886719 C 58.695312 48.273438 59.675781 49.425781 60.941406 49.65625 C 61.058594 49.945312 61.175781 50.175781 61.289062 50.460938 C 61 50.925781 60.828125 51.441406 60.828125 52.019531 C 60.828125 52.769531 61.117188 53.519531 61.636719 54.039062 L 62.789062 55.191406 C 63.308594 55.710938 64.054688 55.996094 64.804688 55.996094 C 65.382812 55.996094 65.902344 55.824219 66.363281 55.535156 C 66.59375 55.652344 66.882812 55.765625 67.167969 55.882812 C 67.457031 57.207031 68.609375 58.128906 69.9375 58.128906 L 71.550781 58.128906 C 72.933594 58.128906 74.085938 57.148438 74.316406 55.882812 C 74.605469 55.765625 74.835938 55.652344 75.125 55.535156 C 75.585938 55.824219 76.105469 55.996094 76.683594 55.996094 C 77.429688 55.996094 78.179688 55.710938 78.699219 55.191406 L 79.851562 54.039062 C 80.371094 53.519531 80.660156 52.769531 80.660156 52.019531 C 80.660156 51.441406 80.488281 50.925781 80.199219 50.460938 C 80.3125 50.230469 80.429688 49.945312 80.542969 49.65625 C 81.871094 49.367188 82.792969 48.214844 82.792969 46.886719 L 82.792969 45.273438 C 82.792969 43.949219 81.8125 42.796875 80.542969 42.507812 Z M 80.488281 46.945312 C 80.488281 47.234375 80.257812 47.464844 79.96875 47.464844 L 78.757812 47.464844 C 78.527344 48.734375 78.066406 49.828125 77.375 50.808594 L 78.238281 51.671875 C 78.46875 51.902344 78.46875 52.25 78.238281 52.421875 L 77.085938 53.574219 C 76.96875 53.691406 76.855469 53.75 76.683594 53.75 C 76.507812 53.75 76.394531 53.691406 76.277344 53.574219 L 75.414062 52.710938 C 74.433594 53.402344 73.28125 53.921875 72.070312 54.09375 L 72.070312 55.304688 C 72.070312 55.59375 71.839844 55.824219 71.550781 55.824219 L 69.9375 55.824219 C 69.648438 55.824219 69.417969 55.59375 69.417969 55.304688 L 69.417969 54.210938 C 68.148438 53.980469 67.054688 53.519531 66.074219 52.828125 L 65.09375 53.632812 C 64.980469 53.75 64.863281 53.804688 64.691406 53.804688 C 64.519531 53.804688 64.460938 53.75 64.34375 53.632812 L 63.191406 52.480469 C 62.960938 52.25 62.960938 51.902344 63.191406 51.730469 L 64.054688 50.867188 C 63.363281 49.886719 62.847656 48.734375 62.671875 47.523438 L 61.460938 47.523438 C 61.175781 47.523438 60.941406 47.292969 60.941406 47.003906 L 60.941406 45.390625 C 60.941406 45.101562 61.175781 44.871094 61.460938 44.871094 L 62.613281 44.871094 C 62.847656 43.601562 63.308594 42.507812 64 41.527344 L 63.191406 40.546875 C 62.960938 40.316406 62.960938 39.96875 63.191406 39.796875 L 64.34375 38.644531 C 64.460938 38.527344 64.574219 38.472656 64.75 38.472656 C 64.921875 38.472656 65.035156 38.527344 65.152344 38.644531 L 66.015625 39.507812 C 66.996094 38.816406 68.148438 38.296875 69.359375 38.125 L 69.359375 36.914062 C 69.359375 36.625 69.589844 36.394531 69.878906 36.394531 L 71.492188 36.394531 C 71.78125 36.394531 72.011719 36.625 72.011719 36.914062 L 72.011719 38.066406 C 73.28125 38.296875 74.375 38.757812 75.355469 39.453125 L 76.222656 38.585938 C 76.335938 38.472656 76.453125 38.414062 76.625 38.414062 C 76.796875 38.414062 76.914062 38.472656 77.027344 38.585938 L 78.179688 39.738281 C 78.410156 39.96875 78.410156 40.316406 78.179688 40.488281 L 77.316406 41.355469 C 78.007812 42.335938 78.527344 43.488281 78.699219 44.699219 L 79.910156 44.699219 C 80.199219 44.699219 80.429688 44.929688 80.429688 45.214844 L 80.429688 46.945312 Z M 80.488281 46.945312 " fill-opacity="1" fill-rule="nonzero"/></g><path fill="#ffffff" d="M 70.6875 41.527344 C 68.148438 41.527344 66.074219 43.601562 66.074219 46.140625 C 66.074219 48.675781 68.148438 50.75 70.6875 50.75 C 73.222656 50.75 75.296875 48.675781 75.296875 46.140625 C 75.296875 43.601562 73.222656 41.527344 70.6875 41.527344 Z M 70.6875 48.445312 C 69.417969 48.445312 68.378906 47.40625 68.378906 46.140625 C 68.378906 44.871094 69.417969 43.832031 70.6875 43.832031 C 71.953125 43.832031 72.992188 44.871094 72.992188 46.140625 C 72.992188 47.40625 71.953125 48.445312 70.6875 48.445312 Z M 70.6875 48.445312 " fill-opacity="1" fill-rule="nonzero"/></svg>